<?xml version="1.0" standalone="no"?>
<!DOCTYPE svg PUBLIC "-//W3C//DTD SVG 1.1//EN" "http://www.w3.org/Graphics/SVG/1.1/DTD/svg11.dtd" >
<svg xmlns="http://www.w3.org/2000/svg" xmlns:xlink="http://www.w3.org/1999/xlink" version="1.1">
<metadata>
Created by FontForge 20190801 at Mon Jun 15 19:27:55 2020
 By Jimmy Wärting
Copyright 2020 The Kanit Project Authors (https://github.com/cadsondemak/kanit)
</metadata>
<defs>
<font id="Kanit-ExtraLightItalic" horiz-adv-x="0" >
  <font-face 
    font-family="Kanit ExtraLight"
    font-weight="275"
    font-style="italic"
    font-stretch="normal"
    units-per-em="1000"
    panose-1="0 0 0 0 0 0 0 0 0 0"
    ascent="800"
    descent="-200"
    x-height="474"
    cap-height="644"
    bbox="-459 -337 1143 1009"
    underline-thickness="50"
    underline-position="-125"
    slope="-12"
    unicode-range="U+000D-FB02"
  />
<missing-glyph horiz-adv-x="509" 
d="M9 0v714h411v-714h-411zM60 51h309v612h-309v-612z" />
    <glyph glyph-name="fi" unicode="fi" horiz-adv-x="495" 
d="M52 0l90 428h-73l10 46h73l15 69q15 71 66.5 111.5t129.5 40.5q67 0 99 -16l-10 -44q-13 7 -36.5 10.5t-48.5 3.5q-68 0 -101 -26t-44 -79l-15 -70h256l-100 -474h-55l90 428h-201l-90 -428h-55z" />
    <glyph glyph-name="fl" unicode="fl" horiz-adv-x="495" 
d="M52 0l90 428h-73l10 46h73l15 69q15 71 64.5 111.5t131.5 40.5q32 0 58 -4.5t43 -11.5h43l-144 -679h-55l90 428h-201l-90 -428h-55zM207 474h201l34 161q-30 14 -75 14q-65 0 -99.5 -26t-45.5 -79z" />
    <glyph glyph-name="uni0E240E45" unicode="&#xe24;&#xe45;" horiz-adv-x="851" 
d="M404 -160l110 516q17 81 -14.5 113.5t-126.5 32.5q-61 0 -118.5 -19t-91.5 -48l-6 -28l114 -26l-10 -48q-40 -9 -65.5 -31t-33.5 -62l-30 -139q-7 -32 1 -43.5t39 -11.5h59l-9 -46h-80q-41 0 -58.5 25t-8.5 66l32 152q8 39 35 68t71 41l-112 26l17 80q43 35 112 63.5
t154 28.5q82 0 129 -26q32 11 72.5 18.5t80.5 7.5q98 0 133.5 -43.5t13.5 -144.5l-111 -522h-55l110 517q11 49 7 81t-31 48t-87 16q-44 0 -94 -11q35 -48 17 -138l-110 -513h-55z" />
    <glyph glyph-name="uni0E260E45" unicode="&#xe26;&#xe45;" horiz-adv-x="887" 
d="M440 -160l110 516q17 81 -14.5 113.5t-126.5 32.5q-61 0 -118.5 -19t-91.5 -48l-6 -28l117 -26l-10 -48q-40 -10 -58 -30.5t-27 -62.5l-31 -142q-10 -47 -37.5 -72.5t-71.5 -25.5h-57l9 46h43q48 0 60 54l30 143q8 39 29 67.5t63 41.5l-115 26l17 80q43 35 112 63.5
t154 28.5q82 0 129 -26q32 11 72.5 18.5t80.5 7.5q98 0 133.5 -43.5t13.5 -144.5l-111 -522h-55l110 517q11 52 8 84t-30 46.5t-89 14.5q-44 0 -94 -11q35 -48 17 -138l-110 -513h-55z" />
    <glyph glyph-name=".notdef" horiz-adv-x="509" 
d="M9 0v714h411v-714h-411zM60 51h309v612h-309v-612z" />
    <glyph glyph-name="A" unicode="A" horiz-adv-x="667" 
d="M-2 0l380 644h70l107 -644h-53l-32 188h-302l-110 -188h-60zM190 233h277l-61 367z" />
    <glyph glyph-name="Aacute" unicode="&#xc1;" horiz-adv-x="667" 
d="M389 688l101 158h52l-108 -158h-45zM-2 0l380 644h70l107 -644h-53l-32 188h-302l-110 -188h-60zM190 233h277l-61 367z" />
    <glyph glyph-name="Abreve" unicode="&#x102;" horiz-adv-x="667" 
d="M421 687q-51 0 -74 31.5t-13 79.5h40q-7 -34 5 -53t48 -19q32 0 55.5 19t30.5 53h44q-10 -48 -45.5 -79.5t-90.5 -31.5zM-2 0l380 644h70l107 -644h-53l-32 188h-302l-110 -188h-60zM190 233h277l-61 367z" />
    <glyph glyph-name="uni1EAE" unicode="&#x1eae;" horiz-adv-x="667" 
d="M412 786l85 117h47l-91 -117h-41zM424 688q-36 0 -65.5 13t-42.5 42t-3 77h36q-10 -49 8.5 -72.5t70.5 -23.5q44 0 77.5 23.5t43.5 72.5h41q-10 -48 -35.5 -77t-59.5 -42t-71 -13zM-2 0l380 644h70l107 -644h-53l-32 188h-302l-110 -188h-60zM190 233h277l-61 367z" />
    <glyph glyph-name="uni1EB6" unicode="&#x1eb6;" horiz-adv-x="667" 
d="M421 687q-51 0 -74 31.5t-13 79.5h40q-7 -34 5 -53t48 -19q32 0 55.5 19t30.5 53h44q-10 -48 -45.5 -79.5t-90.5 -31.5zM-2 0l380 644h70l107 -644h-53l-32 188h-302l-110 -188h-60zM190 233h277l-61 367zM215 -152l12 57h59l-12 -57h-59z" />
    <glyph glyph-name="uni1EB0" unicode="&#x1eb0;" horiz-adv-x="667" 
d="M435 786l-41 117h47l34 -117h-40zM424 688q-36 0 -65.5 13t-42.5 42t-3 77h36q-10 -49 8.5 -72.5t70.5 -23.5q44 0 77.5 23.5t43.5 72.5h41q-10 -48 -35.5 -77t-59.5 -42t-71 -13zM-2 0l380 644h70l107 -644h-53l-32 188h-302l-110 -188h-60zM190 233h277l-61 367z" />
    <glyph glyph-name="uni1EB2" unicode="&#x1eb2;" horiz-adv-x="667" 
d="M407 776l12 57q53 2 71 13.5t22 33.5q9 42 -45 42q-17 0 -32 -3.5t-29 -9.5l7 33q14 5 32 8.5t37 3.5q41 0 60.5 -18.5t11.5 -52.5q-7 -32 -29 -49t-66 -23l-8 -35h-44zM424 688q-36 0 -65.5 13t-42.5 42t-3 77h36q-10 -49 8.5 -72.5t70.5 -23.5q44 0 77.5 23.5
t43.5 72.5h41q-10 -48 -35.5 -77t-59.5 -42t-71 -13zM-2 0l380 644h70l107 -644h-53l-32 188h-302l-110 -188h-60zM190 233h277l-61 367z" />
    <glyph glyph-name="uni1EB4" unicode="&#x1eb4;" horiz-adv-x="667" 
d="M519 848q-23 0 -42 8.5t-36 17t-36 8.5q-22 0 -42 -6.5t-40 -25.5l9 43q15 13 36.5 20t42.5 7q25 0 42.5 -8.5t34 -17t38.5 -8.5t41 7t38 26l-10 -44q-13 -13 -33 -20t-43 -7zM423 688q-36 0 -65.5 13t-42.5 42t-3 77h36q-10 -49 8.5 -72.5t70.5 -23.5q44 0 77.5 23.5
t43.5 72.5h41q-10 -48 -35.5 -77t-59.5 -42t-71 -13zM-2 0l380 644h70l107 -644h-53l-32 188h-302l-110 -188h-60zM190 233h277l-61 367z" />
    <glyph glyph-name="uni01CD" unicode="&#x1cd;" horiz-adv-x="667" 
d="M397 688l-75 135h47l57 -103l101 103h52l-134 -135h-48zM-2 0l380 644h70l107 -644h-53l-32 188h-302l-110 -188h-60zM190 233h277l-61 367z" />
    <glyph glyph-name="Acircumflex" unicode="&#xc2;" horiz-adv-x="667" 
d="M293 687l133 135h48l76 -135h-48l-57 103l-101 -103h-51zM-2 0l380 644h70l107 -644h-53l-32 188h-302l-110 -188h-60zM190 233h277l-61 367z" />
    <glyph glyph-name="uni1EA4" unicode="&#x1ea4;" horiz-adv-x="667" 
d="M510 793l85 117h46l-90 -117h-41zM292 687l126 110h48l80 -110h-46l-60 85l-96 -85h-52zM-2 0l380 644h70l107 -644h-53l-32 188h-302l-110 -188h-60zM190 233h277l-61 367z" />
    <glyph glyph-name="uni1EAC" unicode="&#x1eac;" horiz-adv-x="667" 
d="M293 687l133 135h48l76 -135h-48l-57 103l-101 -103h-51zM-2 0l380 644h70l107 -644h-53l-32 188h-302l-110 -188h-60zM190 233h277l-61 367zM215 -152l12 57h59l-12 -57h-59z" />
    <glyph glyph-name="uni1EA6" unicode="&#x1ea6;" horiz-adv-x="667" 
d="M336 793l-41 117h47l34 -117h-40zM297 687l126 110h48l80 -110h-46l-60 85l-96 -85h-52zM-2 0l380 644h70l107 -644h-53l-32 188h-302l-110 -188h-60zM190 233h277l-61 367z" />
    <glyph glyph-name="uni1EA8" unicode="&#x1ea8;" horiz-adv-x="667" 
d="M517 772l12 59q53 3 70.5 14t21.5 32q9 41 -44 41q-17 0 -32 -3.5t-29 -9.5l7 34q14 5 31.5 8.5t36.5 3.5q41 0 60.5 -18.5t12.5 -53.5q-13 -62 -94 -71l-8 -36h-45zM295 687l126 110h48l80 -110h-46l-60 85l-95 -85h-53zM-2 0l380 644h70l107 -644h-53l-32 188h-302
l-110 -188h-60zM190 233h277l-61 367z" />
    <glyph glyph-name="uni1EAA" unicode="&#x1eaa;" horiz-adv-x="667" 
d="M510 805q-23 0 -42 8.5t-36 16.5t-36 8q-22 0 -42 -6.5t-40 -25.5l10 44q14 12 35.5 19t42.5 7q25 0 42.5 -8t34 -16.5t38.5 -8.5t40.5 7t37.5 25l-10 -44q-28 -26 -75 -26zM293 687l126 110h48l80 -110h-46l-60 85l-95 -85h-53zM-2 0l380 644h70l107 -644h-53l-32 188
h-302l-110 -188h-60zM190 233h277l-61 367z" />
    <glyph glyph-name="Adieresis" unicode="&#xc4;" horiz-adv-x="667" 
d="M317 713l11 55h57l-12 -55h-56zM483 713l12 55h56l-12 -55h-56zM-2 0l380 644h70l107 -644h-53l-32 188h-302l-110 -188h-60zM190 233h277l-61 367z" />
    <glyph glyph-name="uni1EA0" unicode="&#x1ea0;" horiz-adv-x="667" 
d="M-2 0l380 644h70l107 -644h-53l-32 188h-302l-110 -188h-60zM190 233h277l-61 367zM215 -152l12 57h59l-12 -57h-59z" />
    <glyph glyph-name="Agrave" unicode="&#xc0;" horiz-adv-x="667" 
d="M393 688l-40 158h52l33 -158h-45zM-2 0l380 644h70l107 -644h-53l-32 188h-302l-110 -188h-60zM190 233h277l-61 367z" />
    <glyph glyph-name="uni1EA2" unicode="&#x1ea2;" horiz-adv-x="667" 
d="M398 688l17 79q41 2 62 8.5t30.5 19t13.5 31.5q6 27 -10.5 40t-60.5 13q-16 0 -36 -3.5t-34 -8.5l8 38q15 5 38.5 8.5t41.5 3.5q57 0 81.5 -23t15.5 -65q-8 -40 -32 -62t-77 -27l-11 -52h-47zM-2 0l380 644h70l107 -644h-53l-32 188h-302l-110 -188h-60zM190 233h277
l-61 367z" />
    <glyph glyph-name="Amacron" unicode="&#x100;" horiz-adv-x="667" 
d="M290 715l9 42h276l-9 -42h-276zM-2 0l380 644h70l107 -644h-53l-32 188h-302l-110 -188h-60zM190 233h277l-61 367z" />
    <glyph glyph-name="Aogonek" unicode="&#x104;" horiz-adv-x="677" 
d="M479 -220q-38 0 -60.5 19.5t-12.5 66.5q8 41 36.5 76.5t59.5 57.5l-32 188h-302l-110 -188h-60l380 644h70l107 -644q-43 -28 -68 -61t-33 -67q-6 -28 4 -39.5t38 -11.5q13 0 27.5 3t24.5 8l-9 -41q-13 -6 -29.5 -8.5t-30.5 -2.5zM190 233h277l-61 367z" />
    <glyph glyph-name="Aring" unicode="&#xc5;" horiz-adv-x="667" 
d="M-2 0l364 617q-25 12 -36 37t-4 56q9 43 42 72.5t82 29.5q45 0 67.5 -29.5t13.5 -72.5q-7 -31 -26.5 -55.5t-48.5 -36.5l103 -618h-53l-32 188h-302l-110 -188h-60zM410 645q29 0 51.5 18.5t28.5 46.5q6 29 -6 47.5t-46 18.5q-28 0 -51 -18.5t-29 -47.5q-6 -28 6.5 -46.5
t45.5 -18.5zM190 233h277l-61 367z" />
    <glyph glyph-name="Aringacute" unicode="&#x1fa;" horiz-adv-x="667" 
d="M423 851l98 143h52l-106 -143h-44zM-2 0l369 626q-25 11 -36.5 36.5t-4.5 56.5q9 43 44.5 72.5t79.5 29.5q45 0 67.5 -29.5t13.5 -72.5q-7 -31 -28.5 -56t-51.5 -37l104 -626h-56l-32 188h-302l-110 -188h-57zM415 654q29 0 51 18.5t28 46.5q6 29 -8.5 47.5t-43.5 18.5
q-28 0 -51 -18.5t-29 -47.5q-6 -28 9.5 -46.5t43.5 -18.5zM187 233h277l-61 367z" />
    <glyph glyph-name="Atilde" unicode="&#xc3;" horiz-adv-x="667" 
d="M498 710q-24 0 -45 9.5t-40.5 18.5t-39.5 9q-22 0 -44 -7.5t-42 -27.5l10 47q14 14 38 21.5t46 7.5q26 0 45 -9t37.5 -18.5t41.5 -9.5q48 0 80 35l-10 -47q-26 -29 -77 -29zM-2 0l380 644h70l107 -644h-53l-32 188h-302l-110 -188h-60zM190 233h277l-61 367z" />
    <glyph glyph-name="AE" unicode="&#xc6;" horiz-adv-x="832" 
d="M-2 0l380 644h478l-9 -46h-312l-54 -254h277l-10 -45h-277l-54 -255h312l-9 -44h-367l40 189h-225l-112 -189h-58zM194 233h208l78 365h-70z" />
    <glyph glyph-name="AEacute" unicode="&#x1fc;" horiz-adv-x="832" 
d="M526 688l101 158h52l-108 -158h-45zM-2 0l380 644h478l-9 -46h-312l-54 -254h277l-10 -45h-277l-54 -255h312l-9 -44h-367l40 189h-225l-112 -189h-58zM194 233h208l78 365h-70z" />
    <glyph glyph-name="B" unicode="B" horiz-adv-x="619" 
d="M19 0l136 644h283q90 0 126 -44t19 -124q-12 -54 -42 -91t-73 -54q48 -11 70 -47t8 -102q-20 -94 -76 -138t-149 -44h-302zM149 354h233q68 0 102.5 33.5t45.5 85.5q9 41 4.5 69.5t-31.5 43t-86 14.5h-216zM83 43h242q71 0 111.5 32.5t56.5 108.5q13 62 -12.5 94.5
t-113.5 32.5h-227z" />
    <glyph glyph-name="C" unicode="C" horiz-adv-x="590" 
d="M292 -10q-102 0 -159 39.5t-73.5 110t3.5 164.5q23 105 67.5 183.5t118.5 122.5t184 44q55 0 98.5 -7.5t78.5 -21.5l-10 -49q-35 14 -79 22t-94 8q-93 0 -155 -37.5t-98.5 -105t-56.5 -159.5q-18 -84 -7 -143.5t59 -91.5t140 -32q44 0 92.5 7t89.5 20l-10 -49
q-41 -12 -88 -18.5t-101 -6.5z" />
    <glyph glyph-name="Cacute" unicode="&#x106;" horiz-adv-x="590" 
d="M404 688l101 158h52l-108 -158h-45zM292 -10q-102 0 -159 39.5t-73.5 110t3.5 164.5q23 105 67.5 183.5t118.5 122.5t184 44q55 0 98.5 -7.5t78.5 -21.5l-10 -49q-35 14 -79 22t-94 8q-93 0 -155 -37.5t-98.5 -105t-56.5 -159.5q-18 -84 -7 -143.5t59 -91.5t140 -32
q44 0 92.5 7t89.5 20l-10 -49q-41 -12 -88 -18.5t-101 -6.5z" />
    <glyph glyph-name="Ccaron" unicode="&#x10c;" horiz-adv-x="590" 
d="M424 687l-75 135h47l57 -103l101 103h52l-134 -135h-48zM292 -10q-102 0 -159 39.5t-73.5 110t3.5 164.5q23 105 67.5 183.5t118.5 122.5t184 44q55 0 98.5 -7.5t78.5 -21.5l-10 -49q-35 14 -79 22t-94 8q-93 0 -155 -37.5t-98.5 -105t-56.5 -159.5q-18 -84 -7 -143.5
t59 -91.5t140 -32q44 0 92.5 7t89.5 20l-10 -49q-41 -12 -88 -18.5t-101 -6.5z" />
    <glyph glyph-name="Ccedilla" unicode="&#xc7;" horiz-adv-x="590" 
d="M217 -240q-16 0 -34.5 2.5t-29.5 5.5l8 37q27 -8 61 -8q50 0 77.5 14t34.5 50q7 32 -13 43.5t-66 11.5h-33l40 75q-90 6 -140 46.5t-64 109t5 157.5q23 105 67.5 183.5t118.5 122.5t184 44q55 0 98.5 -7.5t78.5 -21.5l-10 -49q-35 14 -79 22t-94 8q-93 0 -155 -37.5
t-98.5 -105t-56.5 -159.5q-18 -84 -7 -143.5t59 -91.5t140 -32q44 0 92.5 7t89.5 20l-10 -49q-39 -11 -82.5 -17.5t-93.5 -7.5l-22 -41q112 0 94 -88q-10 -49 -48.5 -75t-111.5 -26z" />
    <glyph glyph-name="Ccircumflex" unicode="&#x108;" horiz-adv-x="590" 
d="M296 687l133 135h48l76 -135h-48l-57 103l-101 -103h-51zM292 -10q-102 0 -159 39.5t-73.5 110t3.5 164.5q23 105 67.5 183.5t118.5 122.5t184 44q55 0 98.5 -7.5t78.5 -21.5l-10 -49q-35 14 -79 22t-94 8q-93 0 -155 -37.5t-98.5 -105t-56.5 -159.5q-18 -84 -7 -143.5
t59 -91.5t140 -32q44 0 92.5 7t89.5 20l-10 -49q-41 -12 -88 -18.5t-101 -6.5z" />
    <glyph glyph-name="Cdotaccent" unicode="&#x10a;" horiz-adv-x="590" 
d="M416 714l12 56h57l-12 -56h-57zM292 -10q-102 0 -159 39.5t-73.5 110t3.5 164.5q23 105 67.5 183.5t118.5 122.5t184 44q55 0 98.5 -7.5t78.5 -21.5l-10 -49q-35 14 -79 22t-94 8q-93 0 -155 -37.5t-98.5 -105t-56.5 -159.5q-18 -84 -7 -143.5t59 -91.5t140 -32
q44 0 92.5 7t89.5 20l-10 -49q-41 -12 -88 -18.5t-101 -6.5z" />
    <glyph glyph-name="D" unicode="D" horiz-adv-x="633" 
d="M19 0l136 644h240q139 0 184.5 -76.5t8.5 -250.5q-23 -109 -60.5 -179.5t-101 -104t-165.5 -33.5h-242zM83 44h175q75 0 127.5 22t88.5 81t59 170q24 110 17.5 171.5t-48.5 86t-126 24.5h-175z" />
    <glyph glyph-name="Eth" unicode="&#xd0;" horiz-adv-x="674" 
d="M60 0l62 294h-81l10 45h80l65 305h240q139 0 184.5 -76.5t8.5 -250.5q-23 -109 -60.5 -179.5t-101 -104t-165.5 -33.5h-242zM124 44h175q75 0 127.5 22t88.5 81t59 170q24 110 17.5 171.5t-48.5 86t-126 24.5h-175l-56 -260h191l-10 -45h-190z" />
    <glyph glyph-name="Dcaron" unicode="&#x10e;" horiz-adv-x="633" 
d="M373 709l-75 135h47l57 -103l101 103h52l-134 -135h-48zM19 0l136 644h240q139 0 184.5 -76.5t8.5 -250.5q-23 -109 -60.5 -179.5t-101 -104t-165.5 -33.5h-242zM83 44h175q75 0 127.5 22t88.5 81t59 170q24 110 17.5 171.5t-48.5 86t-126 24.5h-175z" />
    <glyph glyph-name="Dcroat" unicode="&#x110;" horiz-adv-x="664" 
d="M50 0l62 294h-81l10 45h80l65 305h240q139 0 184.5 -76.5t8.5 -250.5q-23 -109 -60.5 -179.5t-101 -104t-165.5 -33.5h-242zM114 44h175q75 0 127.5 22t88.5 81t59 170q24 110 17.5 171.5t-48.5 86t-126 24.5h-175l-56 -260h191l-10 -45h-190z" />
    <glyph glyph-name="uni1E0C" unicode="&#x1e0c;" horiz-adv-x="633" 
d="M19 0l136 644h240q139 0 184.5 -76.5t8.5 -250.5q-23 -109 -60.5 -179.5t-101 -104t-165.5 -33.5h-242zM83 44h175q75 0 127.5 22t88.5 81t59 170q24 110 17.5 171.5t-48.5 86t-126 24.5h-175zM208 -152l12 57h59l-12 -57h-59z" />
    <glyph glyph-name="uni1E0E" unicode="&#x1e0e;" horiz-adv-x="633" 
d="M19 0l136 644h240q139 0 184.5 -76.5t8.5 -250.5q-23 -109 -60.5 -179.5t-101 -104t-165.5 -33.5h-242zM83 44h175q75 0 127.5 22t88.5 81t59 170q24 110 17.5 171.5t-48.5 86t-126 24.5h-175zM67 -123l9 42h276l-9 -42h-276z" />
    <glyph glyph-name="E" unicode="E" horiz-adv-x="542" 
d="M19 0l136 644h421l-9 -45h-366l-54 -255h331l-10 -44h-331l-54 -256h366l-9 -44h-421z" />
    <glyph glyph-name="Eacute" unicode="&#xc9;" horiz-adv-x="542" 
d="M347 688l101 158h52l-108 -158h-45zM19 0l136 644h421l-9 -45h-366l-54 -255h331l-10 -44h-331l-54 -256h366l-9 -44h-421z" />
    <glyph glyph-name="Ebreve" unicode="&#x114;" horiz-adv-x="542" 
d="M380 687q-51 0 -74 31.5t-13 79.5h40q-7 -34 5 -53t48 -19q32 0 55.5 19t30.5 53h44q-10 -48 -45.5 -79.5t-90.5 -31.5zM19 0l136 644h421l-9 -45h-366l-54 -255h331l-10 -44h-331l-54 -256h366l-9 -44h-421z" />
    <glyph glyph-name="Ecaron" unicode="&#x11a;" horiz-adv-x="542" 
d="M357 687l-75 135h47l57 -103l101 103h52l-134 -135h-48zM19 0l136 644h421l-9 -45h-366l-54 -255h331l-10 -44h-331l-54 -256h366l-9 -44h-421z" />
    <glyph glyph-name="Ecircumflex" unicode="&#xca;" horiz-adv-x="542" 
d="M238 687l133 135h48l76 -135h-48l-57 103l-101 -103h-51zM19 0l136 644h421l-9 -45h-366l-54 -255h331l-10 -44h-331l-54 -256h366l-9 -44h-421z" />
    <glyph glyph-name="uni1EBE" unicode="&#x1ebe;" horiz-adv-x="542" 
d="M459 793l85 117h46l-90 -117h-41zM241 687l126 110h48l80 -110h-46l-60 85l-96 -85h-52zM19 0l136 644h421l-9 -45h-366l-54 -255h331l-10 -44h-331l-54 -256h366l-9 -44h-421z" />
    <glyph glyph-name="uni1EC6" unicode="&#x1ec6;" horiz-adv-x="542" 
d="M234 687l133 135h48l76 -135h-48l-57 103l-101 -103h-51zM19 0l136 644h421l-9 -45h-366l-54 -255h331l-10 -44h-331l-54 -256h366l-9 -44h-421zM156 -152l12 57h59l-12 -57h-59z" />
    <glyph glyph-name="uni1EC0" unicode="&#x1ec0;" horiz-adv-x="542" 
d="M296 793l-41 117h47l34 -117h-40zM257 687l126 110h48l80 -110h-46l-60 85l-96 -85h-52zM19 0l136 644h421l-9 -45h-366l-54 -255h331l-10 -44h-331l-54 -256h366l-9 -44h-421z" />
    <glyph glyph-name="uni1EC2" unicode="&#x1ec2;" horiz-adv-x="542" 
d="M470 772l12 59q53 3 70.5 14t21.5 32q9 41 -44 41q-17 0 -32 -3.5t-29 -9.5l7 34q14 5 31.5 8.5t36.5 3.5q41 0 60.5 -18.5t12.5 -53.5q-13 -62 -94 -71l-8 -36h-45zM248 687l126 110h48l80 -110h-46l-60 85l-95 -85h-53zM19 0l136 644h421l-9 -45h-366l-54 -255h331
l-10 -44h-331l-54 -256h366l-9 -44h-421z" />
    <glyph glyph-name="uni1EC4" unicode="&#x1ec4;" horiz-adv-x="542" 
d="M466 805q-23 0 -42 8.5t-36 16.5t-36 8q-22 0 -42 -6.5t-40 -25.5l10 44q14 12 35.5 19t42.5 7q25 0 42.5 -8t34 -16.5t38.5 -8.5t40.5 7t37.5 25l-10 -44q-28 -26 -75 -26zM249 687l126 110h48l80 -110h-46l-60 85l-95 -85h-53zM19 0l136 644h421l-9 -45h-366l-54 -255
h331l-10 -44h-331l-54 -256h366l-9 -44h-421z" />
    <glyph glyph-name="Edieresis" unicode="&#xcb;" horiz-adv-x="542" 
d="M268 714l11 55h57l-12 -55h-56zM434 714l12 55h56l-12 -55h-56zM19 0l136 644h421l-9 -45h-366l-54 -255h331l-10 -44h-331l-54 -256h366l-9 -44h-421z" />
    <glyph glyph-name="Edotaccent" unicode="&#x116;" horiz-adv-x="542" 
d="M351 714l12 56h57l-12 -56h-57zM19 0l136 644h421l-9 -45h-366l-54 -255h331l-10 -44h-331l-54 -256h366l-9 -44h-421z" />
    <glyph glyph-name="uni1EB8" unicode="&#x1eb8;" horiz-adv-x="542" 
d="M19 0l136 644h421l-9 -45h-366l-54 -255h331l-10 -44h-331l-54 -256h366l-9 -44h-421zM164 -152l12 57h59l-12 -57h-59z" />
    <glyph glyph-name="Egrave" unicode="&#xc8;" horiz-adv-x="542" 
d="M361 688l-40 158h52l33 -158h-45zM19 0l136 644h421l-9 -45h-366l-54 -255h331l-10 -44h-331l-54 -256h366l-9 -44h-421z" />
    <glyph glyph-name="uni1EBA" unicode="&#x1eba;" horiz-adv-x="542" 
d="M343 688l17 79q41 2 62 8.5t30.5 19t13.5 31.5q6 27 -10.5 40t-60.5 13q-16 0 -36 -3.5t-34 -8.5l8 38q15 5 38.5 8.5t41.5 3.5q57 0 81.5 -23t15.5 -65q-8 -40 -32 -62t-77 -27l-11 -52h-47zM19 0l136 644h421l-9 -45h-366l-54 -255h331l-10 -44h-331l-54 -256h366
l-9 -44h-421z" />
    <glyph glyph-name="Emacron" unicode="&#x112;" horiz-adv-x="542" 
d="M239 719l9 42h276l-9 -42h-276zM19 0l136 644h421l-9 -45h-366l-54 -255h331l-10 -44h-331l-54 -256h366l-9 -44h-421z" />
    <glyph glyph-name="Eogonek" unicode="&#x118;" horiz-adv-x="548" 
d="M341 -220q-38 0 -60.5 19.5t-12.5 66.5q8 41 37.5 76.5t65.5 57.5h-352l136 644h421l-9 -45h-366l-54 -255h331l-10 -44h-331l-54 -256h366l-9 -44h-23q-43 -28 -68 -61t-33 -67q-6 -28 4 -39.5t38 -11.5q13 0 27.5 3t24.5 8l-9 -41q-13 -6 -29.5 -8.5t-30.5 -2.5z" />
    <glyph glyph-name="uni1EBC" unicode="&#x1ebc;" horiz-adv-x="542" 
d="M447 713q-24 0 -45 9.5t-40.5 18.5t-39.5 9q-22 0 -44 -7.5t-42 -27.5l10 47q14 14 38 21.5t46 7.5q26 0 45 -9t37.5 -18.5t41.5 -9.5q48 0 80 35l-10 -47q-26 -29 -77 -29zM19 0l136 644h421l-9 -45h-366l-54 -255h331l-10 -44h-331l-54 -256h366l-9 -44h-421z" />
    <glyph glyph-name="F" unicode="F" horiz-adv-x="507" 
d="M19 0l136 644h406l-9 -45h-351l-54 -255h314l-10 -44h-314l-63 -300h-55z" />
    <glyph glyph-name="G" unicode="G" horiz-adv-x="634" 
d="M292 -10q-98 0 -155.5 39.5t-75.5 110t2 164.5q23 105 69 183.5t120 122.5t181 44q55 0 98.5 -7t79.5 -20l-11 -49q-35 13 -79 20.5t-93 7.5q-92 0 -154 -37.5t-99.5 -105t-57.5 -159.5q-18 -84 -8 -143.5t57.5 -91.5t141.5 -32q47 0 94.5 8.5t83.5 21.5l48 229h-183
l10 44h233l-64 -301q-31 -18 -89 -33.5t-149 -15.5z" />
    <glyph glyph-name="Gbreve" unicode="&#x11e;" horiz-adv-x="634" 
d="M439 687q-51 0 -74 31.5t-13 79.5h40q-7 -34 5 -53t48 -19q32 0 55.5 19t30.5 53h44q-10 -48 -45.5 -79.5t-90.5 -31.5zM292 -10q-98 0 -155.5 39.5t-75.5 110t2 164.5q23 105 69 183.5t120 122.5t181 44q55 0 98.5 -7t79.5 -20l-11 -49q-35 13 -79 20.5t-93 7.5
q-92 0 -154 -37.5t-99.5 -105t-57.5 -159.5q-18 -84 -8 -143.5t57.5 -91.5t141.5 -32q47 0 94.5 8.5t83.5 21.5l48 229h-183l10 44h233l-64 -301q-31 -18 -89 -33.5t-149 -15.5z" />
    <glyph glyph-name="Gcaron" unicode="&#x1e6;" horiz-adv-x="634" 
d="M416 687l-75 135h47l57 -103l101 103h52l-134 -135h-48zM292 -10q-98 0 -155.5 39.5t-75.5 110t2 164.5q23 105 69 183.5t120 122.5t181 44q55 0 98.5 -7t79.5 -20l-11 -49q-35 13 -79 20.5t-93 7.5q-92 0 -154 -37.5t-99.5 -105t-57.5 -159.5q-18 -84 -8 -143.5
t57.5 -91.5t141.5 -32q47 0 94.5 8.5t83.5 21.5l48 229h-183l10 44h233l-64 -301q-31 -18 -89 -33.5t-149 -15.5z" />
    <glyph glyph-name="Gcircumflex" unicode="&#x11c;" horiz-adv-x="634" 
d="M314 687l133 135h48l76 -135h-48l-57 103l-101 -103h-51zM292 -10q-98 0 -155.5 39.5t-75.5 110t2 164.5q23 105 69 183.5t120 122.5t181 44q55 0 98.5 -7t79.5 -20l-11 -49q-35 13 -79 20.5t-93 7.5q-92 0 -154 -37.5t-99.5 -105t-57.5 -159.5q-18 -84 -8 -143.5
t57.5 -91.5t141.5 -32q47 0 94.5 8.5t83.5 21.5l48 229h-183l10 44h233l-64 -301q-31 -18 -89 -33.5t-149 -15.5z" />
    <glyph glyph-name="uni0122" unicode="&#x122;" horiz-adv-x="634" 
d="M292 -10q-98 0 -155.5 39.5t-75.5 110t2 164.5q23 105 69 183.5t120 122.5t181 44q55 0 98.5 -7t79.5 -20l-11 -49q-35 13 -79 20.5t-93 7.5q-92 0 -154 -37.5t-99.5 -105t-57.5 -159.5q-18 -84 -8 -143.5t57.5 -91.5t141.5 -32q47 0 94.5 8.5t83.5 21.5l48 229h-183
l10 44h233l-64 -301q-31 -18 -89 -33.5t-149 -15.5zM211 -207l61 165h53l-73 -165h-41z" />
    <glyph glyph-name="Gdotaccent" unicode="&#x120;" horiz-adv-x="634" 
d="M417 714l12 56h57l-12 -56h-57zM292 -10q-98 0 -155.5 39.5t-75.5 110t2 164.5q23 105 69 183.5t120 122.5t181 44q55 0 98.5 -7t79.5 -20l-11 -49q-35 13 -79 20.5t-93 7.5q-92 0 -154 -37.5t-99.5 -105t-57.5 -159.5q-18 -84 -8 -143.5t57.5 -91.5t141.5 -32
q47 0 94.5 8.5t83.5 21.5l48 229h-183l10 44h233l-64 -301q-31 -18 -89 -33.5t-149 -15.5z" />
    <glyph glyph-name="uni1E20" unicode="&#x1e20;" horiz-adv-x="634" 
d="M309 717l9 42h276l-9 -42h-276zM292 -10q-98 0 -155.5 39.5t-75.5 110t2 164.5q23 105 69 183.5t120 122.5t181 44q55 0 98.5 -7t79.5 -20l-11 -49q-35 13 -79 20.5t-93 7.5q-92 0 -154 -37.5t-99.5 -105t-57.5 -159.5q-18 -84 -8 -143.5t57.5 -91.5t141.5 -32
q47 0 94.5 8.5t83.5 21.5l48 229h-183l10 44h233l-64 -301q-31 -18 -89 -33.5t-149 -15.5z" />
    <glyph glyph-name="H" unicode="H" horiz-adv-x="631" 
d="M19 0l136 644h55l-63 -300h370l63 300h55l-136 -644h-55l63 300h-370l-63 -300h-55z" />
    <glyph glyph-name="Hbar" unicode="&#x126;" horiz-adv-x="672" 
d="M40 0l99 471h-70l9 45h71l27 128h55l-27 -128h370l27 128h55l-27 -128h70l-9 -45h-71l-99 -471h-55l63 300h-370l-63 -300h-55zM168 344h370l26 127h-370z" />
    <glyph glyph-name="uni1E2A" unicode="&#x1e2a;" horiz-adv-x="631" 
d="M19 0l136 644h55l-63 -300h370l63 300h55l-136 -644h-55l63 300h-370l-63 -300h-55zM220 -185q-58 0 -90 31.5t-18 98.5h40q-10 -49 9 -70.5t65 -21.5q41 0 72.5 21.5t41.5 70.5h43q-14 -67 -58 -98.5t-105 -31.5z" />
    <glyph glyph-name="Hcircumflex" unicode="&#x124;" horiz-adv-x="631" 
d="M276 687l133 135h48l76 -135h-48l-57 103l-101 -103h-51zM19 0l136 644h55l-63 -300h370l63 300h55l-136 -644h-55l63 300h-370l-63 -300h-55z" />
    <glyph glyph-name="uni1E24" unicode="&#x1e24;" horiz-adv-x="631" 
d="M19 0l136 644h55l-63 -300h370l63 300h55l-136 -644h-55l63 300h-370l-63 -300h-55zM198 -152l12 57h59l-12 -57h-59z" />
    <glyph glyph-name="I" unicode="I" horiz-adv-x="206" 
d="M19 0l136 644h55l-136 -644h-55z" />
    <glyph glyph-name="IJ" unicode="&#x132;" horiz-adv-x="603" 
d="M289 -10q-40 0 -71 6.5t-54 16.5l10 48q21 -10 52.5 -17t65.5 -7q69 0 109.5 31.5t54.5 99.5l101 476h55l-101 -479q-18 -85 -70.5 -130t-151.5 -45zM19 0l136 644h55l-136 -644h-55z" />
    <glyph glyph-name="Iacute" unicode="&#xcd;" horiz-adv-x="206" 
d="M168 688l101 158h52l-108 -158h-45zM19 0l136 644h55l-136 -644h-55z" />
    <glyph glyph-name="Ibreve" unicode="&#x12c;" horiz-adv-x="205" 
d="M192 691q-51 0 -74 31.5t-13 79.5h40q-7 -34 5 -53t48 -19q32 0 55.5 19t30.5 53h44q-10 -48 -45.5 -79.5t-90.5 -31.5zM19 0l136 644h55l-136 -644h-55z" />
    <glyph glyph-name="uni01CF" unicode="&#x1cf;" horiz-adv-x="204" 
d="M166 687l-75 135h47l57 -103l101 103h52l-134 -135h-48zM18 0l136 644h55l-136 -644h-55z" />
    <glyph glyph-name="Icircumflex" unicode="&#xce;" horiz-adv-x="204" 
d="M62 687l133 135h48l76 -135h-48l-57 103l-101 -103h-51zM18 0l136 644h55l-136 -644h-55z" />
    <glyph glyph-name="Idieresis" unicode="&#xcf;" horiz-adv-x="205" 
d="M86 715l11 55h57l-12 -55h-56zM252 715l12 55h56l-12 -55h-56zM19 0l136 644h55l-136 -644h-55z" />
    <glyph glyph-name="Idotaccent" unicode="&#x130;" horiz-adv-x="205" 
d="M169 715l12 56h57l-12 -56h-57zM19 0l136 644h55l-136 -644h-55z" />
    <glyph glyph-name="uni1ECA" unicode="&#x1eca;" horiz-adv-x="205" 
d="M18 0l136 644h55l-136 -644h-55zM-16 -152l12 57h59l-12 -57h-59z" />
    <glyph glyph-name="Igrave" unicode="&#xcc;" horiz-adv-x="205" 
d="M169 688l-40 158h52l33 -158h-45zM18 0l136 644h55l-136 -644h-55z" />
    <glyph glyph-name="uni1EC8" unicode="&#x1ec8;" horiz-adv-x="205" 
d="M167 688l17 79q41 2 62 8.5t30.5 19t13.5 31.5q6 27 -10.5 40t-60.5 13q-16 0 -36 -3.5t-34 -8.5l8 38q15 5 38.5 8.5t41.5 3.5q57 0 81.5 -23t15.5 -65q-8 -40 -32 -62t-77 -27l-11 -52h-47zM18 0l136 644h55l-136 -644h-55z" />
    <glyph glyph-name="Imacron" unicode="&#x12a;" horiz-adv-x="205" 
d="M60 719l9 42h277l-9 -42h-277zM18 0l136 644h55l-136 -644h-55z" />
    <glyph glyph-name="Iogonek" unicode="&#x12e;" horiz-adv-x="205" 
d="M-7 -220q-38 0 -60.5 19.5t-12.5 66.5q8 41 36.5 76.5t57.5 57.5l136 644h55l-136 -644q-43 -28 -68 -61t-33 -67q-6 -28 4 -39.5t38 -11.5q13 0 27.5 3t24.5 8l-9 -41q-13 -6 -29.5 -8.5t-30.5 -2.5z" />
    <glyph glyph-name="Itilde" unicode="&#x128;" horiz-adv-x="204" 
d="M262 690q-24 0 -45 9.5t-40.5 18.5t-39.5 9q-22 0 -44 -7.5t-42 -27.5l10 47q14 14 38 21.5t46 7.5q26 0 45.5 -9t37.5 -18.5t41 -9.5q48 0 80 35l-10 -47q-26 -29 -77 -29zM18 0l136 644h55l-136 -644h-55z" />
    <glyph glyph-name="J" unicode="J" horiz-adv-x="420" 
d="M106 -10q-40 0 -71 6.5t-54 16.5l10 48q21 -10 52.5 -17t65.5 -7q69 0 109.5 31.5t54.5 99.5l101 476h55l-101 -479q-18 -85 -70.5 -130t-151.5 -45z" />
    <glyph glyph-name="Jcircumflex" unicode="&#x134;" horiz-adv-x="419" 
d="M280 687l133 135h48l76 -135h-48l-57 103l-101 -103h-51zM106 -10q-40 0 -71 6.5t-54 16.5l10 48q21 -10 52.5 -17t65.5 -7q69 0 109.5 31.5t54.5 99.5l101 476h55l-101 -479q-18 -85 -70.5 -130t-151.5 -45z" />
    <glyph glyph-name="K" unicode="K" horiz-adv-x="586" 
d="M19 0l136 644h55l-72 -342l399 342h67l-299 -256l169 -388h-60l-151 352l-140 -121l-49 -231h-55z" />
    <glyph glyph-name="uni0136" unicode="&#x136;" horiz-adv-x="586" 
d="M19 0l136 644h55l-72 -342l399 342h67l-299 -256l169 -388h-60l-151 352l-140 -121l-49 -231h-55zM142 -202l61 165h53l-73 -165h-41z" />
    <glyph glyph-name="L" unicode="L" horiz-adv-x="522" 
d="M19 0l136 644h55l-127 -600h356l-9 -44h-411z" />
    <glyph glyph-name="Lacute" unicode="&#x139;" horiz-adv-x="522" 
d="M167 688l101 158h52l-108 -158h-45zM19 0l136 644h55l-127 -600h356l-9 -44h-411z" />
    <glyph glyph-name="Lcaron" unicode="&#x13d;" horiz-adv-x="522" 
d="M19 0l136 644h55l-127 -600h356l-9 -44h-411zM336 479l61 165h53l-73 -165h-41z" />
    <glyph glyph-name="uni013B" unicode="&#x13b;" horiz-adv-x="522" 
d="M19 0l136 644h55l-127 -600h356l-9 -44h-411zM126 -202l61 165h53l-73 -165h-41z" />
    <glyph glyph-name="Ldot" unicode="&#x13f;" horiz-adv-x="522" 
d="M19 0l136 644h55l-127 -600h356l-9 -44h-411zM344 258l12 57h59l-12 -57h-59z" />
    <glyph glyph-name="uni1E36" unicode="&#x1e36;" horiz-adv-x="522" 
d="M19 0l136 644h55l-127 -600h356l-9 -44h-411zM152 -152l12 57h59l-12 -57h-59z" />
    <glyph glyph-name="uni1E38" unicode="&#x1e38;" horiz-adv-x="535" 
d="M95 717l9 42h276l-9 -42h-276zM32 0l136 644h55l-127 -600h356l-9 -44h-411zM171 -152l12 57h59l-12 -57h-59z" />
    <glyph glyph-name="uni1E3A" unicode="&#x1e3a;" horiz-adv-x="522" 
d="M19 0l136 644h55l-127 -600h356l-9 -44h-411zM53 -117l9 42h276l-9 -42h-276z" />
    <glyph glyph-name="Lslash" unicode="&#x141;" horiz-adv-x="546" 
d="M42 0l61 292l-107 -43l11 48l106 43l65 304h55l-60 -280l168 67l-10 -48l-168 -67l-57 -272h357l-9 -44h-412z" />
    <glyph glyph-name="M" unicode="M" horiz-adv-x="745" 
d="M19 0l136 644h61l132 -477l334 477h67l-136 -644h-54l119 564l-317 -452h-43l-126 452l-119 -564h-54z" />
    <glyph glyph-name="uni1E42" unicode="&#x1e42;" horiz-adv-x="745" 
d="M19 0l136 644h61l132 -477l334 477h67l-136 -644h-54l119 564l-317 -452h-43l-126 452l-119 -564h-54zM255 -152l12 57h59l-12 -57h-59z" />
    <glyph glyph-name="N" unicode="N" horiz-adv-x="657" 
d="M19 0l136 644h52l280 -562l119 562h55l-136 -644h-53l-279 561l-119 -561h-55z" />
    <glyph glyph-name="Nacute" unicode="&#x143;" horiz-adv-x="657" 
d="M399 688l101 158h52l-108 -158h-45zM19 0l136 644h52l280 -562l119 562h55l-136 -644h-53l-279 561l-119 -561h-55z" />
    <glyph glyph-name="Ncaron" unicode="&#x147;" horiz-adv-x="657" 
d="M413 687l-75 135h47l57 -103l101 103h52l-134 -135h-48zM19 0l136 644h52l280 -562l119 562h55l-136 -644h-53l-279 561l-119 -561h-55z" />
    <glyph glyph-name="uni0145" unicode="&#x145;" horiz-adv-x="657" 
d="M19 0l136 644h52l280 -562l119 562h55l-136 -644h-53l-279 561l-119 -561h-55zM181 -202l61 165h53l-73 -165h-41z" />
    <glyph glyph-name="uni1E44" unicode="&#x1e44;" horiz-adv-x="657" 
d="M410 714l12 56h57l-12 -56h-57zM19 0l136 644h52l280 -562l119 562h55l-136 -644h-53l-279 561l-119 -561h-55z" />
    <glyph glyph-name="uni1E46" unicode="&#x1e46;" horiz-adv-x="657" 
d="M19 0l136 644h52l280 -562l119 562h55l-136 -644h-53l-279 561l-119 -561h-55zM208 -152l12 57h59l-12 -57h-59z" />
    <glyph glyph-name="Eng" unicode="&#x14a;" horiz-adv-x="657" 
d="M340 -234q-46 0 -78 12l10 45q16 -5 31.5 -7.5t27.5 -2.5q56 0 82 21.5t35 66.5l22 102l-277 558l-119 -561h-55l136 644h52l280 -562l119 562h55l-158 -746q-13 -61 -56 -96.5t-107 -35.5z" />
    <glyph glyph-name="uni1E48" unicode="&#x1e48;" horiz-adv-x="657" 
d="M19 0l136 644h52l280 -562l119 562h55l-136 -644h-53l-279 561l-119 -561h-55zM110 -116l9 42h276l-9 -42h-276z" />
    <glyph glyph-name="Ntilde" unicode="&#xd1;" horiz-adv-x="657" 
d="M494 713q-24 0 -45 9.5t-40.5 18.5t-39.5 9q-22 0 -44 -7.5t-42 -27.5l10 47q14 14 38 21.5t46 7.5q26 0 45 -9t37.5 -18.5t41.5 -9.5q48 0 80 35l-10 -47q-26 -29 -77 -29zM19 0l136 644h52l280 -562l119 562h55l-136 -644h-53l-279 561l-119 -561h-55z" />
    <glyph glyph-name="O" unicode="O" horiz-adv-x="688" 
d="M285 -10q-144 0 -198.5 84t-20.5 245q37 173 123 254t238 81q146 0 200 -81t17 -254q-34 -161 -119 -245t-240 -84zM295 37q119 0 191 68t103 214q23 106 13 169t-55.5 90.5t-130.5 27.5q-79 0 -137.5 -27.5t-97 -90.5t-61.5 -169q-31 -146 8.5 -214t166.5 -68z" />
    <glyph glyph-name="Oacute" unicode="&#xd3;" horiz-adv-x="688" 
d="M412 688l101 158h52l-108 -158h-45zM285 -10q-144 0 -198.5 84t-20.5 245q37 173 123 254t238 81q146 0 200 -81t17 -254q-34 -161 -119 -245t-240 -84zM295 37q119 0 191 68t103 214q23 106 13 169t-55.5 90.5t-130.5 27.5q-79 0 -137.5 -27.5t-97 -90.5t-61.5 -169
q-31 -146 8.5 -214t166.5 -68z" />
    <glyph glyph-name="Obreve" unicode="&#x14e;" horiz-adv-x="688" 
d="M433 687q-51 0 -74 31.5t-13 79.5h40q-7 -34 5 -53t48 -19q32 0 55.5 19t30.5 53h44q-10 -48 -45.5 -79.5t-90.5 -31.5zM285 -10q-144 0 -198.5 84t-20.5 245q37 173 123 254t238 81q146 0 200 -81t17 -254q-34 -161 -119 -245t-240 -84zM295 37q119 0 191 68t103 214
q23 106 13 169t-55.5 90.5t-130.5 27.5q-79 0 -137.5 -27.5t-97 -90.5t-61.5 -169q-31 -146 8.5 -214t166.5 -68z" />
    <glyph glyph-name="uni01D1" unicode="&#x1d1;" horiz-adv-x="688" 
d="M409 687l-75 135h47l57 -103l101 103h52l-134 -135h-48zM285 -10q-144 0 -198.5 84t-20.5 245q37 173 123 254t238 81q146 0 200 -81t17 -254q-34 -161 -119 -245t-240 -84zM295 37q119 0 191 68t103 214q23 106 13 169t-55.5 90.5t-130.5 27.5q-79 0 -137.5 -27.5
t-97 -90.5t-61.5 -169q-31 -146 8.5 -214t166.5 -68z" />
    <glyph glyph-name="Ocircumflex" unicode="&#xd4;" horiz-adv-x="688" 
d="M305 687l133 135h48l76 -135h-48l-57 103l-101 -103h-51zM285 -10q-144 0 -198.5 84t-20.5 245q37 173 123 254t238 81q146 0 200 -81t17 -254q-34 -161 -119 -245t-240 -84zM295 37q119 0 191 68t103 214q23 106 13 169t-55.5 90.5t-130.5 27.5q-79 0 -137.5 -27.5
t-97 -90.5t-61.5 -169q-31 -146 8.5 -214t166.5 -68z" />
    <glyph glyph-name="uni1ED0" unicode="&#x1ed0;" horiz-adv-x="688" 
d="M530 793l85 117h46l-90 -117h-41zM312 687l126 110h48l80 -110h-46l-60 85l-96 -85h-52zM285 -10q-144 0 -198.5 84t-20.5 245q37 173 123 254t238 81q146 0 200 -81t17 -254q-34 -161 -119 -245t-240 -84zM295 37q119 0 191 68t103 214q23 106 13 169t-55.5 90.5
t-130.5 27.5q-79 0 -137.5 -27.5t-97 -90.5t-61.5 -169q-31 -146 8.5 -214t166.5 -68z" />
    <glyph glyph-name="uni1ED8" unicode="&#x1ed8;" horiz-adv-x="688" 
d="M307 697l133 135h48l76 -135h-48l-57 103l-101 -103h-51zM285 -10q-144 0 -198.5 84t-20.5 245q37 173 123 254t238 81q146 0 200 -81t17 -254q-34 -161 -119 -245t-240 -84zM295 37q119 0 191 68t103 214q23 106 13 169t-55.5 90.5t-130.5 27.5q-79 0 -137.5 -27.5
t-97 -90.5t-61.5 -169q-31 -146 8.5 -214t166.5 -68zM227 -152l12 57h59l-12 -57h-59z" />
    <glyph glyph-name="uni1ED2" unicode="&#x1ed2;" horiz-adv-x="688" 
d="M341 793l-41 117h47l34 -117h-40zM302 687l126 110h48l80 -110h-46l-60 85l-96 -85h-52zM285 -10q-144 0 -198.5 84t-20.5 245q37 173 123 254t238 81q146 0 200 -81t17 -254q-34 -161 -119 -245t-240 -84zM295 37q119 0 191 68t103 214q23 106 13 169t-55.5 90.5
t-130.5 27.5q-79 0 -137.5 -27.5t-97 -90.5t-61.5 -169q-31 -146 8.5 -214t166.5 -68z" />
    <glyph glyph-name="uni1ED4" unicode="&#x1ed4;" horiz-adv-x="688" 
d="M529 772l12 59q53 3 70.5 14t21.5 32q9 41 -44 41q-17 0 -32 -3.5t-29 -9.5l7 34q14 5 31.5 8.5t36.5 3.5q41 0 60.5 -18.5t12.5 -53.5q-13 -62 -94 -71l-8 -36h-45zM307 687l126 110h48l80 -110h-46l-60 85l-95 -85h-53zM285 -10q-144 0 -198.5 84t-20.5 245
q37 173 123 254t238 81q146 0 200 -81t17 -254q-34 -161 -119 -245t-240 -84zM295 37q119 0 191 68t103 214q23 106 13 169t-55.5 90.5t-130.5 27.5q-79 0 -137.5 -27.5t-97 -90.5t-61.5 -169q-31 -146 8.5 -214t166.5 -68z" />
    <glyph glyph-name="uni1ED6" unicode="&#x1ed6;" horiz-adv-x="688" 
d="M521 805q-23 0 -42 8.5t-36 16.5t-36 8q-22 0 -42 -6.5t-40 -25.5l10 44q14 12 35.5 19t42.5 7q25 0 42.5 -8t34 -16.5t38.5 -8.5t40.5 7t37.5 25l-10 -44q-28 -26 -75 -26zM307 687l126 110h48l80 -110h-46l-60 85l-95 -85h-53zM285 -10q-144 0 -198.5 84t-20.5 245
q37 173 123 254t238 81q146 0 200 -81t17 -254q-34 -161 -119 -245t-240 -84zM295 37q119 0 191 68t103 214q23 106 13 169t-55.5 90.5t-130.5 27.5q-79 0 -137.5 -27.5t-97 -90.5t-61.5 -169q-31 -146 8.5 -214t166.5 -68z" />
    <glyph glyph-name="Odieresis" unicode="&#xd6;" horiz-adv-x="688" 
d="M329 714l11 55h57l-12 -55h-56zM495 714l12 55h56l-12 -55h-56zM285 -10q-144 0 -198.5 84t-20.5 245q37 173 123 254t238 81q146 0 200 -81t17 -254q-34 -161 -119 -245t-240 -84zM295 37q119 0 191 68t103 214q23 106 13 169t-55.5 90.5t-130.5 27.5
q-79 0 -137.5 -27.5t-97 -90.5t-61.5 -169q-31 -146 8.5 -214t166.5 -68z" />
    <glyph glyph-name="uni1ECC" unicode="&#x1ecc;" horiz-adv-x="688" 
d="M285 -10q-144 0 -198.5 84t-20.5 245q37 173 123 254t238 81q146 0 200 -81t17 -254q-34 -161 -119 -245t-240 -84zM295 37q119 0 191 68t103 214q23 106 13 169t-55.5 90.5t-130.5 27.5q-79 0 -137.5 -27.5t-97 -90.5t-61.5 -169q-31 -146 8.5 -214t166.5 -68zM226 -152
l12 57h59l-12 -57h-59z" />
    <glyph glyph-name="Ograve" unicode="&#xd2;" horiz-adv-x="688" 
d="M417 688l-40 158h52l33 -158h-45zM285 -10q-144 0 -198.5 84t-20.5 245q37 173 123 254t238 81q146 0 200 -81t17 -254q-34 -161 -119 -245t-240 -84zM295 37q119 0 191 68t103 214q23 106 13 169t-55.5 90.5t-130.5 27.5q-79 0 -137.5 -27.5t-97 -90.5t-61.5 -169
q-31 -146 8.5 -214t166.5 -68z" />
    <glyph glyph-name="uni1ECE" unicode="&#x1ece;" horiz-adv-x="688" 
d="M413 688l17 79q41 2 62 8.5t30.5 19t13.5 31.5q6 27 -10.5 40t-60.5 13q-16 0 -36 -3.5t-34 -8.5l8 38q15 5 38.5 8.5t41.5 3.5q57 0 81.5 -23t15.5 -65q-8 -40 -32 -62t-77 -27l-11 -52h-47zM285 -10q-144 0 -198.5 84t-20.5 245q37 173 123 254t238 81q146 0 200 -81
t17 -254q-34 -161 -119 -245t-240 -84zM295 37q119 0 191 68t103 214q23 106 13 169t-55.5 90.5t-130.5 27.5q-79 0 -137.5 -27.5t-97 -90.5t-61.5 -169q-31 -146 8.5 -214t166.5 -68z" />
    <glyph glyph-name="Ohorn" unicode="&#x1a0;" horiz-adv-x="750" 
d="M285 -10q-144 0 -198.5 84t-20.5 245q37 173 123 254t238 81t204 -88q61 1 90.5 26.5t44.5 95.5h48q-19 -88 -60 -124t-105 -42q22 -77 -5 -203q-34 -161 -119 -245t-240 -84zM295 37q119 0 191 68t103 214q23 106 13 169t-55.5 90.5t-130.5 27.5q-79 0 -137.5 -27.5
t-97 -90.5t-61.5 -169q-31 -146 8.5 -214t166.5 -68z" />
    <glyph glyph-name="uni1EDA" unicode="&#x1eda;" horiz-adv-x="750" 
d="M423 688l101 158h52l-108 -158h-45zM285 -10q-144 0 -198.5 84t-20.5 245q37 173 123 254t238 81t204 -88q61 1 90.5 26.5t44.5 95.5h48q-19 -88 -60 -124t-105 -42q22 -77 -5 -203q-34 -161 -119 -245t-240 -84zM295 37q119 0 191 68t103 214q23 106 13 169t-55.5 90.5
t-130.5 27.5q-79 0 -137.5 -27.5t-97 -90.5t-61.5 -169q-31 -146 8.5 -214t166.5 -68z" />
    <glyph glyph-name="uni1EE2" unicode="&#x1ee2;" horiz-adv-x="750" 
d="M285 -10q-144 0 -198.5 84t-20.5 245q37 173 123 254t238 81t204 -88q61 1 90.5 26.5t44.5 95.5h48q-19 -88 -60 -124t-105 -42q22 -77 -5 -203q-34 -161 -119 -245t-240 -84zM295 37q119 0 191 68t103 214q23 106 13 169t-55.5 90.5t-130.5 27.5q-79 0 -137.5 -27.5
t-97 -90.5t-61.5 -169q-31 -146 8.5 -214t166.5 -68zM230 -152l12 57h59l-12 -57h-59z" />
    <glyph glyph-name="uni1EDC" unicode="&#x1edc;" horiz-adv-x="750" 
d="M435 688l-40 158h52l33 -158h-45zM285 -10q-144 0 -198.5 84t-20.5 245q37 173 123 254t238 81t204 -88q61 1 90.5 26.5t44.5 95.5h48q-19 -88 -60 -124t-105 -42q22 -77 -5 -203q-34 -161 -119 -245t-240 -84zM295 37q119 0 191 68t103 214q23 106 13 169t-55.5 90.5
t-130.5 27.5q-79 0 -137.5 -27.5t-97 -90.5t-61.5 -169q-31 -146 8.5 -214t166.5 -68z" />
    <glyph glyph-name="uni1EDE" unicode="&#x1ede;" horiz-adv-x="750" 
d="M420 688l17 79q41 2 62 8.5t30.5 19t13.5 31.5q6 27 -10.5 40t-60.5 13q-16 0 -36 -3.5t-34 -8.5l8 38q15 5 38.5 8.5t41.5 3.5q57 0 81.5 -23t15.5 -65q-8 -40 -32 -62t-77 -27l-11 -52h-47zM285 -10q-144 0 -198.5 84t-20.5 245q37 173 123 254t238 81t204 -88
q61 1 90.5 26.5t44.5 95.5h48q-19 -88 -60 -124t-105 -42q22 -77 -5 -203q-34 -161 -119 -245t-240 -84zM295 37q119 0 191 68t103 214q23 106 13 169t-55.5 90.5t-130.5 27.5q-79 0 -137.5 -27.5t-97 -90.5t-61.5 -169q-31 -146 8.5 -214t166.5 -68z" />
    <glyph glyph-name="uni1EE0" unicode="&#x1ee0;" horiz-adv-x="750" 
d="M527 712q-24 0 -45 9.5t-40.5 18.5t-39.5 9q-22 0 -44 -7.5t-42 -27.5l10 47q14 14 38 21.5t46 7.5q26 0 45 -9t37.5 -18.5t41.5 -9.5q48 0 80 35l-10 -47q-26 -29 -77 -29zM285 -10q-144 0 -198.5 84t-20.5 245q37 173 123 254t238 81t204 -88q61 1 90.5 26.5t44.5 95.5
h48q-19 -88 -60 -124t-105 -42q22 -77 -5 -203q-34 -161 -119 -245t-240 -84zM295 37q119 0 191 68t103 214q23 106 13 169t-55.5 90.5t-130.5 27.5q-79 0 -137.5 -27.5t-97 -90.5t-61.5 -169q-31 -146 8.5 -214t166.5 -68z" />
    <glyph glyph-name="Ohungarumlaut" unicode="&#x150;" horiz-adv-x="688" 
d="M292 687l96 141h54l-105 -141h-45zM490 687l97 141h54l-106 -141h-45zM285 -10q-144 0 -198.5 84t-20.5 245q37 173 123 254t238 81q146 0 200 -81t17 -254q-34 -161 -119 -245t-240 -84zM295 37q119 0 191 68t103 214q23 106 13 169t-55.5 90.5t-130.5 27.5
q-79 0 -137.5 -27.5t-97 -90.5t-61.5 -169q-31 -146 8.5 -214t166.5 -68z" />
    <glyph glyph-name="Omacron" unicode="&#x14c;" horiz-adv-x="688" 
d="M302 719l9 42h276l-9 -42h-276zM285 -10q-144 0 -198.5 84t-20.5 245q37 173 123 254t238 81q146 0 200 -81t17 -254q-34 -161 -119 -245t-240 -84zM295 37q119 0 191 68t103 214q23 106 13 169t-55.5 90.5t-130.5 27.5q-79 0 -137.5 -27.5t-97 -90.5t-61.5 -169
q-31 -146 8.5 -214t166.5 -68z" />
    <glyph glyph-name="Oslash" unicode="&#xd8;" horiz-adv-x="688" 
d="M106 -53l41 72q-130 69 -81 300q37 173 123 254t238 81q22 0 42 -2t38 -6l27 47h50l-34 -59q75 -31 98 -108.5t-4 -206.5q-34 -161 -119 -245t-240 -84q-28 0 -52 3.5t-45 8.5l-32 -55h-50zM172 62l309 539q-14 2 -30.5 3.5t-34.5 1.5q-79 0 -137.5 -27.5t-97 -90.5
t-61.5 -169q-22 -101 -10 -164.5t62 -92.5zM295 37q119 0 191 68t103 214q25 117 10 181.5t-75 88.5l-311 -543q35 -9 82 -9z" />
    <glyph glyph-name="Oslashacute" unicode="&#x1fe;" horiz-adv-x="688" 
d="M405 688l101 158h52l-108 -158h-45zM106 -53l41 72q-130 69 -81 300q37 173 123 254t238 81q22 0 42 -2t38 -6l27 47h50l-34 -59q75 -31 98 -108.5t-4 -206.5q-34 -161 -119 -245t-240 -84q-28 0 -52 3.5t-45 8.5l-32 -55h-50zM172 62l309 539q-14 2 -30.5 3.5t-34.5 1.5
q-79 0 -137.5 -27.5t-97 -90.5t-61.5 -169q-22 -101 -10 -164.5t62 -92.5zM295 37q119 0 191 68t103 214q25 117 10 181.5t-75 88.5l-311 -543q35 -9 82 -9z" />
    <glyph glyph-name="Otilde" unicode="&#xd5;" horiz-adv-x="688" 
d="M511 715q-24 0 -45 9.5t-40.5 18.5t-39.5 9q-22 0 -44 -7.5t-42 -27.5l10 47q14 14 38 21.5t46 7.5q26 0 45 -9t37.5 -18.5t41.5 -9.5q48 0 80 35l-10 -47q-26 -29 -77 -29zM285 -10q-144 0 -198.5 84t-20.5 245q37 173 123 254t238 81q146 0 200 -81t17 -254
q-34 -161 -119 -245t-240 -84zM295 37q119 0 191 68t103 214q23 106 13 169t-55.5 90.5t-130.5 27.5q-79 0 -137.5 -27.5t-97 -90.5t-61.5 -169q-31 -146 8.5 -214t166.5 -68z" />
    <glyph glyph-name="OE" unicode="&#x152;" horiz-adv-x="1056" 
d="M285 -10q-144 0 -198.5 84t-20.5 245q37 173 123 254t238 81q164 0 211 -102l20 92h421l-9 -45h-366l-54 -255h331l-10 -44h-331l-54 -256h366l-9 -44h-421l19 90q-45 -49 -108.5 -74.5t-147.5 -25.5zM295 37q119 0 191 68t103 214q23 106 13 169t-55.5 90.5t-130.5 27.5
q-79 0 -137.5 -27.5t-97 -90.5t-61.5 -169q-31 -146 8.5 -214t166.5 -68z" />
    <glyph glyph-name="P" unicode="P" horiz-adv-x="572" 
d="M19 0l136 644h256q102 0 142 -55.5t21 -145.5q-19 -91 -86.5 -143.5t-164.5 -52.5h-197l-52 -247h-55zM135 291h192q85 0 131 41t61 111q16 75 -9.5 115.5t-111.5 40.5h-197z" />
    <glyph glyph-name="Thorn" unicode="&#xde;" horiz-adv-x="572" 
d="M19 0l136 644h55l-26 -125h201q101 0 141.5 -55t21.5 -144q-20 -92 -84 -145t-168 -53h-197l-25 -122h-55zM109 167h192q79 0 128 41.5t64 111.5q11 50 4.5 84t-36.5 52t-90 18h-197z" />
    <glyph glyph-name="Q" unicode="Q" horiz-adv-x="688" 
d="M346 -172q-71 0 -89.5 43.5t-4.5 120.5q-125 9 -171.5 92t-14.5 235q37 173 123 254t238 81q146 0 200 -81t17 -254q-33 -156 -113.5 -239t-224.5 -89q-13 -63 -3 -89t61 -26q16 0 36.5 3t36.5 7l-10 -48q-16 -4 -38.5 -7t-42.5 -3zM295 37q119 0 191 68t103 214
q23 106 13 169t-55.5 90.5t-130.5 27.5q-79 0 -137.5 -27.5t-97 -90.5t-61.5 -169q-31 -146 8.5 -214t166.5 -68z" />
    <glyph glyph-name="R" unicode="R" horiz-adv-x="593" 
d="M19 0l136 644h269q98 0 134 -52t18 -140q-16 -74 -61.5 -121t-119.5 -61q20 -11 27.5 -27t13.5 -42l44 -201h-56l-44 194q-7 35 -26 49.5t-75 14.5h-151l-54 -258h-55zM138 302h198q71 0 119.5 35.5t65.5 114.5q15 73 -9 110t-101 37h-210z" />
    <glyph glyph-name="Racute" unicode="&#x154;" horiz-adv-x="593" 
d="M351 688l101 158h52l-108 -158h-45zM19 0l136 644h269q98 0 134 -52t18 -140q-16 -74 -61.5 -121t-119.5 -61q20 -11 27.5 -27t13.5 -42l44 -201h-56l-44 194q-7 35 -26 49.5t-75 14.5h-151l-54 -258h-55zM138 302h198q71 0 119.5 35.5t65.5 114.5q15 73 -9 110t-101 37
h-210z" />
    <glyph glyph-name="Rcaron" unicode="&#x158;" horiz-adv-x="593" 
d="M358 687l-75 135h47l57 -103l101 103h52l-134 -135h-48zM19 0l136 644h269q98 0 134 -52t18 -140q-16 -74 -61.5 -121t-119.5 -61q20 -11 27.5 -27t13.5 -42l44 -201h-56l-44 194q-7 35 -26 49.5t-75 14.5h-151l-54 -258h-55zM138 302h198q71 0 119.5 35.5t65.5 114.5
q15 73 -9 110t-101 37h-210z" />
    <glyph glyph-name="uni0156" unicode="&#x156;" horiz-adv-x="593" 
d="M19 0l136 644h269q98 0 134 -52t18 -140q-16 -74 -61.5 -121t-119.5 -61q20 -11 27.5 -27t13.5 -42l44 -201h-56l-44 194q-7 35 -26 49.5t-75 14.5h-151l-54 -258h-55zM138 302h198q71 0 119.5 35.5t65.5 114.5q15 73 -9 110t-101 37h-210zM126 -202l61 165h53l-73 -165
h-41z" />
    <glyph glyph-name="uni1E5A" unicode="&#x1e5a;" horiz-adv-x="593" 
d="M19 0l136 644h269q98 0 134 -52t18 -140q-16 -74 -61.5 -121t-119.5 -61q20 -11 27.5 -27t13.5 -42l44 -201h-56l-44 194q-7 35 -26 49.5t-75 14.5h-151l-54 -258h-55zM138 302h198q71 0 119.5 35.5t65.5 114.5q15 73 -9 110t-101 37h-210zM188 -152l12 57h59l-12 -57
h-59z" />
    <glyph glyph-name="uni1E5C" unicode="&#x1e5c;" horiz-adv-x="593" 
d="M249 717l9 42h276l-9 -42h-276zM19 0l136 644h269q98 0 134 -52t18 -140q-16 -74 -61.5 -121t-119.5 -61q20 -11 27.5 -27t13.5 -42l44 -201h-56l-44 194q-7 35 -26 49.5t-75 14.5h-151l-54 -258h-55zM138 302h198q71 0 119.5 35.5t65.5 114.5q15 73 -9 110t-101 37h-210
zM188 -152l12 57h59l-12 -57h-59z" />
    <glyph glyph-name="uni1E5E" unicode="&#x1e5e;" horiz-adv-x="593" 
d="M19 0l136 644h269q98 0 134 -52t18 -140q-16 -74 -61.5 -121t-119.5 -61q20 -11 27.5 -27t13.5 -42l44 -201h-56l-44 194q-7 35 -26 49.5t-75 14.5h-151l-54 -258h-55zM138 302h198q71 0 119.5 35.5t65.5 114.5q15 73 -9 110t-101 37h-210zM69 -116l9 42h276l-9 -42h-276
z" />
    <glyph glyph-name="S" unicode="S" horiz-adv-x="552" 
d="M198 -10q-116 0 -181 28l11 49q75 -30 176 -30q94 0 148.5 29t68.5 98q9 42 -4 67.5t-51.5 43t-104.5 33.5q-100 24 -138 64.5t-23 108.5q17 78 80 125.5t188 47.5q54 0 99.5 -8t67.5 -16l-10 -49q-67 25 -157 25q-95 0 -147.5 -29.5t-66.5 -95.5q-8 -37 3.5 -60.5
t47.5 -39.5t103 -33q75 -18 114.5 -43.5t51 -60t1.5 -80.5q-18 -86 -88.5 -130t-188.5 -44z" />
    <glyph glyph-name="Sacute" unicode="&#x15a;" horiz-adv-x="552" 
d="M329 694l101 158h52l-108 -158h-45zM198 -10q-116 0 -181 28l11 49q75 -30 176 -30q94 0 148.5 29t68.5 98q9 42 -4 67.5t-51.5 43t-104.5 33.5q-100 24 -138 64.5t-23 108.5q17 78 80 125.5t188 47.5q54 0 99.5 -8t67.5 -16l-10 -49q-67 25 -157 25q-95 0 -147.5 -29.5
t-66.5 -95.5q-8 -37 3.5 -60.5t47.5 -39.5t103 -33q75 -18 114.5 -43.5t51 -60t1.5 -80.5q-18 -86 -88.5 -130t-188.5 -44z" />
    <glyph glyph-name="Scaron" unicode="&#x160;" horiz-adv-x="552" 
d="M355 687l-75 135h47l57 -103l101 103h52l-134 -135h-48zM198 -10q-116 0 -181 28l11 49q75 -30 176 -30q94 0 148.5 29t68.5 98q9 42 -4 67.5t-51.5 43t-104.5 33.5q-100 24 -138 64.5t-23 108.5q17 78 80 125.5t188 47.5q54 0 99.5 -8t67.5 -16l-10 -49q-67 25 -157 25
q-95 0 -147.5 -29.5t-66.5 -95.5q-8 -37 3.5 -60.5t47.5 -39.5t103 -33q75 -18 114.5 -43.5t51 -60t1.5 -80.5q-18 -86 -88.5 -130t-188.5 -44z" />
    <glyph glyph-name="Scedilla" unicode="&#x15e;" horiz-adv-x="552" 
d="M140 -240q-16 0 -34.5 2.5t-29.5 5.5l8 37q27 -8 61 -8q50 0 77.5 14t34.5 50q7 32 -13 43.5t-66 11.5h-33l40 74q-107 2 -168 28l11 49q75 -30 176 -30q94 0 148.5 29t68.5 98q9 42 -4 67.5t-51.5 43t-104.5 33.5q-100 24 -138 64.5t-23 108.5q17 78 80 125.5t188 47.5
q54 0 99.5 -8t67.5 -16l-10 -49q-67 25 -157 25q-95 0 -147.5 -29.5t-66.5 -95.5q-8 -37 3.5 -60.5t47.5 -39.5t103 -33q75 -18 114.5 -43.5t51 -60t1.5 -80.5q-17 -81 -80 -124.5t-167 -48.5l-22 -42q112 0 94 -88q-10 -49 -48.5 -75t-111.5 -26z" />
    <glyph glyph-name="Scircumflex" unicode="&#x15c;" horiz-adv-x="552" 
d="M239 703l133 135h48l76 -135h-48l-57 103l-101 -103h-51zM198 -10q-116 0 -181 28l11 49q75 -30 176 -30q94 0 148.5 29t68.5 98q9 42 -4 67.5t-51.5 43t-104.5 33.5q-100 24 -138 64.5t-23 108.5q17 78 80 125.5t188 47.5q54 0 99.5 -8t67.5 -16l-10 -49q-67 25 -157 25
q-95 0 -147.5 -29.5t-66.5 -95.5q-8 -37 3.5 -60.5t47.5 -39.5t103 -33q75 -18 114.5 -43.5t51 -60t1.5 -80.5q-18 -86 -88.5 -130t-188.5 -44z" />
    <glyph glyph-name="uni0218" unicode="&#x218;" horiz-adv-x="552" 
d="M198 -10q-116 0 -181 28l11 49q75 -30 176 -30q94 0 148.5 29t68.5 98q9 42 -4 67.5t-51.5 43t-104.5 33.5q-100 24 -138 64.5t-23 108.5q17 78 80 125.5t188 47.5q54 0 99.5 -8t67.5 -16l-10 -49q-67 25 -157 25q-95 0 -147.5 -29.5t-66.5 -95.5q-8 -37 3.5 -60.5
t47.5 -39.5t103 -33q75 -18 114.5 -43.5t51 -60t1.5 -80.5q-18 -86 -88.5 -130t-188.5 -44zM118 -215l60 160h53l-70 -160h-43z" />
    <glyph glyph-name="uni1E60" unicode="&#x1e60;" horiz-adv-x="552" 
d="M340 714l12 56h57l-12 -56h-57zM198 -10q-116 0 -181 28l11 49q75 -30 176 -30q94 0 148.5 29t68.5 98q9 42 -4 67.5t-51.5 43t-104.5 33.5q-100 24 -138 64.5t-23 108.5q17 78 80 125.5t188 47.5q54 0 99.5 -8t67.5 -16l-10 -49q-67 25 -157 25q-95 0 -147.5 -29.5
t-66.5 -95.5q-8 -37 3.5 -60.5t47.5 -39.5t103 -33q75 -18 114.5 -43.5t51 -60t1.5 -80.5q-18 -86 -88.5 -130t-188.5 -44z" />
    <glyph glyph-name="uni1E62" unicode="&#x1e62;" horiz-adv-x="552" 
d="M198 -10q-116 0 -181 28l11 49q75 -30 176 -30q94 0 148.5 29t68.5 98q9 42 -4 67.5t-51.5 43t-104.5 33.5q-100 24 -138 64.5t-23 108.5q17 78 80 125.5t188 47.5q54 0 99.5 -8t67.5 -16l-10 -49q-67 25 -157 25q-95 0 -147.5 -29.5t-66.5 -95.5q-8 -37 3.5 -60.5
t47.5 -39.5t103 -33q75 -18 114.5 -43.5t51 -60t1.5 -80.5q-18 -86 -88.5 -130t-188.5 -44zM150 -152l12 57h59l-12 -57h-59z" />
    <glyph glyph-name="uni1E9E" unicode="&#x1e9e;" horiz-adv-x="618" 
d="M309 -10q-39 0 -75 5t-64 17l10 48q28 -13 62.5 -18t70.5 -5q145 0 176 143q14 63 -7.5 92.5t-104.5 29.5h-100l11 53l234 129q8 35 -1.5 62.5t-43.5 43.5t-101 16q-91 0 -143.5 -39t-71.5 -125l-93 -442h-55l94 444q22 104 95 157t185 53q77 0 121 -24.5t59.5 -67
t4.5 -96.5l-223 -121h53q86 0 122.5 -44t19.5 -122q-19 -91 -80 -140t-155 -49z" />
    <glyph glyph-name="uni018F" unicode="&#x18f;" horiz-adv-x="663" 
d="M256 -10q-86 0 -136.5 34t-67 92t-1.5 131l22 104h501q16 86 2.5 143t-67 85.5t-159.5 28.5q-42 0 -92.5 -9t-96.5 -26l10 46q44 16 95 25.5t99 9.5q169 0 229 -83t24 -255q-21 -101 -66 -174.5t-118 -112.5t-178 -39zM266 35q128 0 199.5 70t99.5 203h-451l-14 -67
q-22 -100 16.5 -153t149.5 -53z" />
    <glyph glyph-name="T" unicode="T" horiz-adv-x="570" 
d="M201 0l127 599h-222l9 45h499l-9 -45h-222l-127 -599h-55z" />
    <glyph glyph-name="Tbar" unicode="&#x166;" horiz-adv-x="570" 
d="M201 0l70 333h-160l10 44h160l47 222h-222l9 45h499l-9 -45h-222l-47 -222h143l-10 -44h-143l-70 -333h-55z" />
    <glyph glyph-name="Tcaron" unicode="&#x164;" horiz-adv-x="570" 
d="M352 703l-75 135h47l57 -103l101 103h52l-134 -135h-48zM201 0l127 599h-222l9 45h499l-9 -45h-222l-127 -599h-55z" />
    <glyph glyph-name="uni0162" unicode="&#x162;" horiz-adv-x="570" 
d="M156 -240q-16 0 -34.5 2.5t-29.5 5.5l8 37q27 -8 61 -8q50 0 77.5 14t34.5 50q7 32 -13 43.5t-66 11.5h-33l45 84h-5l127 599h-222l9 45h499l-9 -45h-222l-127 -599h-7l-27 -51q112 0 94 -88q-10 -49 -48.5 -75t-111.5 -26z" />
    <glyph glyph-name="uni021A" unicode="&#x21a;" horiz-adv-x="570" 
d="M201 0l127 599h-222l9 45h499l-9 -45h-222l-127 -599h-55zM132 -205l61 165h53l-73 -165h-41z" />
    <glyph glyph-name="uni1E6C" unicode="&#x1e6c;" horiz-adv-x="570" 
d="M201 0l127 599h-222l9 45h499l-9 -45h-222l-127 -599h-55zM167 -150l12 57h59l-12 -57h-59z" />
    <glyph glyph-name="uni1E6E" unicode="&#x1e6e;" horiz-adv-x="570" 
d="M201 0l127 599h-222l9 45h499l-9 -45h-222l-127 -599h-55zM66 -114l9 42h276l-9 -42h-276z" />
    <glyph glyph-name="U" unicode="U" horiz-adv-x="663" 
d="M273 -10q-129 0 -181.5 64.5t-28.5 178.5l87 411h55l-88 -417q-21 -98 19 -143.5t148 -45.5q93 0 159 44.5t87 144.5l88 417h55l-87 -411q-25 -118 -102 -180.5t-211 -62.5z" />
    <glyph glyph-name="Uacute" unicode="&#xda;" horiz-adv-x="663" 
d="M391 688l101 158h52l-108 -158h-45zM273 -10q-129 0 -181.5 64.5t-28.5 178.5l87 411h55l-88 -417q-21 -98 19 -143.5t148 -45.5q93 0 159 44.5t87 144.5l88 417h55l-87 -411q-25 -118 -102 -180.5t-211 -62.5z" />
    <glyph glyph-name="Ubreve" unicode="&#x16c;" horiz-adv-x="663" 
d="M420 687q-51 0 -74 31.5t-13 79.5h40q-7 -34 5 -53t48 -19q32 0 55.5 19t30.5 53h44q-10 -48 -45.5 -79.5t-90.5 -31.5zM273 -10q-129 0 -181.5 64.5t-28.5 178.5l87 411h55l-88 -417q-21 -98 19 -143.5t148 -45.5q93 0 159 44.5t87 144.5l88 417h55l-87 -411
q-25 -118 -102 -180.5t-211 -62.5z" />
    <glyph glyph-name="uni01D3" unicode="&#x1d3;" horiz-adv-x="663" 
d="M396 687l-75 135h47l57 -103l101 103h52l-134 -135h-48zM273 -10q-129 0 -181.5 64.5t-28.5 178.5l87 411h55l-88 -417q-21 -98 19 -143.5t148 -45.5q93 0 159 44.5t87 144.5l88 417h55l-87 -411q-25 -118 -102 -180.5t-211 -62.5z" />
    <glyph glyph-name="Ucircumflex" unicode="&#xdb;" horiz-adv-x="663" 
d="M292 687l133 135h48l76 -135h-48l-57 103l-101 -103h-51zM273 -10q-129 0 -181.5 64.5t-28.5 178.5l87 411h55l-88 -417q-21 -98 19 -143.5t148 -45.5q93 0 159 44.5t87 144.5l88 417h55l-87 -411q-25 -118 -102 -180.5t-211 -62.5z" />
    <glyph glyph-name="Udieresis" unicode="&#xdc;" horiz-adv-x="663" 
d="M309 714l11 55h57l-12 -55h-56zM475 714l12 55h56l-12 -55h-56zM273 -10q-129 0 -181.5 64.5t-28.5 178.5l87 411h55l-88 -417q-21 -98 19 -143.5t148 -45.5q93 0 159 44.5t87 144.5l88 417h55l-87 -411q-25 -118 -102 -180.5t-211 -62.5z" />
    <glyph glyph-name="uni01D7" unicode="&#x1d7;" horiz-adv-x="663" 
d="M411 764l85 117h50l-90 -117h-45zM302 687l12 55h57l-12 -55h-57zM479 687l12 55h55l-12 -55h-55zM273 -10q-129 0 -181.5 64.5t-28.5 178.5l87 411h55l-88 -417q-21 -98 19 -143.5t148 -45.5q93 0 159 44.5t87 144.5l88 417h55l-87 -411q-25 -118 -102 -180.5
t-211 -62.5z" />
    <glyph glyph-name="uni01D9" unicode="&#x1d9;" horiz-adv-x="663" 
d="M413 764l-79 110h49l60 -85l95 85h49l-126 -110h-48zM302 687l12 55h57l-12 -55h-57zM479 687l12 55h55l-12 -55h-55zM273 -10q-129 0 -181.5 64.5t-28.5 178.5l87 411h55l-88 -417q-21 -98 19 -143.5t148 -45.5q93 0 159 44.5t87 144.5l88 417h55l-87 -411
q-25 -118 -102 -180.5t-211 -62.5z" />
    <glyph glyph-name="uni01DB" unicode="&#x1db;" horiz-adv-x="663" 
d="M416 764l-41 117h51l35 -117h-45zM305 687l12 55h56l-12 -55h-56zM481 687l12 55h56l-12 -55h-56zM273 -10q-129 0 -181.5 64.5t-28.5 178.5l87 411h55l-88 -417q-21 -98 19 -143.5t148 -45.5q93 0 159 44.5t87 144.5l88 417h55l-87 -411q-25 -118 -102 -180.5
t-211 -62.5z" />
    <glyph glyph-name="uni01D5" unicode="&#x1d5;" horiz-adv-x="663" 
d="M315 819l9 42h276l-9 -42h-276zM315 711l11 55h57l-12 -55h-56zM481 711l12 55h56l-12 -55h-56zM273 -10q-129 0 -181.5 64.5t-28.5 178.5l87 411h55l-88 -417q-21 -98 19 -143.5t148 -45.5q93 0 159 44.5t87 144.5l88 417h55l-87 -411q-25 -118 -102 -180.5t-211 -62.5z
" />
    <glyph glyph-name="uni1EE4" unicode="&#x1ee4;" horiz-adv-x="663" 
d="M273 -10q-129 0 -181.5 64.5t-28.5 178.5l87 411h55l-88 -417q-21 -98 19 -143.5t148 -45.5q93 0 159 44.5t87 144.5l88 417h55l-87 -411q-25 -118 -102 -180.5t-211 -62.5zM214 -152l12 57h59l-12 -57h-59z" />
    <glyph glyph-name="Ugrave" unicode="&#xd9;" horiz-adv-x="663" 
d="M419 688l-40 158h52l33 -158h-45zM273 -10q-129 0 -181.5 64.5t-28.5 178.5l87 411h55l-88 -417q-21 -98 19 -143.5t148 -45.5q93 0 159 44.5t87 144.5l88 417h55l-87 -411q-25 -118 -102 -180.5t-211 -62.5z" />
    <glyph glyph-name="uni1EE6" unicode="&#x1ee6;" horiz-adv-x="663" 
d="M395 688l17 79q41 2 62 8.5t30.5 19t13.5 31.5q6 27 -10.5 40t-60.5 13q-16 0 -36 -3.5t-34 -8.5l8 38q15 5 38.5 8.5t41.5 3.5q57 0 81.5 -23t15.5 -65q-8 -40 -32 -62t-77 -27l-11 -52h-47zM273 -10q-129 0 -181.5 64.5t-28.5 178.5l87 411h55l-88 -417
q-21 -98 19 -143.5t148 -45.5q93 0 159 44.5t87 144.5l88 417h55l-87 -411q-25 -118 -102 -180.5t-211 -62.5z" />
    <glyph glyph-name="Uhorn" unicode="&#x1af;" horiz-adv-x="766" 
d="M273 -10q-129 0 -181.5 64.5t-28.5 178.5l87 411h55l-88 -417q-21 -98 19 -143.5t148 -45.5q93 0 159 44.5t87 144.5l88 417h55l-17 -80q62 0 91.5 26.5t44.5 97.5h48q-21 -97 -68.5 -132.5t-124.5 -36.5l-61 -286q-25 -118 -102 -180.5t-211 -62.5z" />
    <glyph glyph-name="uni1EE8" unicode="&#x1ee8;" horiz-adv-x="766" 
d="M408 688l101 158h52l-108 -158h-45zM273 -10q-129 0 -181.5 64.5t-28.5 178.5l87 411h55l-88 -417q-21 -98 19 -143.5t148 -45.5q93 0 159 44.5t87 144.5l88 417h55l-17 -80q62 0 91.5 26.5t44.5 97.5h48q-21 -97 -68.5 -132.5t-124.5 -36.5l-61 -286
q-25 -118 -102 -180.5t-211 -62.5z" />
    <glyph glyph-name="uni1EF0" unicode="&#x1ef0;" horiz-adv-x="766" 
d="M273 -10q-129 0 -181.5 64.5t-28.5 178.5l87 411h55l-88 -417q-21 -98 19 -143.5t148 -45.5q93 0 159 44.5t87 144.5l88 417h55l-17 -80q62 0 91.5 26.5t44.5 97.5h48q-21 -97 -68.5 -132.5t-124.5 -36.5l-61 -286q-25 -118 -102 -180.5t-211 -62.5zM211 -152l12 57h59
l-12 -57h-59z" />
    <glyph glyph-name="uni1EEA" unicode="&#x1eea;" horiz-adv-x="766" 
d="M409 688l-40 158h52l33 -158h-45zM273 -10q-129 0 -181.5 64.5t-28.5 178.5l87 411h55l-88 -417q-21 -98 19 -143.5t148 -45.5q93 0 159 44.5t87 144.5l88 417h55l-17 -80q62 0 91.5 26.5t44.5 97.5h48q-21 -97 -68.5 -132.5t-124.5 -36.5l-61 -286q-25 -118 -102 -180.5
t-211 -62.5z" />
    <glyph glyph-name="uni1EEC" unicode="&#x1eec;" horiz-adv-x="766" 
d="M405 688l17 79q41 2 62 8.5t30.5 19t13.5 31.5q6 27 -10.5 40t-60.5 13q-16 0 -36 -3.5t-34 -8.5l8 38q15 5 38.5 8.5t41.5 3.5q57 0 81.5 -23t15.5 -65q-8 -40 -32 -62t-77 -27l-11 -52h-47zM273 -10q-129 0 -181.5 64.5t-28.5 178.5l87 411h55l-88 -417
q-21 -98 19 -143.5t148 -45.5q93 0 159 44.5t87 144.5l88 417h55l-17 -80q62 0 91.5 26.5t44.5 97.5h48q-21 -97 -68.5 -132.5t-124.5 -36.5l-61 -286q-25 -118 -102 -180.5t-211 -62.5z" />
    <glyph glyph-name="uni1EEE" unicode="&#x1eee;" horiz-adv-x="766" 
d="M495 712q-24 0 -45 9.5t-40.5 18.5t-39.5 9q-22 0 -44 -7.5t-42 -27.5l10 47q14 14 38 21.5t46 7.5q26 0 45 -9t37.5 -18.5t41.5 -9.5q48 0 80 35l-10 -47q-26 -29 -77 -29zM273 -10q-129 0 -181.5 64.5t-28.5 178.5l87 411h55l-88 -417q-21 -98 19 -143.5t148 -45.5
q93 0 159 44.5t87 144.5l88 417h55l-17 -80q62 0 91.5 26.5t44.5 97.5h48q-21 -97 -68.5 -132.5t-124.5 -36.5l-61 -286q-25 -118 -102 -180.5t-211 -62.5z" />
    <glyph glyph-name="Uhungarumlaut" unicode="&#x170;" horiz-adv-x="663" 
d="M265 687l96 141h54l-105 -141h-45zM463 687l97 141h54l-106 -141h-45zM273 -10q-129 0 -181.5 64.5t-28.5 178.5l87 411h55l-88 -417q-21 -98 19 -143.5t148 -45.5q93 0 159 44.5t87 144.5l88 417h55l-87 -411q-25 -118 -102 -180.5t-211 -62.5z" />
    <glyph glyph-name="Umacron" unicode="&#x16a;" horiz-adv-x="663" 
d="M290 719l9 42h276l-9 -42h-276zM273 -10q-129 0 -181.5 64.5t-28.5 178.5l87 411h55l-88 -417q-21 -98 19 -143.5t148 -45.5q93 0 159 44.5t87 144.5l88 417h55l-87 -411q-25 -118 -102 -180.5t-211 -62.5z" />
    <glyph glyph-name="Uogonek" unicode="&#x172;" horiz-adv-x="663" 
d="M250 -220q-38 0 -60.5 19.5t-12.5 66.5q8 37 32.5 69.5t55.5 54.5q-124 2 -175 66.5t-27 176.5l87 411h55l-88 -417q-21 -98 19 -143.5t148 -45.5q93 0 159 44.5t87 144.5l88 417h55l-87 -411q-24 -109 -90.5 -171t-182.5 -70q-74 -54 -88 -120q-6 -28 4 -39.5t38 -11.5
q13 0 27.5 3t24.5 8l-9 -41q-13 -6 -29.5 -8.5t-30.5 -2.5z" />
    <glyph glyph-name="Uring" unicode="&#x16e;" horiz-adv-x="663" 
d="M420 687q-44 0 -67 29.5t-14 71.5q9 43 42 72.5t82 29.5q45 0 67.5 -29.5t13.5 -72.5q-9 -42 -42 -71.5t-82 -29.5zM427 723q29 0 51.5 18.5t28.5 46.5q6 29 -6 47.5t-46 18.5q-28 0 -51 -18.5t-29 -47.5q-6 -28 6.5 -46.5t45.5 -18.5zM273 -10q-129 0 -181.5 64.5
t-28.5 178.5l87 411h55l-88 -417q-21 -98 19 -143.5t148 -45.5q93 0 159 44.5t87 144.5l88 417h55l-87 -411q-25 -118 -102 -180.5t-211 -62.5z" />
    <glyph glyph-name="Utilde" unicode="&#x168;" horiz-adv-x="663" 
d="M497 713q-24 0 -45 9.5t-40.5 18.5t-39.5 9q-22 0 -44 -7.5t-42 -27.5l10 47q14 14 38 21.5t46 7.5q26 0 45 -9t37.5 -18.5t41.5 -9.5q48 0 80 35l-10 -47q-26 -29 -77 -29zM273 -10q-129 0 -181.5 64.5t-28.5 178.5l87 411h55l-88 -417q-21 -98 19 -143.5t148 -45.5
q93 0 159 44.5t87 144.5l88 417h55l-87 -411q-25 -118 -102 -180.5t-211 -62.5z" />
    <glyph glyph-name="V" unicode="V" horiz-adv-x="668" 
d="M242 0l-107 644h54l96 -595l348 595h60l-379 -644h-72z" />
    <glyph glyph-name="W" unicode="W" horiz-adv-x="850" 
d="M149 0l-14 644h55l11 -577l265 512l13 65h45l41 -577l256 577h54l-285 -644h-63l-37 530l-271 -530h-70z" />
    <glyph glyph-name="Wacute" unicode="&#x1e82;" horiz-adv-x="850" 
d="M499 688l101 158h52l-108 -158h-45zM149 0l-14 644h55l11 -577l265 512l13 65h45l41 -577l256 577h54l-285 -644h-63l-37 530l-271 -530h-70z" />
    <glyph glyph-name="Wcircumflex" unicode="&#x174;" horiz-adv-x="850" 
d="M391 687l133 135h48l76 -135h-48l-57 103l-101 -103h-51zM149 0l-14 644h55l11 -577l265 512l13 65h45l41 -577l256 577h54l-285 -644h-63l-37 530l-271 -530h-70z" />
    <glyph glyph-name="Wdieresis" unicode="&#x1e84;" horiz-adv-x="850" 
d="M414 712l11 55h57l-12 -55h-56zM580 712l12 55h56l-12 -55h-56zM149 0l-14 644h55l11 -577l265 512l13 65h45l41 -577l256 577h54l-285 -644h-63l-37 530l-271 -530h-70z" />
    <glyph glyph-name="Wgrave" unicode="&#x1e80;" horiz-adv-x="850" 
d="M491 688l-40 158h52l33 -158h-45zM149 0l-14 644h55l11 -577l265 512l13 65h45l41 -577l256 577h54l-285 -644h-63l-37 530l-271 -530h-70z" />
    <glyph glyph-name="X" unicode="X" horiz-adv-x="624" 
d="M-2 0l291 318l-154 326h62l133 -287l255 287h61l-292 -326l158 -318h-62l-136 278l-254 -278h-62z" />
    <glyph glyph-name="Y" unicode="Y" horiz-adv-x="624" 
d="M228 0l51 241l-144 403h54l125 -355l275 355h60l-315 -403l-51 -241h-55z" />
    <glyph glyph-name="Yacute" unicode="&#xdd;" horiz-adv-x="624" 
d="M366 688l101 158h52l-108 -158h-45zM228 0l51 241l-144 403h54l125 -355l275 355h60l-315 -403l-51 -241h-55z" />
    <glyph glyph-name="Ycircumflex" unicode="&#x176;" horiz-adv-x="624" 
d="M272 687l133 135h48l76 -135h-48l-57 103l-101 -103h-51zM228 0l51 241l-144 403h54l125 -355l275 355h60l-315 -403l-51 -241h-55z" />
    <glyph glyph-name="Ydieresis" unicode="&#x178;" horiz-adv-x="624" 
d="M297 714l11 55h57l-12 -55h-56zM463 714l12 55h56l-12 -55h-56zM228 0l51 241l-144 403h54l125 -355l275 355h60l-315 -403l-51 -241h-55z" />
    <glyph glyph-name="uni1E8E" unicode="&#x1e8e;" horiz-adv-x="624" 
d="M378 714l12 56h57l-12 -56h-57zM228 0l51 241l-144 403h54l125 -355l275 355h60l-315 -403l-51 -241h-55z" />
    <glyph glyph-name="uni1EF4" unicode="&#x1ef4;" horiz-adv-x="624" 
d="M228 0l51 241l-144 403h54l125 -355l275 355h60l-315 -403l-51 -241h-55zM198 -135l12 57h59l-12 -57h-59z" />
    <glyph glyph-name="Ygrave" unicode="&#x1ef2;" horiz-adv-x="624" 
d="M393 688l-40 158h52l33 -158h-45zM228 0l51 241l-144 403h54l125 -355l275 355h60l-315 -403l-51 -241h-55z" />
    <glyph glyph-name="uni1EF6" unicode="&#x1ef6;" horiz-adv-x="624" 
d="M367 688l17 79q41 2 62 8.5t30.5 19t13.5 31.5q6 27 -10.5 40t-60.5 13q-16 0 -36 -3.5t-34 -8.5l8 38q15 5 38.5 8.5t41.5 3.5q57 0 81.5 -23t15.5 -65q-8 -40 -32 -62t-77 -27l-11 -52h-47zM228 0l51 241l-144 403h54l125 -355l275 355h60l-315 -403l-51 -241h-55z" />
    <glyph glyph-name="uni1EF8" unicode="&#x1ef8;" horiz-adv-x="624" 
d="M478 713q-24 0 -45 9.5t-40.5 18.5t-39.5 9q-22 0 -44 -7.5t-42 -27.5l10 47q14 14 38 21.5t46 7.5q26 0 45 -9t37.5 -18.5t41.5 -9.5q48 0 80 35l-10 -47q-26 -29 -77 -29zM228 0l51 241l-144 403h54l125 -355l275 355h60l-315 -403l-51 -241h-55z" />
    <glyph glyph-name="Z" unicode="Z" horiz-adv-x="568" 
d="M-2 0l7 34l510 565h-373l9 45h441l-8 -39l-506 -561h392l-9 -44h-463z" />
    <glyph glyph-name="Zacute" unicode="&#x179;" horiz-adv-x="568" 
d="M368 688l101 158h52l-108 -158h-45zM-2 0l7 34l510 565h-373l9 45h441l-8 -39l-506 -561h392l-9 -44h-463z" />
    <glyph glyph-name="Zcaron" unicode="&#x17d;" horiz-adv-x="568" 
d="M371 687l-75 135h47l57 -103l101 103h52l-134 -135h-48zM-2 0l7 34l510 565h-373l9 45h441l-8 -39l-506 -561h392l-9 -44h-463z" />
    <glyph glyph-name="Zdotaccent" unicode="&#x17b;" horiz-adv-x="568" 
d="M365 714l12 56h57l-12 -56h-57zM-2 0l7 34l510 565h-373l9 45h441l-8 -39l-506 -561h392l-9 -44h-463z" />
    <glyph glyph-name="uni1E92" unicode="&#x1e92;" horiz-adv-x="568" 
d="M-2 0l7 34l510 565h-373l9 45h441l-8 -39l-506 -561h392l-9 -44h-463zM182 -152l12 57h59l-12 -57h-59z" />
    <glyph glyph-name="a" unicode="a" horiz-adv-x="559" 
d="M208 -10q-62 0 -105.5 22.5t-59.5 73.5t2 135q19 86 60 144.5t97.5 88.5t120.5 30q50 0 83 -11.5t64 -38.5l8 40h55l-100 -474h-46l6 53q-41 -32 -85.5 -47.5t-99.5 -15.5zM231 35q47 0 88.5 15.5t79.5 48.5l61 287q-23 24 -52.5 38t-77.5 14q-88 0 -148 -55.5
t-83 -161.5q-21 -101 9 -143.5t123 -42.5z" />
    <glyph glyph-name="aacute" unicode="&#xe1;" horiz-adv-x="575" 
d="M323 522l101 158h52l-108 -158h-45zM224 -10q-62 0 -105.5 22.5t-59.5 73.5t2 135q19 86 60 144.5t97.5 88.5t120.5 30q50 0 83 -11.5t64 -38.5l8 40h55l-100 -474h-46l6 53q-41 -32 -85.5 -47.5t-99.5 -15.5zM247 35q47 0 88.5 15.5t79.5 48.5l61 287q-23 24 -52.5 38
t-77.5 14q-88 0 -148 -55.5t-83 -161.5q-21 -101 9 -143.5t123 -42.5z" />
    <glyph glyph-name="abreve" unicode="&#x103;" horiz-adv-x="575" 
d="M355 521q-51 0 -74 31.5t-13 79.5h40q-7 -34 5 -53t48 -19q32 0 55.5 19t30.5 53h44q-10 -48 -45.5 -79.5t-90.5 -31.5zM224 -10q-62 0 -105.5 22.5t-59.5 73.5t2 135q19 86 60 144.5t97.5 88.5t120.5 30q50 0 83 -11.5t64 -38.5l8 40h55l-100 -474h-46l6 53
q-41 -32 -85.5 -47.5t-99.5 -15.5zM247 35q47 0 88.5 15.5t79.5 48.5l61 287q-23 24 -52.5 38t-77.5 14q-88 0 -148 -55.5t-83 -161.5q-21 -101 9 -143.5t123 -42.5z" />
    <glyph glyph-name="uni1EAF" unicode="&#x1eaf;" horiz-adv-x="575" 
d="M347 620l85 117h47l-91 -117h-41zM359 522q-36 0 -65.5 13t-42.5 42t-3 77h36q-10 -49 8.5 -72.5t70.5 -23.5q44 0 77.5 23.5t43.5 72.5h41q-10 -48 -35.5 -77t-59.5 -42t-71 -13zM224 -10q-62 0 -105.5 22.5t-59.5 73.5t2 135q19 86 60 144.5t97.5 88.5t120.5 30
q50 0 83 -11.5t64 -38.5l8 40h55l-100 -474h-46l6 53q-41 -32 -85.5 -47.5t-99.5 -15.5zM247 35q47 0 88.5 15.5t79.5 48.5l61 287q-23 24 -52.5 38t-77.5 14q-88 0 -148 -55.5t-83 -161.5q-21 -101 9 -143.5t123 -42.5z" />
    <glyph glyph-name="uni1EB7" unicode="&#x1eb7;" horiz-adv-x="575" 
d="M349 521q-51 0 -74 31.5t-13 79.5h40q-7 -34 5 -53t48 -19q32 0 55.5 19t30.5 53h44q-10 -48 -45.5 -79.5t-90.5 -31.5zM224 -10q-62 0 -105.5 22.5t-59.5 73.5t2 135q19 86 60 144.5t97.5 88.5t120.5 30q50 0 83 -11.5t64 -38.5l8 40h55l-100 -474h-46l6 53
q-41 -32 -85.5 -47.5t-99.5 -15.5zM247 35q47 0 88.5 15.5t79.5 48.5l61 287q-23 24 -52.5 38t-77.5 14q-88 0 -148 -55.5t-83 -161.5q-21 -101 9 -143.5t123 -42.5zM179 -152l12 57h59l-12 -57h-59z" />
    <glyph glyph-name="uni1EB1" unicode="&#x1eb1;" horiz-adv-x="575" 
d="M366 620l-41 117h47l34 -117h-40zM355 522q-36 0 -65.5 13t-42.5 42t-3 77h36q-10 -49 8.5 -72.5t70.5 -23.5q44 0 77.5 23.5t43.5 72.5h41q-10 -48 -35.5 -77t-59.5 -42t-71 -13zM224 -10q-62 0 -105.5 22.5t-59.5 73.5t2 135q19 86 60 144.5t97.5 88.5t120.5 30
q50 0 83 -11.5t64 -38.5l8 40h55l-100 -474h-46l6 53q-41 -32 -85.5 -47.5t-99.5 -15.5zM247 35q47 0 88.5 15.5t79.5 48.5l61 287q-23 24 -52.5 38t-77.5 14q-88 0 -148 -55.5t-83 -161.5q-21 -101 9 -143.5t123 -42.5z" />
    <glyph glyph-name="uni1EB3" unicode="&#x1eb3;" horiz-adv-x="575" 
d="M340 610l12 57q53 2 71 13.5t22 33.5q9 42 -45 42q-17 0 -32 -3.5t-29 -9.5l7 33q14 5 32 8.5t37 3.5q41 0 60.5 -18.5t11.5 -52.5q-7 -32 -29 -49t-66 -23l-8 -35h-44zM357 522q-36 0 -65.5 13t-42.5 42t-3 77h36q-10 -49 8.5 -72.5t70.5 -23.5q44 0 77.5 23.5
t43.5 72.5h41q-10 -48 -35.5 -77t-59.5 -42t-71 -13zM224 -10q-62 0 -105.5 22.5t-59.5 73.5t2 135q19 86 60 144.5t97.5 88.5t120.5 30q50 0 83 -11.5t64 -38.5l8 40h55l-100 -474h-46l6 53q-41 -32 -85.5 -47.5t-99.5 -15.5zM247 35q47 0 88.5 15.5t79.5 48.5l61 287
q-23 24 -52.5 38t-77.5 14q-88 0 -148 -55.5t-83 -161.5q-21 -101 9 -143.5t123 -42.5z" />
    <glyph glyph-name="uni1EB5" unicode="&#x1eb5;" horiz-adv-x="575" 
d="M456 682q-23 0 -42 8.5t-36 17t-36 8.5q-22 0 -42 -6.5t-40 -25.5l9 43q15 13 36.5 20t42.5 7q25 0 42.5 -8.5t34 -17t38.5 -8.5t41 7t38 26l-10 -44q-13 -13 -33 -20t-43 -7zM360 522q-36 0 -65.5 13t-42.5 42t-3 77h36q-10 -49 8.5 -72.5t70.5 -23.5q44 0 77.5 23.5
t43.5 72.5h41q-10 -48 -35.5 -77t-59.5 -42t-71 -13zM224 -10q-62 0 -105.5 22.5t-59.5 73.5t2 135q19 86 60 144.5t97.5 88.5t120.5 30q50 0 83 -11.5t64 -38.5l8 40h55l-100 -474h-46l6 53q-41 -32 -85.5 -47.5t-99.5 -15.5zM247 35q47 0 88.5 15.5t79.5 48.5l61 287
q-23 24 -52.5 38t-77.5 14q-88 0 -148 -55.5t-83 -161.5q-21 -101 9 -143.5t123 -42.5z" />
    <glyph glyph-name="uni01CE" unicode="&#x1ce;" horiz-adv-x="575" 
d="M322 521l-75 135h47l57 -103l101 103h52l-134 -135h-48zM224 -10q-62 0 -105.5 22.5t-59.5 73.5t2 135q19 86 60 144.5t97.5 88.5t120.5 30q50 0 83 -11.5t64 -38.5l8 40h55l-100 -474h-46l6 53q-41 -32 -85.5 -47.5t-99.5 -15.5zM247 35q47 0 88.5 15.5t79.5 48.5
l61 287q-23 24 -52.5 38t-77.5 14q-88 0 -148 -55.5t-83 -161.5q-21 -101 9 -143.5t123 -42.5z" />
    <glyph glyph-name="acircumflex" unicode="&#xe2;" horiz-adv-x="575" 
d="M220 521l133 135h48l76 -135h-48l-57 103l-101 -103h-51zM224 -10q-62 0 -105.5 22.5t-59.5 73.5t2 135q19 86 60 144.5t97.5 88.5t120.5 30q50 0 83 -11.5t64 -38.5l8 40h55l-100 -474h-46l6 53q-41 -32 -85.5 -47.5t-99.5 -15.5zM247 35q47 0 88.5 15.5t79.5 48.5
l61 287q-23 24 -52.5 38t-77.5 14q-88 0 -148 -55.5t-83 -161.5q-21 -101 9 -143.5t123 -42.5z" />
    <glyph glyph-name="uni1EA5" unicode="&#x1ea5;" horiz-adv-x="575" 
d="M443 627l85 117h46l-90 -117h-41zM225 521l126 110h48l80 -110h-46l-60 85l-96 -85h-52zM224 -10q-62 0 -105.5 22.5t-59.5 73.5t2 135q19 86 60 144.5t97.5 88.5t120.5 30q50 0 83 -11.5t64 -38.5l8 40h55l-100 -474h-46l6 53q-41 -32 -85.5 -47.5t-99.5 -15.5zM247 35
q47 0 88.5 15.5t79.5 48.5l61 287q-23 24 -52.5 38t-77.5 14q-88 0 -148 -55.5t-83 -161.5q-21 -101 9 -143.5t123 -42.5z" />
    <glyph glyph-name="uni1EAD" unicode="&#x1ead;" horiz-adv-x="575" 
d="M218 521l133 135h48l76 -135h-48l-57 103l-101 -103h-51zM224 -10q-62 0 -105.5 22.5t-59.5 73.5t2 135q19 86 60 144.5t97.5 88.5t120.5 30q50 0 83 -11.5t64 -38.5l8 40h55l-100 -474h-46l6 53q-41 -32 -85.5 -47.5t-99.5 -15.5zM247 35q47 0 88.5 15.5t79.5 48.5
l61 287q-23 24 -52.5 38t-77.5 14q-88 0 -148 -55.5t-83 -161.5q-21 -101 9 -143.5t123 -42.5zM175 -152l12 57h59l-12 -57h-59z" />
    <glyph glyph-name="uni1EA7" unicode="&#x1ea7;" horiz-adv-x="575" 
d="M256 627l-41 117h47l34 -117h-40zM217 521l126 110h48l80 -110h-46l-60 85l-96 -85h-52zM224 -10q-62 0 -105.5 22.5t-59.5 73.5t2 135q19 86 60 144.5t97.5 88.5t120.5 30q50 0 83 -11.5t64 -38.5l8 40h55l-100 -474h-46l6 53q-41 -32 -85.5 -47.5t-99.5 -15.5zM247 35
q47 0 88.5 15.5t79.5 48.5l61 287q-23 24 -52.5 38t-77.5 14q-88 0 -148 -55.5t-83 -161.5q-21 -101 9 -143.5t123 -42.5z" />
    <glyph glyph-name="uni1EA9" unicode="&#x1ea9;" horiz-adv-x="575" 
d="M440 606l12 59q53 3 70.5 14t21.5 32q9 41 -44 41q-17 0 -32 -3.5t-29 -9.5l7 34q14 5 31.5 8.5t36.5 3.5q41 0 60.5 -18.5t12.5 -53.5q-13 -62 -94 -71l-8 -36h-45zM218 521l126 110h48l80 -110h-46l-60 85l-95 -85h-53zM224 -10q-62 0 -105.5 22.5t-59.5 73.5t2 135
q19 86 60 144.5t97.5 88.5t120.5 30q50 0 83 -11.5t64 -38.5l8 40h55l-100 -474h-46l6 53q-41 -32 -85.5 -47.5t-99.5 -15.5zM247 35q47 0 88.5 15.5t79.5 48.5l61 287q-23 24 -52.5 38t-77.5 14q-88 0 -148 -55.5t-83 -161.5q-21 -101 9 -143.5t123 -42.5z" />
    <glyph glyph-name="uni1EAB" unicode="&#x1eab;" horiz-adv-x="575" 
d="M441 639q-23 0 -42 8.5t-36 16.5t-36 8q-22 0 -42 -6.5t-40 -25.5l10 44q14 12 35.5 19t42.5 7q25 0 42.5 -8t34 -16.5t38.5 -8.5t40.5 7t37.5 25l-10 -44q-28 -26 -75 -26zM224 521l126 110h48l80 -110h-46l-60 85l-95 -85h-53zM224 -10q-62 0 -105.5 22.5t-59.5 73.5
t2 135q19 86 60 144.5t97.5 88.5t120.5 30q50 0 83 -11.5t64 -38.5l8 40h55l-100 -474h-46l6 53q-41 -32 -85.5 -47.5t-99.5 -15.5zM247 35q47 0 88.5 15.5t79.5 48.5l61 287q-23 24 -52.5 38t-77.5 14q-88 0 -148 -55.5t-83 -161.5q-21 -101 9 -143.5t123 -42.5z" />
    <glyph glyph-name="adieresis" unicode="&#xe4;" horiz-adv-x="575" 
d="M247 548l11 55h57l-12 -55h-56zM413 548l12 55h56l-12 -55h-56zM224 -10q-62 0 -105.5 22.5t-59.5 73.5t2 135q19 86 60 144.5t97.5 88.5t120.5 30q50 0 83 -11.5t64 -38.5l8 40h55l-100 -474h-46l6 53q-41 -32 -85.5 -47.5t-99.5 -15.5zM247 35q47 0 88.5 15.5
t79.5 48.5l61 287q-23 24 -52.5 38t-77.5 14q-88 0 -148 -55.5t-83 -161.5q-21 -101 9 -143.5t123 -42.5z" />
    <glyph glyph-name="uni1EA1" unicode="&#x1ea1;" horiz-adv-x="575" 
d="M224 -10q-62 0 -105.5 22.5t-59.5 73.5t2 135q19 86 60 144.5t97.5 88.5t120.5 30q50 0 83 -11.5t64 -38.5l8 40h55l-100 -474h-46l6 53q-41 -32 -85.5 -47.5t-99.5 -15.5zM247 35q47 0 88.5 15.5t79.5 48.5l61 287q-23 24 -52.5 38t-77.5 14q-88 0 -148 -55.5
t-83 -161.5q-21 -101 9 -143.5t123 -42.5zM177 -152l12 57h59l-12 -57h-59z" />
    <glyph glyph-name="agrave" unicode="&#xe0;" horiz-adv-x="575" 
d="M339 522l-40 158h52l33 -158h-45zM224 -10q-62 0 -105.5 22.5t-59.5 73.5t2 135q19 86 60 144.5t97.5 88.5t120.5 30q50 0 83 -11.5t64 -38.5l8 40h55l-100 -474h-46l6 53q-41 -32 -85.5 -47.5t-99.5 -15.5zM247 35q47 0 88.5 15.5t79.5 48.5l61 287q-23 24 -52.5 38
t-77.5 14q-88 0 -148 -55.5t-83 -161.5q-21 -101 9 -143.5t123 -42.5z" />
    <glyph glyph-name="uni1EA3" unicode="&#x1ea3;" horiz-adv-x="575" 
d="M316 517l17 79q41 2 62 8.5t30.5 19t13.5 31.5q6 27 -10.5 40t-60.5 13q-16 0 -36 -3.5t-34 -8.5l8 38q15 5 38.5 8.5t41.5 3.5q57 0 81.5 -23t15.5 -65q-8 -40 -32 -62t-77 -27l-11 -52h-47zM224 -10q-62 0 -105.5 22.5t-59.5 73.5t2 135q19 86 60 144.5t97.5 88.5
t120.5 30q50 0 83 -11.5t64 -38.5l8 40h55l-100 -474h-46l6 53q-41 -32 -85.5 -47.5t-99.5 -15.5zM247 35q47 0 88.5 15.5t79.5 48.5l61 287q-23 24 -52.5 38t-77.5 14q-88 0 -148 -55.5t-83 -161.5q-21 -101 9 -143.5t123 -42.5z" />
    <glyph glyph-name="uni0251" unicode="&#x251;" horiz-adv-x="575" 
d="M224 -10q-61 0 -104.5 21.5t-60 72.5t1.5 137q19 86 60 144.5t97.5 88.5t120.5 30q50 0 83 -11.5t64 -38.5l8 40h55l-100 -474h-46l6 53q-41 -32 -85.5 -47.5t-99.5 -15.5zM247 35q47 0 88.5 15.5t79.5 48.5l61 287q-23 24 -52.5 38t-77.5 14q-88 0 -148 -55.5
t-83 -161.5q-21 -101 7.5 -143.5t124.5 -42.5z" />
    <glyph glyph-name="amacron" unicode="&#x101;" horiz-adv-x="575" 
d="M215 549l9 42h276l-9 -42h-276zM224 -10q-62 0 -105.5 22.5t-59.5 73.5t2 135q19 86 60 144.5t97.5 88.5t120.5 30q50 0 83 -11.5t64 -38.5l8 40h55l-100 -474h-46l6 53q-41 -32 -85.5 -47.5t-99.5 -15.5zM247 35q47 0 88.5 15.5t79.5 48.5l61 287q-23 24 -52.5 38
t-77.5 14q-88 0 -148 -55.5t-83 -161.5q-21 -101 9 -143.5t123 -42.5z" />
    <glyph glyph-name="aogonek" unicode="&#x105;" horiz-adv-x="570" 
d="M373 -220q-38 0 -60.5 19.5t-12.5 66.5q8 41 37.5 76.5t65.5 57.5l6 53q-41 -32 -85.5 -47.5t-99.5 -15.5q-62 0 -105.5 22.5t-59.5 73.5t2 135q19 86 60 144.5t97.5 88.5t120.5 30q50 0 83 -11.5t64 -38.5l8 40h55l-100 -474q-43 -28 -68 -61t-33 -67q-6 -28 4 -39.5
t38 -11.5q13 0 27.5 3t24.5 8l-9 -41q-13 -6 -29.5 -8.5t-30.5 -2.5zM247 35q47 0 88.5 15.5t79.5 48.5l61 287q-23 24 -52.5 38t-77.5 14q-88 0 -148 -55.5t-83 -161.5q-21 -101 9 -143.5t123 -42.5z" />
    <glyph glyph-name="aring" unicode="&#xe5;" horiz-adv-x="575" 
d="M354 521q-44 0 -67 29.5t-14 71.5q9 43 42 72.5t82 29.5q45 0 67.5 -29.5t13.5 -72.5q-9 -42 -42 -71.5t-82 -29.5zM361 557q29 0 51.5 18.5t28.5 46.5q6 29 -6 47.5t-46 18.5q-28 0 -51 -18.5t-29 -47.5q-6 -28 6.5 -46.5t45.5 -18.5zM224 -10q-62 0 -105.5 22.5
t-59.5 73.5t2 135q19 86 60 144.5t97.5 88.5t120.5 30q50 0 83 -11.5t64 -38.5l8 40h55l-100 -474h-46l6 53q-41 -32 -85.5 -47.5t-99.5 -15.5zM247 35q47 0 88.5 15.5t79.5 48.5l61 287q-23 24 -52.5 38t-77.5 14q-88 0 -148 -55.5t-83 -161.5q-21 -101 9 -143.5t123 -42.5
z" />
    <glyph glyph-name="aringacute" unicode="&#x1fb;" horiz-adv-x="575" 
d="M400 781l101 126h52l-108 -126h-45zM347 520q-44 0 -67 29.5t-14 71.5q9 43 42 72.5t82 29.5q45 0 67.5 -29.5t13.5 -72.5q-9 -42 -42 -71.5t-82 -29.5zM354 556q29 0 51.5 18.5t28.5 46.5q6 29 -6 47.5t-46 18.5q-28 0 -51 -18.5t-29 -47.5q-6 -28 6.5 -46.5t45.5 -18.5
zM224 -10q-62 0 -105.5 22.5t-59.5 73.5t2 135q19 86 60 144.5t97.5 88.5t120.5 30q50 0 83 -11.5t64 -38.5l8 40h55l-100 -474h-46l6 53q-41 -32 -85.5 -47.5t-99.5 -15.5zM247 35q47 0 88.5 15.5t79.5 48.5l61 287q-23 24 -52.5 38t-77.5 14q-88 0 -148 -55.5t-83 -161.5
q-21 -101 9 -143.5t123 -42.5z" />
    <glyph glyph-name="atilde" unicode="&#xe3;" horiz-adv-x="575" 
d="M425 547q-24 0 -45 9.5t-40.5 18.5t-39.5 9q-22 0 -44 -7.5t-42 -27.5l10 47q14 14 38 21.5t46 7.5q26 0 45 -9t37.5 -18.5t41.5 -9.5q48 0 80 35l-10 -47q-26 -29 -77 -29zM224 -10q-62 0 -105.5 22.5t-59.5 73.5t2 135q19 86 60 144.5t97.5 88.5t120.5 30
q50 0 83 -11.5t64 -38.5l8 40h55l-100 -474h-46l6 53q-41 -32 -85.5 -47.5t-99.5 -15.5zM247 35q47 0 88.5 15.5t79.5 48.5l61 287q-23 24 -52.5 38t-77.5 14q-88 0 -148 -55.5t-83 -161.5q-21 -101 9 -143.5t123 -42.5z" />
    <glyph glyph-name="ae" unicode="&#xe6;" horiz-adv-x="879" 
d="M177 -10q-45 0 -79.5 14t-50.5 44.5t-6 77.5q14 63 62 102.5t144 39.5h177l7 33q14 65 -10 100.5t-107 35.5q-42 0 -82 -7t-76 -19l10 47q33 12 76 19t90 7q135 0 150 -91q34 44 85.5 67.5t119.5 23.5t107 -25.5t51.5 -68.5t0.5 -96l-18 -86h-361q-11 -63 -1 -101
t49.5 -55t115.5 -17q65 0 134 25l-9 -45q-69 -25 -145 -25q-84 0 -131 25t-62 79q-36 -46 -96 -75t-145 -29zM476 251h310l9 45q14 66 -8.5 104t-107.5 38q-94 0 -138.5 -46t-64.5 -141zM201 36q139 0 195 100l19 88h-175q-70 0 -102 -25t-43 -73q-10 -49 19 -69.5t87 -20.5
z" />
    <glyph glyph-name="aeacute" unicode="&#x1fd;" horiz-adv-x="879" 
d="M483 522l101 158h52l-108 -158h-45zM177 -10q-45 0 -79.5 14t-50.5 44.5t-6 77.5q14 63 62 102.5t144 39.5h177l7 33q14 65 -10 100.5t-107 35.5q-42 0 -82 -7t-76 -19l10 47q33 12 76 19t90 7q135 0 150 -91q34 44 85.5 67.5t119.5 23.5t107 -25.5t51.5 -68.5t0.5 -96
l-18 -86h-361q-11 -63 -1 -101t49.5 -55t115.5 -17q65 0 134 25l-9 -45q-69 -25 -145 -25q-84 0 -131 25t-62 79q-36 -46 -96 -75t-145 -29zM476 251h310l9 45q14 66 -8.5 104t-107.5 38q-94 0 -138.5 -46t-64.5 -141zM201 36q139 0 195 100l19 88h-175q-70 0 -102 -25
t-43 -73q-10 -49 19 -69.5t87 -20.5z" />
    <glyph glyph-name="b" unicode="b" horiz-adv-x="564" 
d="M237 -10q-55 0 -92 15.5t-65 47.5l-16 -53h-46l143 674h55l-51 -240q41 26 84.5 38t92.5 12q64 0 106 -25t57.5 -78.5t-2.5 -139.5q-28 -130 -94.5 -190.5t-171.5 -60.5zM234 35q92 0 142.5 52.5t72.5 153.5q23 106 -8 151.5t-123 45.5q-49 0 -90 -14.5t-73 -37.5
l-61 -287q45 -64 140 -64z" />
    <glyph glyph-name="c" unicode="c" horiz-adv-x="450" 
d="M230 -10q-118 0 -162.5 65t-19.5 182q26 125 104.5 186t190.5 61q46 0 72.5 -6.5t51.5 -19.5l-10 -45q-47 25 -114 25q-92 0 -155 -48t-86 -153q-22 -103 9.5 -152.5t141.5 -49.5q32 0 66 7t64 19l-9 -46q-31 -12 -67 -18.5t-77 -6.5z" />
    <glyph glyph-name="cacute" unicode="&#x107;" horiz-adv-x="450" 
d="M297 522l101 158h52l-108 -158h-45zM230 -10q-118 0 -162.5 65t-19.5 182q26 125 104.5 186t190.5 61q46 0 72.5 -6.5t51.5 -19.5l-10 -45q-47 25 -114 25q-92 0 -155 -48t-86 -153q-22 -103 9.5 -152.5t141.5 -49.5q32 0 66 7t64 19l-9 -46q-31 -12 -67 -18.5t-77 -6.5z
" />
    <glyph glyph-name="ccaron" unicode="&#x10d;" horiz-adv-x="450" 
d="M302 521l-75 135h47l57 -103l101 103h52l-134 -135h-48zM230 -10q-118 0 -162.5 65t-19.5 182q26 125 104.5 186t190.5 61q46 0 72.5 -6.5t51.5 -19.5l-10 -45q-47 25 -114 25q-92 0 -155 -48t-86 -153q-22 -103 9.5 -152.5t141.5 -49.5q32 0 66 7t64 19l-9 -46
q-31 -12 -67 -18.5t-77 -6.5z" />
    <glyph glyph-name="ccedilla" unicode="&#xe7;" horiz-adv-x="450" 
d="M146 -240q-16 0 -34.5 2.5t-29.5 5.5l8 37q27 -8 61 -8q50 0 77.5 14t34.5 50q7 32 -13 43.5t-66 11.5h-33l41 76q-97 11 -132 74.5t-12 170.5q26 125 104.5 186t190.5 61q46 0 72.5 -6.5t51.5 -19.5l-10 -45q-47 25 -114 25q-92 0 -155 -48t-86 -153
q-22 -103 9.5 -152.5t141.5 -49.5q32 0 66 7t64 19l-9 -46q-31 -12 -66.5 -18.5t-73.5 -6.5l-22 -41q112 0 94 -88q-10 -49 -48.5 -75t-111.5 -26z" />
    <glyph glyph-name="ccircumflex" unicode="&#x109;" horiz-adv-x="450" 
d="M200 521l133 135h48l76 -135h-48l-57 103l-101 -103h-51zM230 -10q-118 0 -162.5 65t-19.5 182q26 125 104.5 186t190.5 61q46 0 72.5 -6.5t51.5 -19.5l-10 -45q-47 25 -114 25q-92 0 -155 -48t-86 -153q-22 -103 9.5 -152.5t141.5 -49.5q32 0 66 7t64 19l-9 -46
q-31 -12 -67 -18.5t-77 -6.5z" />
    <glyph glyph-name="cdotaccent" unicode="&#x10b;" horiz-adv-x="450" 
d="M312 548l12 56h57l-12 -56h-57zM230 -10q-118 0 -162.5 65t-19.5 182q26 125 104.5 186t190.5 61q46 0 72.5 -6.5t51.5 -19.5l-10 -45q-47 25 -114 25q-92 0 -155 -48t-86 -153q-22 -103 9.5 -152.5t141.5 -49.5q32 0 66 7t64 19l-9 -46q-31 -12 -67 -18.5t-77 -6.5z" />
    <glyph glyph-name="d" unicode="d" horiz-adv-x="565" 
d="M208 -10q-61 0 -104 25t-59 78.5t3 139.5q28 129 99 190t171 61q49 0 85 -11.5t67 -38.5l51 240h55l-143 -674h-46l6 53q-41 -32 -85.5 -47.5t-99.5 -15.5zM231 35q47 0 88.5 15.5t79.5 48.5l61 287q-23 24 -55 38t-81 14q-84 0 -141.5 -49t-80.5 -156q-22 -101 7 -149.5
t122 -48.5z" />
    <glyph glyph-name="eth" unicode="&#xf0;" horiz-adv-x="570" 
d="M220 -10q-112 0 -156.5 55.5t-24.5 149.5q21 99 85.5 152t176.5 53q41 0 85.5 -14.5t81.5 -46.5l11 56q10 50 12.5 88t-7.5 65l-153 -61l8 39l128 51q-16 17 -43 25.5t-68 8.5q-43 0 -79 -5.5t-66 -15.5l9 44q30 8 68.5 14t82.5 6q50 0 85 -15t56 -44l106 43l-8 -39
l-82 -33q27 -66 4 -175l-34 -160q-28 -127 -96 -184t-182 -57zM230 33q173 0 210 175l18 88q-30 26 -71.5 43.5t-86.5 17.5q-97 0 -146 -44t-65 -118q-16 -75 15 -118.5t126 -43.5z" />
    <glyph glyph-name="dcaron" unicode="&#x10f;" horiz-adv-x="633" 
d="M210 -10q-76 0 -123 38t-47 123q0 96 35.5 171.5t98.5 118.5t146 43q48 0 84.5 -11.5t66.5 -38.5l51 240h55l-143 -674h-46l6 53q-41 -32 -84.5 -47.5t-99.5 -15.5zM605 509l61 165h53l-73 -165h-41zM232 35q46 0 88.5 15.5t79.5 48.5l61 287q-22 24 -55 38t-81 14
q-70 0 -122 -35t-80 -97.5t-28 -145.5q0 -125 137 -125z" />
    <glyph glyph-name="dcroat" unicode="&#x111;" horiz-adv-x="574" 
d="M208 -10q-61 0 -104 25t-59 78.5t3 139.5q28 129 99 190t171 61q49 0 85 -11.5t67 -38.5l26 122h-176l9 45h176l16 73h55l-16 -73h59l-9 -45h-59l-118 -556h-46l6 53q-41 -32 -85.5 -47.5t-99.5 -15.5zM231 35q47 0 88.5 15.5t79.5 48.5l61 287q-23 24 -55 38t-81 14
q-84 0 -141.5 -49t-80.5 -156q-22 -101 7 -149.5t122 -48.5z" />
    <glyph glyph-name="uni1E0D" unicode="&#x1e0d;" horiz-adv-x="565" 
d="M208 -10q-61 0 -104 25t-59 78.5t3 139.5q28 129 99 190t171 61q49 0 85 -11.5t67 -38.5l51 240h55l-143 -674h-46l6 53q-41 -32 -85.5 -47.5t-99.5 -15.5zM231 35q47 0 88.5 15.5t79.5 48.5l61 287q-23 24 -55 38t-81 14q-84 0 -141.5 -49t-80.5 -156q-22 -101 7 -149.5
t122 -48.5zM185 -152l12 57h59l-12 -57h-59z" />
    <glyph glyph-name="uni1E0F" unicode="&#x1e0f;" horiz-adv-x="565" 
d="M208 -10q-61 0 -104 25t-59 78.5t3 139.5q28 129 99 190t171 61q49 0 85 -11.5t67 -38.5l51 240h55l-143 -674h-46l6 53q-41 -32 -85.5 -47.5t-99.5 -15.5zM231 35q47 0 88.5 15.5t79.5 48.5l61 287q-23 24 -55 38t-81 14q-84 0 -141.5 -49t-80.5 -156q-22 -101 7 -149.5
t122 -48.5zM71 -123l9 42h276l-9 -42h-276z" />
    <glyph glyph-name="e" unicode="e" horiz-adv-x="525" 
d="M240 -10q-128 0 -173.5 60.5t-17.5 189.5q24 114 89 179t181 65q69 0 107 -25.5t49.5 -68.5t-0.5 -96l-18 -86h-360q-11 -62 -0.5 -100.5t50 -55.5t114.5 -17q66 0 133 25l-9 -45q-67 -25 -145 -25zM106 251h310l9 45q10 44 4 76t-34 49t-84 17q-94 0 -140 -48.5
t-65 -138.5z" />
    <glyph glyph-name="eacute" unicode="&#xe9;" horiz-adv-x="525" 
d="M293 522l101 158h52l-108 -158h-45zM240 -10q-128 0 -173.5 60.5t-17.5 189.5q24 114 89 179t181 65q69 0 107 -25.5t49.5 -68.5t-0.5 -96l-18 -86h-360q-11 -62 -0.5 -100.5t50 -55.5t114.5 -17q66 0 133 25l-9 -45q-67 -25 -145 -25zM106 251h310l9 45q10 44 4 76
t-34 49t-84 17q-94 0 -140 -48.5t-65 -138.5z" />
    <glyph glyph-name="ebreve" unicode="&#x115;" horiz-adv-x="525" 
d="M325 521q-51 0 -74 31.5t-13 79.5h40q-7 -34 5 -53t48 -19q32 0 55.5 19t30.5 53h44q-10 -48 -45.5 -79.5t-90.5 -31.5zM240 -10q-128 0 -173.5 60.5t-17.5 189.5q24 114 89 179t181 65q69 0 107 -25.5t49.5 -68.5t-0.5 -96l-18 -86h-360q-11 -62 -0.5 -100.5t50 -55.5
t114.5 -17q66 0 133 25l-9 -45q-67 -25 -145 -25zM106 251h310l9 45q10 44 4 76t-34 49t-84 17q-94 0 -140 -48.5t-65 -138.5z" />
    <glyph glyph-name="ecaron" unicode="&#x11b;" horiz-adv-x="525" 
d="M307 521l-75 135h47l57 -103l101 103h52l-134 -135h-48zM240 -10q-128 0 -173.5 60.5t-17.5 189.5q24 114 89 179t181 65q69 0 107 -25.5t49.5 -68.5t-0.5 -96l-18 -86h-360q-11 -62 -0.5 -100.5t50 -55.5t114.5 -17q66 0 133 25l-9 -45q-67 -25 -145 -25zM106 251h310
l9 45q10 44 4 76t-34 49t-84 17q-94 0 -140 -48.5t-65 -138.5z" />
    <glyph glyph-name="ecircumflex" unicode="&#xea;" horiz-adv-x="525" 
d="M193 521l133 135h48l76 -135h-48l-57 103l-101 -103h-51zM240 -10q-128 0 -173.5 60.5t-17.5 189.5q24 114 89 179t181 65q69 0 107 -25.5t49.5 -68.5t-0.5 -96l-18 -86h-360q-11 -62 -0.5 -100.5t50 -55.5t114.5 -17q66 0 133 25l-9 -45q-67 -25 -145 -25zM106 251h310
l9 45q10 44 4 76t-34 49t-84 17q-94 0 -140 -48.5t-65 -138.5z" />
    <glyph glyph-name="uni1EBF" unicode="&#x1ebf;" horiz-adv-x="525" 
d="M416 627l85 117h46l-90 -117h-41zM198 521l126 110h48l80 -110h-46l-60 85l-96 -85h-52zM240 -10q-128 0 -173.5 60.5t-17.5 189.5q24 114 89 179t181 65q69 0 107 -25.5t49.5 -68.5t-0.5 -96l-18 -86h-360q-11 -62 -0.5 -100.5t50 -55.5t114.5 -17q66 0 133 25l-9 -45
q-67 -25 -145 -25zM106 251h310l9 45q10 44 4 76t-34 49t-84 17q-94 0 -140 -48.5t-65 -138.5z" />
    <glyph glyph-name="uni1EC7" unicode="&#x1ec7;" horiz-adv-x="525" 
d="M199 521l133 135h48l76 -135h-48l-57 103l-101 -103h-51zM240 -10q-128 0 -173.5 60.5t-17.5 189.5q24 114 89 179t181 65q69 0 107 -25.5t49.5 -68.5t-0.5 -96l-18 -86h-360q-11 -62 -0.5 -100.5t50 -55.5t114.5 -17q66 0 133 25l-9 -45q-67 -25 -145 -25zM106 251h310
l9 45q10 44 4 76t-34 49t-84 17q-94 0 -140 -48.5t-65 -138.5zM156 -152l12 57h59l-12 -57h-59z" />
    <glyph glyph-name="uni1EC1" unicode="&#x1ec1;" horiz-adv-x="525" 
d="M252 644l-41 117h47l34 -117h-40zM213 538l126 110h48l80 -110h-46l-60 85l-96 -85h-52zM240 -10q-128 0 -173.5 60.5t-17.5 189.5q24 114 89 179t181 65q69 0 107 -25.5t49.5 -68.5t-0.5 -96l-18 -86h-360q-11 -62 -0.5 -100.5t50 -55.5t114.5 -17q66 0 133 25l-9 -45
q-67 -25 -145 -25zM106 251h310l9 45q10 44 4 76t-34 49t-84 17q-94 0 -140 -48.5t-65 -138.5z" />
    <glyph glyph-name="uni1EC3" unicode="&#x1ec3;" horiz-adv-x="524" 
d="M418 606l12 59q53 3 70.5 14t21.5 32q9 41 -44 41q-17 0 -32 -3.5t-29 -9.5l7 34q14 5 31.5 8.5t36.5 3.5q41 0 60.5 -18.5t12.5 -53.5q-13 -62 -94 -71l-8 -36h-45zM196 521l126 110h48l80 -110h-46l-60 85l-95 -85h-53zM240 -10q-128 0 -173.5 60.5t-17.5 189.5
q24 114 89 179t181 65q69 0 107 -25.5t49.5 -68.5t-0.5 -96l-18 -86h-360q-11 -62 -0.5 -100.5t50 -55.5t114.5 -17q66 0 133 25l-9 -45q-67 -25 -145 -25zM106 251h310l9 45q10 44 4 76t-34 49t-84 17q-94 0 -140 -48.5t-65 -138.5z" />
    <glyph glyph-name="uni1EC5" unicode="&#x1ec5;" horiz-adv-x="525" 
d="M418 639q-23 0 -42 8.5t-36 16.5t-36 8q-22 0 -42 -6.5t-40 -25.5l10 44q14 12 35.5 19t42.5 7q25 0 42.5 -8t34 -16.5t38.5 -8.5t40.5 7t37.5 25l-10 -44q-28 -26 -75 -26zM201 521l126 110h48l80 -110h-46l-60 85l-95 -85h-53zM240 -10q-128 0 -173.5 60.5t-17.5 189.5
q24 114 89 179t181 65q69 0 107 -25.5t49.5 -68.5t-0.5 -96l-18 -86h-360q-11 -62 -0.5 -100.5t50 -55.5t114.5 -17q66 0 133 25l-9 -45q-67 -25 -145 -25zM106 251h310l9 45q10 44 4 76t-34 49t-84 17q-94 0 -140 -48.5t-65 -138.5z" />
    <glyph glyph-name="edieresis" unicode="&#xeb;" horiz-adv-x="525" 
d="M214 548l11 55h57l-12 -55h-56zM380 548l12 55h56l-12 -55h-56zM240 -10q-128 0 -173.5 60.5t-17.5 189.5q24 114 89 179t181 65q69 0 107 -25.5t49.5 -68.5t-0.5 -96l-18 -86h-360q-11 -62 -0.5 -100.5t50 -55.5t114.5 -17q66 0 133 25l-9 -45q-67 -25 -145 -25z
M106 251h310l9 45q10 44 4 76t-34 49t-84 17q-94 0 -140 -48.5t-65 -138.5z" />
    <glyph glyph-name="edotaccent" unicode="&#x117;" horiz-adv-x="525" 
d="M300 548l12 56h57l-12 -56h-57zM240 -10q-128 0 -173.5 60.5t-17.5 189.5q24 114 89 179t181 65q69 0 107 -25.5t49.5 -68.5t-0.5 -96l-18 -86h-360q-11 -62 -0.5 -100.5t50 -55.5t114.5 -17q66 0 133 25l-9 -45q-67 -25 -145 -25zM106 251h310l9 45q10 44 4 76t-34 49
t-84 17q-94 0 -140 -48.5t-65 -138.5z" />
    <glyph glyph-name="uni1EB9" unicode="&#x1eb9;" horiz-adv-x="525" 
d="M240 -10q-128 0 -173.5 60.5t-17.5 189.5q24 114 89 179t181 65q69 0 107 -25.5t49.5 -68.5t-0.5 -96l-18 -86h-360q-11 -62 -0.5 -100.5t50 -55.5t114.5 -17q66 0 133 25l-9 -45q-67 -25 -145 -25zM106 251h310l9 45q10 44 4 76t-34 49t-84 17q-94 0 -140 -48.5
t-65 -138.5zM150 -152l12 57h59l-12 -57h-59z" />
    <glyph glyph-name="egrave" unicode="&#xe8;" horiz-adv-x="525" 
d="M301 522l-40 158h52l33 -158h-45zM240 -10q-128 0 -173.5 60.5t-17.5 189.5q24 114 89 179t181 65q69 0 107 -25.5t49.5 -68.5t-0.5 -96l-18 -86h-360q-11 -62 -0.5 -100.5t50 -55.5t114.5 -17q66 0 133 25l-9 -45q-67 -25 -145 -25zM106 251h310l9 45q10 44 4 76t-34 49
t-84 17q-94 0 -140 -48.5t-65 -138.5z" />
    <glyph glyph-name="uni1EBB" unicode="&#x1ebb;" horiz-adv-x="525" 
d="M303 522l17 79q41 2 62 8.5t30.5 19t13.5 31.5q6 27 -10.5 40t-60.5 13q-16 0 -36 -3.5t-34 -8.5l8 38q15 5 38.5 8.5t41.5 3.5q57 0 81.5 -23t15.5 -65q-8 -40 -32 -62t-77 -27l-11 -52h-47zM240 -10q-128 0 -173.5 60.5t-17.5 189.5q24 114 89 179t181 65
q69 0 107 -25.5t49.5 -68.5t-0.5 -96l-18 -86h-360q-11 -62 -0.5 -100.5t50 -55.5t114.5 -17q66 0 133 25l-9 -45q-67 -25 -145 -25zM106 251h310l9 45q10 44 4 76t-34 49t-84 17q-94 0 -140 -48.5t-65 -138.5z" />
    <glyph glyph-name="emacron" unicode="&#x113;" horiz-adv-x="525" 
d="M208 553l9 42h276l-9 -42h-276zM240 -10q-128 0 -173.5 60.5t-17.5 189.5q24 114 89 179t181 65q69 0 107 -25.5t49.5 -68.5t-0.5 -96l-18 -86h-360q-11 -62 -0.5 -100.5t50 -55.5t114.5 -17q66 0 133 25l-9 -45q-67 -25 -145 -25zM106 251h310l9 45q10 44 4 76t-34 49
t-84 17q-94 0 -140 -48.5t-65 -138.5z" />
    <glyph glyph-name="eogonek" unicode="&#x119;" horiz-adv-x="525" 
d="M257 -220q-38 0 -60.5 19.5t-12.5 66.5q8 37 33 70t56 55q-8 -1 -16.5 -1h-16.5q-128 0 -173.5 60.5t-17.5 189.5q24 114 89 179t181 65q69 0 107 -25.5t49.5 -68.5t-0.5 -96l-18 -86h-360q-11 -62 -0.5 -100.5t50 -55.5t114.5 -17q66 0 133 25l-9 -45q-26 -9 -52 -15
q-43 -28 -68 -61t-33 -67q-6 -28 4 -39.5t38 -11.5q13 0 27.5 3t24.5 8l-9 -41q-13 -6 -29.5 -8.5t-30.5 -2.5zM106 251h310l9 45q10 44 4 76t-34 49t-84 17q-94 0 -140 -48.5t-65 -138.5z" />
    <glyph glyph-name="uni1EBD" unicode="&#x1ebd;" horiz-adv-x="525" 
d="M399 547q-24 0 -45 9.5t-40.5 18.5t-39.5 9q-22 0 -44 -7.5t-42 -27.5l10 47q14 14 38 21.5t46 7.5q26 0 45 -9t37.5 -18.5t41.5 -9.5q48 0 80 35l-10 -47q-26 -29 -77 -29zM240 -10q-128 0 -173.5 60.5t-17.5 189.5q24 114 89 179t181 65q69 0 107 -25.5t49.5 -68.5
t-0.5 -96l-18 -86h-360q-11 -62 -0.5 -100.5t50 -55.5t114.5 -17q66 0 133 25l-9 -45q-67 -25 -145 -25zM106 251h310l9 45q10 44 4 76t-34 49t-84 17q-94 0 -140 -48.5t-65 -138.5z" />
    <glyph glyph-name="uni0259" unicode="&#x259;" horiz-adv-x="524" 
d="M191 -10q-68 0 -106 25.5t-49 68.5t0 96l18 85h360q11 62 2 100t-48 55.5t-118 17.5q-32 0 -66.5 -6t-67.5 -19l10 45q32 13 69.5 19.5t74.5 6.5q128 0 174 -61t18 -189q-24 -114 -86.5 -179t-184.5 -65zM200 35q94 0 140 49t65 139h-310l-10 -46q-14 -66 8.5 -104
t106.5 -38z" />
    <glyph glyph-name="f" unicode="f" horiz-adv-x="344" 
d="M52 0l90 428h-73l10 46h73l17 80q29 136 168 136q23 0 41.5 -3.5t32.5 -9.5l-9 -44q-28 11 -61 11q-55 0 -80.5 -21t-36.5 -68l-17 -81h132l-13 -46h-129l-90 -428h-55z" />
    <glyph glyph-name="g" unicode="g" horiz-adv-x="542" 
d="M200 -176q-25 0 -59.5 3t-52.5 7l10 48q21 -7 52 -9.5t50 -2.5q77 0 128 30.5t64 91.5l12 57q-40 -25 -81 -37t-92 -12q-63 0 -107 23t-60.5 75t1.5 138q27 130 95.5 189t168.5 59q55 0 92.5 -15.5t65.5 -48.5l16 54h46l-101 -477q-17 -79 -82 -126t-166 -47zM254 45
q48 0 87.5 14t72.5 39l59 276q-47 64 -140 64q-91 0 -142 -50.5t-72 -151.5q-22 -106 9.5 -148.5t125.5 -42.5z" />
    <glyph glyph-name="gbreve" unicode="&#x11f;" horiz-adv-x="542" 
d="M343 521q-51 0 -74 31.5t-13 79.5h40q-7 -34 5 -53t48 -19q32 0 55.5 19t30.5 53h44q-10 -48 -45.5 -79.5t-90.5 -31.5zM200 -176q-25 0 -59.5 3t-52.5 7l10 48q21 -7 52 -9.5t50 -2.5q77 0 128 30.5t64 91.5l12 57q-40 -25 -81 -37t-92 -12q-63 0 -107 23t-60.5 75
t1.5 138q27 130 95.5 189t168.5 59q55 0 92.5 -15.5t65.5 -48.5l16 54h46l-101 -477q-17 -79 -82 -126t-166 -47zM254 45q48 0 87.5 14t72.5 39l59 276q-47 64 -140 64q-91 0 -142 -50.5t-72 -151.5q-22 -106 9.5 -148.5t125.5 -42.5z" />
    <glyph glyph-name="gcaron" unicode="&#x1e7;" horiz-adv-x="542" 
d="M331 521l-75 135h47l57 -103l101 103h52l-134 -135h-48zM200 -176q-25 0 -59.5 3t-52.5 7l10 48q21 -7 52 -9.5t50 -2.5q77 0 128 30.5t64 91.5l12 57q-40 -25 -81 -37t-92 -12q-63 0 -107 23t-60.5 75t1.5 138q27 130 95.5 189t168.5 59q55 0 92.5 -15.5t65.5 -48.5
l16 54h46l-101 -477q-17 -79 -82 -126t-166 -47zM254 45q48 0 87.5 14t72.5 39l59 276q-47 64 -140 64q-91 0 -142 -50.5t-72 -151.5q-22 -106 9.5 -148.5t125.5 -42.5z" />
    <glyph glyph-name="gcircumflex" unicode="&#x11d;" horiz-adv-x="542" 
d="M210 521l133 135h48l76 -135h-48l-57 103l-101 -103h-51zM200 -176q-25 0 -59.5 3t-52.5 7l10 48q21 -7 52 -9.5t50 -2.5q77 0 128 30.5t64 91.5l12 57q-40 -25 -81 -37t-92 -12q-63 0 -107 23t-60.5 75t1.5 138q27 130 95.5 189t168.5 59q55 0 92.5 -15.5t65.5 -48.5
l16 54h46l-101 -477q-17 -79 -82 -126t-166 -47zM254 45q48 0 87.5 14t72.5 39l59 276q-47 64 -140 64q-91 0 -142 -50.5t-72 -151.5q-22 -106 9.5 -148.5t125.5 -42.5z" />
    <glyph glyph-name="uni0123" unicode="&#x123;" horiz-adv-x="542" 
d="M295 522l73 165h41l-61 -165h-53zM200 -176q-25 0 -59.5 3t-52.5 7l10 48q21 -7 52 -9.5t50 -2.5q77 0 128 30.5t64 91.5l12 57q-40 -25 -81 -37t-92 -12q-63 0 -107 23t-60.5 75t1.5 138q27 130 95.5 189t168.5 59q55 0 92.5 -15.5t65.5 -48.5l16 54h46l-101 -477
q-17 -79 -82 -126t-166 -47zM254 45q48 0 87.5 14t72.5 39l59 276q-47 64 -140 64q-91 0 -142 -50.5t-72 -151.5q-22 -106 9.5 -148.5t125.5 -42.5z" />
    <glyph glyph-name="gdotaccent" unicode="&#x121;" horiz-adv-x="542" 
d="M315 545l12 56h57l-12 -56h-57zM200 -176q-25 0 -59.5 3t-52.5 7l10 48q21 -7 52 -9.5t50 -2.5q77 0 128 30.5t64 91.5l12 57q-40 -25 -81 -37t-92 -12q-63 0 -107 23t-60.5 75t1.5 138q27 130 95.5 189t168.5 59q55 0 92.5 -15.5t65.5 -48.5l16 54h46l-101 -477
q-17 -79 -82 -126t-166 -47zM254 45q48 0 87.5 14t72.5 39l59 276q-47 64 -140 64q-91 0 -142 -50.5t-72 -151.5q-22 -106 9.5 -148.5t125.5 -42.5z" />
    <glyph glyph-name="uni1E21" unicode="&#x1e21;" horiz-adv-x="542" 
d="M220 551l9 42h276l-9 -42h-276zM200 -176q-25 0 -59.5 3t-52.5 7l10 48q21 -7 52 -9.5t50 -2.5q77 0 128 30.5t64 91.5l12 57q-40 -25 -81 -37t-92 -12q-63 0 -107 23t-60.5 75t1.5 138q27 130 95.5 189t168.5 59q55 0 92.5 -15.5t65.5 -48.5l16 54h46l-101 -477
q-17 -79 -82 -126t-166 -47zM254 45q48 0 87.5 14t72.5 39l59 276q-47 64 -140 64q-91 0 -142 -50.5t-72 -151.5q-22 -106 9.5 -148.5t125.5 -42.5z" />
    <glyph glyph-name="h" unicode="h" horiz-adv-x="559" 
d="M18 0l143 674h55l-55 -257q42 30 91 48.5t113 18.5q82 0 117 -41t16 -130l-66 -313h-55l66 312q15 70 -7.5 98t-100.5 28q-49 0 -97.5 -19.5t-86.5 -50.5l-78 -368h-55z" />
    <glyph glyph-name="hbar" unicode="&#x127;" horiz-adv-x="582" 
d="M41 0l116 548h-62l10 45h62l17 81h55l-18 -81h176l-10 -45h-175l-28 -131q42 30 91 48.5t113 18.5q82 0 117 -41t16 -130l-66 -313h-55l66 312q15 70 -7.5 98t-100.5 28q-49 0 -97.5 -19.5t-86.5 -50.5l-78 -368h-55z" />
    <glyph glyph-name="uni1E2B" unicode="&#x1e2b;" horiz-adv-x="559" 
d="M18 0l143 674h55l-55 -257q42 30 91 48.5t113 18.5q82 0 117 -41t16 -130l-66 -313h-55l66 312q15 70 -7.5 98t-100.5 28q-49 0 -97.5 -19.5t-86.5 -50.5l-78 -368h-55zM189 -185q-58 0 -90 31.5t-18 98.5h40q-10 -49 9 -70.5t65 -21.5q41 0 72.5 21.5t41.5 70.5h43
q-14 -67 -58 -98.5t-105 -31.5z" />
    <glyph glyph-name="hcircumflex" unicode="&#x125;" horiz-adv-x="559" 
d="M170 699l133 135h48l76 -135h-48l-57 103l-101 -103h-51zM18 0l143 674h55l-55 -257q42 30 91 48.5t113 18.5q82 0 117 -41t16 -130l-66 -313h-55l66 312q15 70 -7.5 98t-100.5 28q-49 0 -97.5 -19.5t-86.5 -50.5l-78 -368h-55z" />
    <glyph glyph-name="uni1E25" unicode="&#x1e25;" horiz-adv-x="559" 
d="M18 0l143 674h55l-55 -257q42 30 91 48.5t113 18.5q82 0 117 -41t16 -130l-66 -313h-55l66 312q15 70 -7.5 98t-100.5 28q-49 0 -97.5 -19.5t-86.5 -50.5l-78 -368h-55zM161 -152l12 57h59l-12 -57h-59z" />
    <glyph glyph-name="i" unicode="i" horiz-adv-x="270" 
d="M202 597l13 60h63l-13 -60h-63zM83 0l90 428h-74l16 46h123l-100 -474h-55z" />
    <glyph glyph-name="dotlessi" unicode="&#x131;" horiz-adv-x="271" 
d="M84 0l90 428h-75l14 46h126l-100 -474h-55z" />
    <glyph glyph-name="iacute" unicode="&#xed;" horiz-adv-x="271" 
d="M188 522l101 158h52l-108 -158h-45zM84 0l90 428h-75l14 46h126l-100 -474h-55z" />
    <glyph glyph-name="ibreve" unicode="&#x12d;" horiz-adv-x="270" 
d="M201 521q-51 0 -74 31t-13 79h39q-7 -34 6.5 -53t47.5 -19q32 0 55.5 19t30.5 53h43q-10 -48 -46.5 -79t-88.5 -31zM83 0l90 428h-75l14 46h126l-100 -474h-55z" />
    <glyph glyph-name="uni01D0" unicode="&#x1d0;" horiz-adv-x="269" 
d="M186 521l-75 135h47l57 -103l101 103h52l-134 -135h-48zM92 0l90 428h-75l14 46h126l-100 -474h-55z" />
    <glyph glyph-name="icircumflex" unicode="&#xee;" horiz-adv-x="269" 
d="M73 521l133 135h48l76 -135h-48l-57 103l-101 -103h-51zM80 0l90 428h-75l14 46h126l-100 -474h-55z" />
    <glyph glyph-name="idieresis" unicode="&#xef;" horiz-adv-x="270" 
d="M91 548l11 55h57l-12 -55h-56zM257 548l12 55h56l-12 -55h-56zM94 0l90 428h-75l14 46h126l-100 -474h-55z" />
    <glyph glyph-name="uni1ECB" unicode="&#x1ecb;" horiz-adv-x="271" 
d="M202 597l13 60h63l-13 -60h-63zM83 0l90 428h-74l16 46h123l-100 -474h-55zM50 -152l12 57h59l-12 -57h-59z" />
    <glyph glyph-name="igrave" unicode="&#xec;" horiz-adv-x="271" 
d="M200 522l-40 158h52l33 -158h-45zM84 0l90 428h-75l14 46h126l-100 -474h-55z" />
    <glyph glyph-name="uni1EC9" unicode="&#x1ec9;" horiz-adv-x="270" 
d="M175 522l17 79q41 2 62 8.5t30.5 19t13.5 31.5q6 27 -10.5 40t-60.5 13q-16 0 -36 -3.5t-34 -8.5l8 38q15 5 38.5 8.5t41.5 3.5q57 0 81.5 -23t15.5 -65q-8 -40 -32 -62t-77 -27l-11 -52h-47zM84 0l90 428h-75l14 46h126l-100 -474h-55z" />
    <glyph glyph-name="ij" unicode="&#x133;" horiz-adv-x="469" 
d="M202 597l13 60h63l-13 -60h-63zM401 597l13 60h63l-13 -60h-63zM153 -234q-21 0 -41 3t-36 9l10 45q15 -5 30.5 -7.5t28.5 -2.5q56 0 81 21.5t34 66.5l112 527h-74l16 46h123l-122 -576q-28 -132 -162 -132zM83 0l90 428h-74l16 46h123l-100 -474h-55z" />
    <glyph glyph-name="imacron" unicode="&#x12b;" horiz-adv-x="280" 
d="M62 556l9 42h277l-9 -42h-277zM95 0l90 428h-75l14 46h126l-100 -474h-55z" />
    <glyph glyph-name="iogonek" unicode="&#x12f;" horiz-adv-x="279" 
d="M202 597l13 60h63l-13 -60h-63zM62 -220q-38 0 -60.5 19.5t-12.5 66.5q8 41 36.5 76.5t57.5 57.5l90 428h-74l16 46h123l-100 -474q-43 -28 -68 -61t-33 -67q-6 -28 4 -39.5t38 -11.5q13 0 27.5 3t24.5 8l-9 -41q-13 -6 -29.5 -8.5t-30.5 -2.5z" />
    <glyph glyph-name="itilde" unicode="&#x129;" horiz-adv-x="269" 
d="M264 524q-24 0 -45 9.5t-40.5 18.5t-39.5 9q-22 0 -44 -7.5t-42 -27.5l10 47q14 14 38 21.5t46 7.5q26 0 45.5 -9t37.5 -18.5t41 -9.5q48 0 80 35l-10 -47q-26 -29 -77 -29zM93 0l90 428h-75l14 46h126l-100 -474h-55z" />
    <glyph glyph-name="j" unicode="j" horiz-adv-x="269" 
d="M201 597l13 60h63l-13 -60h-63zM-47 -234q-21 0 -41 3t-36 9l10 45q15 -5 30.5 -7.5t28.5 -2.5q56 0 81 21.5t34 66.5l112 527h-74l16 46h123l-122 -576q-28 -132 -162 -132z" />
    <glyph glyph-name="uni0237" unicode="&#x237;" horiz-adv-x="269" 
d="M-47 -234q-21 0 -41 3t-36 9l10 45q15 -5 30.5 -7.5t28.5 -2.5q55 0 80.5 21.5t34.5 66.5l112 527h-74l16 46h123l-122 -576q-13 -61 -55.5 -96.5t-106.5 -35.5z" />
    <glyph glyph-name="jcircumflex" unicode="&#x135;" horiz-adv-x="268" 
d="M70 521l133 135h48l76 -135h-48l-57 103l-101 -103h-51zM-47 -234q-21 0 -41 3t-36 9l10 45q15 -5 30.5 -7.5t28.5 -2.5q55 0 80.5 21.5t34.5 66.5l112 527h-74l16 46h123l-122 -576q-13 -61 -55.5 -96.5t-106.5 -35.5z" />
    <glyph glyph-name="k" unicode="k" horiz-adv-x="486" 
d="M18 0l143 674h55l-91 -428l292 228h66l-234 -185l145 -289h-58l-130 258l-94 -74l-39 -184h-55z" />
    <glyph glyph-name="uni0137" unicode="&#x137;" horiz-adv-x="506" 
d="M18 0l143 674h55l-91 -428l292 228h66l-234 -185l145 -289h-58l-130 258l-94 -74l-39 -184h-55zM100 -202l61 165h53l-73 -165h-41z" />
    <glyph glyph-name="kgreenlandic" unicode="&#x138;" horiz-adv-x="507" 
d="M19 0l100 474h55l-53 -249l297 249h66l-237 -200l148 -274h-58l-132 243l-97 -82l-34 -161h-55z" />
    <glyph glyph-name="l" unicode="l" horiz-adv-x="246" 
d="M103 -10q-40 0 -59 22t-7 79l124 583h55l-124 -581q-7 -32 -0.5 -44t30.5 -12q22 0 46 6l-10 -46q-14 -4 -28.5 -5.5t-26.5 -1.5z" />
    <glyph glyph-name="lacute" unicode="&#x13a;" horiz-adv-x="246" 
d="M173 723l101 158h52l-108 -158h-45zM103 -10q-40 0 -59 22t-7 79l124 583h55l-124 -581q-7 -32 -0.5 -44t30.5 -12q22 0 46 6l-10 -46q-14 -4 -28.5 -5.5t-26.5 -1.5z" />
    <glyph glyph-name="lcaron" unicode="&#x13e;" horiz-adv-x="271" 
d="M104 -10q-40 0 -59.5 22t-7.5 79l124 583h55l-124 -581q-7 -32 1 -44t30 -12q21 0 45 6l-10 -46q-14 -4 -28.5 -5.5t-25.5 -1.5zM243 509l61 165h53l-73 -165h-41z" />
    <glyph glyph-name="uni013C" unicode="&#x13c;" horiz-adv-x="246" 
d="M103 -10q-40 0 -59 22t-7 79l124 583h55l-124 -581q-7 -32 -0.5 -44t30.5 -12q22 0 46 6l-10 -46q-14 -4 -28.5 -5.5t-26.5 -1.5zM9 -202l61 165h53l-73 -165h-41z" />
    <glyph glyph-name="ldot" unicode="&#x140;" horiz-adv-x="276" 
d="M103 -10q-40 0 -59 22t-7 79l124 583h55l-124 -581q-7 -32 -0.5 -44t30.5 -12q22 0 46 6l-10 -46q-14 -4 -28.5 -5.5t-26.5 -1.5zM214 269l12 57h59l-12 -57h-59z" />
    <glyph glyph-name="uni1E37" unicode="&#x1e37;" horiz-adv-x="246" 
d="M103 -10q-40 0 -59 22t-7 79l124 583h55l-124 -581q-7 -32 -0.5 -44t30.5 -12q22 0 46 6l-10 -46q-14 -4 -28.5 -5.5t-26.5 -1.5zM9 -152l12 57h59l-12 -57h-59z" />
    <glyph glyph-name="uni1E39" unicode="&#x1e39;" horiz-adv-x="245" 
d="M61 720l9 42h276l-9 -42h-276zM103 -10q-40 0 -59 22t-7 79l124 583h55l-124 -581q-7 -32 -0.5 -44t30.5 -12q22 0 46 6l-10 -46q-14 -4 -28.5 -5.5t-26.5 -1.5zM19 -152l12 57h59l-12 -57h-59z" />
    <glyph glyph-name="uni1E3B" unicode="&#x1e3b;" horiz-adv-x="245" 
d="M103 -10q-40 0 -59 22t-7 79l124 583h55l-124 -581q-7 -32 -0.5 -44t30.5 -12q22 0 46 6l-10 -46q-14 -4 -28.5 -5.5t-26.5 -1.5zM-96 -117l9 42h276l-9 -42h-276z" />
    <glyph glyph-name="lslash" unicode="&#x142;" horiz-adv-x="247" 
d="M104 -10q-40 0 -59 22t-7 79l43 205l-118 -47l11 48l117 47l71 330h55l-66 -306l134 53l-10 -48l-134 -53l-48 -227q-7 -32 0.5 -44t29.5 -12t46 6l-10 -46q-14 -4 -28.5 -5.5t-26.5 -1.5z" />
    <glyph glyph-name="m" unicode="m" horiz-adv-x="851" 
d="M19 0l100 474h48l-7 -58q46 32 94 50t97 18q52 0 79 -19.5t34 -48.5q40 29 90 48.5t113 19.5q78 0 110 -40.5t14 -126.5l-67 -317h-54l66 312q15 71 -6.5 98.5t-92.5 27.5q-45 0 -88.5 -15.5t-77.5 -45.5q0 -14 -2 -32.5t-6 -34.5l-65 -310h-53l65 309q15 68 -1.5 98.5
t-82.5 30.5q-44 0 -90.5 -20t-84.5 -49l-78 -369h-54z" />
    <glyph glyph-name="uni1E43" unicode="&#x1e43;" horiz-adv-x="851" 
d="M19 0l100 474h48l-7 -58q46 32 94 50t97 18q52 0 79 -19.5t34 -48.5q40 29 90 48.5t113 19.5q78 0 110 -40.5t14 -126.5l-67 -317h-54l66 312q15 71 -6.5 98.5t-92.5 27.5q-45 0 -88.5 -15.5t-77.5 -45.5q0 -14 -2 -32.5t-6 -34.5l-65 -310h-53l65 309q15 68 -1.5 98.5
t-82.5 30.5q-44 0 -90.5 -20t-84.5 -49l-78 -369h-54zM309 -152l12 57h59l-12 -57h-59z" />
    <glyph glyph-name="n" unicode="n" horiz-adv-x="560" 
d="M19 0l100 474h48l-7 -58q42 30 92 49t114 19q83 0 117.5 -41.5t15.5 -129.5l-66 -313h-55l66 312q10 47 6 74.5t-29 39.5t-77 12t-103 -19t-89 -50l-78 -369h-55z" />
    <glyph glyph-name="nacute" unicode="&#x144;" horiz-adv-x="560" 
d="M309 522l101 158h52l-108 -158h-45zM19 0l100 474h48l-7 -58q42 30 92 49t114 19q83 0 117.5 -41.5t15.5 -129.5l-66 -313h-55l66 312q10 47 6 74.5t-29 39.5t-77 12t-103 -19t-89 -50l-78 -369h-55z" />
    <glyph glyph-name="napostrophe" unicode="&#x149;" horiz-adv-x="625" 
d="M78 485l61 165h53l-73 -165h-41zM84 0l100 474h48l-7 -58q42 30 92 49t114 19q83 0 117.5 -41.5t15.5 -129.5l-66 -313h-55l66 312q10 47 6 74.5t-29 39.5t-77 12t-103 -19t-89 -50l-78 -369h-55z" />
    <glyph glyph-name="ncaron" unicode="&#x148;" horiz-adv-x="560" 
d="M307 521l-75 135h47l57 -103l101 103h52l-134 -135h-48zM19 0l100 474h48l-7 -58q42 30 92 49t114 19q83 0 117.5 -41.5t15.5 -129.5l-66 -313h-55l66 312q10 47 6 74.5t-29 39.5t-77 12t-103 -19t-89 -50l-78 -369h-55z" />
    <glyph glyph-name="uni0146" unicode="&#x146;" horiz-adv-x="560" 
d="M19 0l100 474h48l-7 -58q42 30 92 49t114 19q83 0 117.5 -41.5t15.5 -129.5l-66 -313h-55l66 312q10 47 6 74.5t-29 39.5t-77 12t-103 -19t-89 -50l-78 -369h-55zM140 -202l61 165h53l-73 -165h-41z" />
    <glyph glyph-name="uni1E45" unicode="&#x1e45;" horiz-adv-x="560" 
d="M315 548l12 56h57l-12 -56h-57zM19 0l100 474h48l-7 -58q42 30 92 49t114 19q83 0 117.5 -41.5t15.5 -129.5l-66 -313h-55l66 312q10 47 6 74.5t-29 39.5t-77 12t-103 -19t-89 -50l-78 -369h-55z" />
    <glyph glyph-name="uni1E47" unicode="&#x1e47;" horiz-adv-x="560" 
d="M19 0l100 474h48l-7 -58q42 30 92 49t114 19q83 0 117.5 -41.5t15.5 -129.5l-66 -313h-55l66 312q10 47 6 74.5t-29 39.5t-77 12t-103 -19t-89 -50l-78 -369h-55zM171 -152l12 57h59l-12 -57h-59z" />
    <glyph glyph-name="eng" unicode="&#x14b;" horiz-adv-x="560" 
d="M248 -234q-46 0 -78 12l10 45q16 -5 31.5 -7.5t27.5 -2.5q56 0 82 21.5t35 66.5l88 411q15 70 -7.5 98t-102.5 28q-50 0 -97 -19t-85 -50l-78 -369h-55l100 474h48l-7 -58q42 30 92 49t114 19q89 0 120.5 -41t12.5 -130l-88 -415q-13 -61 -56 -96.5t-107 -35.5z" />
    <glyph glyph-name="uni1E49" unicode="&#x1e49;" horiz-adv-x="560" 
d="M19 0l100 474h48l-7 -58q42 30 92 49t114 19q83 0 117.5 -41.5t15.5 -129.5l-66 -313h-55l66 312q10 47 6 74.5t-29 39.5t-77 12t-103 -19t-89 -50l-78 -369h-55zM66 -116l9 42h276l-9 -42h-276z" />
    <glyph glyph-name="ntilde" unicode="&#xf1;" horiz-adv-x="560" 
d="M418 547q-24 0 -45 9.5t-40.5 18.5t-39.5 9q-22 0 -44 -7.5t-42 -27.5l10 47q14 14 38 21.5t46 7.5q26 0 45 -9t37.5 -18.5t41.5 -9.5q48 0 80 35l-10 -47q-26 -29 -77 -29zM19 0l100 474h48l-7 -58q42 30 92 49t114 19q83 0 117.5 -41.5t15.5 -129.5l-66 -313h-55
l66 312q10 47 6 74.5t-29 39.5t-77 12t-103 -19t-89 -50l-78 -369h-55z" />
    <glyph glyph-name="o" unicode="o" horiz-adv-x="563" 
d="M221 -10q-120 0 -159 63t-14 184q26 120 90 183.5t188 63.5q119 0 160 -63.5t15 -183.5q-25 -121 -89 -184t-191 -63zM231 37q95 0 144 49t71 151q22 101 -4.5 150t-125.5 49q-94 0 -143 -49t-71 -150q-14 -68 -8.5 -112.5t38.5 -66t99 -21.5z" />
    <glyph glyph-name="oacute" unicode="&#xf3;" horiz-adv-x="563" 
d="M315 522l101 158h52l-108 -158h-45zM221 -10q-120 0 -159 63t-14 184q26 120 90 183.5t188 63.5q119 0 160 -63.5t15 -183.5q-25 -121 -89 -184t-191 -63zM231 37q95 0 144 49t71 151q22 101 -4.5 150t-125.5 49q-94 0 -143 -49t-71 -150q-14 -68 -8.5 -112.5t38.5 -66
t99 -21.5z" />
    <glyph glyph-name="obreve" unicode="&#x14f;" horiz-adv-x="563" 
d="M334 521q-51 0 -74 31.5t-13 79.5h40q-7 -34 5 -53t48 -19q32 0 55.5 19t30.5 53h44q-10 -48 -45.5 -79.5t-90.5 -31.5zM221 -10q-120 0 -159 63t-14 184q26 120 90 183.5t188 63.5q119 0 160 -63.5t15 -183.5q-25 -121 -89 -184t-191 -63zM231 37q95 0 144 49t71 151
q22 101 -4.5 150t-125.5 49q-94 0 -143 -49t-71 -150q-14 -68 -8.5 -112.5t38.5 -66t99 -21.5z" />
    <glyph glyph-name="uni01D2" unicode="&#x1d2;" horiz-adv-x="563" 
d="M310 521l-75 135h47l57 -103l101 103h52l-134 -135h-48zM221 -10q-120 0 -159 63t-14 184q26 120 90 183.5t188 63.5q119 0 160 -63.5t15 -183.5q-25 -121 -89 -184t-191 -63zM231 37q95 0 144 49t71 151q22 101 -4.5 150t-125.5 49q-94 0 -143 -49t-71 -150
q-14 -68 -8.5 -112.5t38.5 -66t99 -21.5z" />
    <glyph glyph-name="ocircumflex" unicode="&#xf4;" horiz-adv-x="563" 
d="M206 521l133 135h48l76 -135h-48l-57 103l-101 -103h-51zM221 -10q-120 0 -159 63t-14 184q26 120 90 183.5t188 63.5q119 0 160 -63.5t15 -183.5q-25 -121 -89 -184t-191 -63zM231 37q95 0 144 49t71 151q22 101 -4.5 150t-125.5 49q-94 0 -143 -49t-71 -150
q-14 -68 -8.5 -112.5t38.5 -66t99 -21.5z" />
    <glyph glyph-name="uni1ED1" unicode="&#x1ed1;" horiz-adv-x="563" 
d="M433 627l85 117h46l-90 -117h-41zM215 521l126 110h48l80 -110h-46l-60 85l-96 -85h-52zM221 -10q-120 0 -159 63t-14 184q26 120 90 183.5t188 63.5q119 0 160 -63.5t15 -183.5q-25 -121 -89 -184t-191 -63zM231 37q95 0 144 49t71 151q22 101 -4.5 150t-125.5 49
q-94 0 -143 -49t-71 -150q-14 -68 -8.5 -112.5t38.5 -66t99 -21.5z" />
    <glyph glyph-name="uni1ED9" unicode="&#x1ed9;" horiz-adv-x="563" 
d="M206 521l133 135h48l76 -135h-48l-57 103l-101 -103h-51zM221 -10q-120 0 -159 63t-14 184q26 120 90 183.5t188 63.5q119 0 160 -63.5t15 -183.5q-25 -121 -89 -184t-191 -63zM231 37q95 0 144 49t71 151q22 101 -4.5 150t-125.5 49q-94 0 -143 -49t-71 -150
q-14 -68 -8.5 -112.5t38.5 -66t99 -21.5zM163 -152l12 57h59l-12 -57h-59z" />
    <glyph glyph-name="uni1ED3" unicode="&#x1ed3;" horiz-adv-x="563" 
d="M246 627l-41 117h47l34 -117h-40zM207 521l126 110h48l80 -110h-46l-60 85l-96 -85h-52zM221 -10q-120 0 -159 63t-14 184q26 120 90 183.5t188 63.5q119 0 160 -63.5t15 -183.5q-25 -121 -89 -184t-191 -63zM231 37q95 0 144 49t71 151q22 101 -4.5 150t-125.5 49
q-94 0 -143 -49t-71 -150q-14 -68 -8.5 -112.5t38.5 -66t99 -21.5z" />
    <glyph glyph-name="uni1ED5" unicode="&#x1ed5;" horiz-adv-x="563" 
d="M443 606l12 59q53 3 70.5 14t21.5 32q9 41 -44 41q-17 0 -32 -3.5t-29 -9.5l7 34q14 5 31.5 8.5t36.5 3.5q41 0 60.5 -18.5t12.5 -53.5q-13 -62 -94 -71l-8 -36h-45zM221 521l126 110h48l80 -110h-46l-60 85l-95 -85h-53zM221 -10q-120 0 -159 63t-14 184
q26 120 90 183.5t188 63.5q119 0 160 -63.5t15 -183.5q-25 -121 -89 -184t-191 -63zM231 37q95 0 144 49t71 151q22 101 -4.5 150t-125.5 49q-94 0 -143 -49t-71 -150q-14 -68 -8.5 -112.5t38.5 -66t99 -21.5z" />
    <glyph glyph-name="uni1ED7" unicode="&#x1ed7;" horiz-adv-x="563" 
d="M421 639q-23 0 -42 8.5t-36 16.5t-36 8q-22 0 -42 -6.5t-40 -25.5l10 44q14 12 35.5 19t42.5 7q25 0 42.5 -8t34 -16.5t38.5 -8.5t40.5 7t37.5 25l-10 -44q-28 -26 -75 -26zM221 521l126 110h48l80 -110h-46l-60 85l-95 -85h-53zM221 -10q-120 0 -159 63t-14 184
q26 120 90 183.5t188 63.5q119 0 160 -63.5t15 -183.5q-25 -121 -89 -184t-191 -63zM231 37q95 0 144 49t71 151q22 101 -4.5 150t-125.5 49q-94 0 -143 -49t-71 -150q-14 -68 -8.5 -112.5t38.5 -66t99 -21.5z" />
    <glyph glyph-name="odieresis" unicode="&#xf6;" horiz-adv-x="563" 
d="M229 548l11 55h57l-12 -55h-56zM395 548l12 55h56l-12 -55h-56zM221 -10q-120 0 -159 63t-14 184q26 120 90 183.5t188 63.5q119 0 160 -63.5t15 -183.5q-25 -121 -89 -184t-191 -63zM231 37q95 0 144 49t71 151q22 101 -4.5 150t-125.5 49q-94 0 -143 -49t-71 -150
q-14 -68 -8.5 -112.5t38.5 -66t99 -21.5z" />
    <glyph glyph-name="uni1ECD" unicode="&#x1ecd;" horiz-adv-x="563" 
d="M221 -10q-120 0 -159 63t-14 184q26 120 90 183.5t188 63.5q119 0 160 -63.5t15 -183.5q-25 -121 -89 -184t-191 -63zM231 37q95 0 144 49t71 151q22 101 -4.5 150t-125.5 49q-94 0 -143 -49t-71 -150q-14 -68 -8.5 -112.5t38.5 -66t99 -21.5zM163 -152l12 57h59l-12 -57
h-59z" />
    <glyph glyph-name="ograve" unicode="&#xf2;" horiz-adv-x="563" 
d="M320 522l-40 158h52l33 -158h-45zM221 -10q-120 0 -159 63t-14 184q26 120 90 183.5t188 63.5q119 0 160 -63.5t15 -183.5q-25 -121 -89 -184t-191 -63zM231 37q95 0 144 49t71 151q22 101 -4.5 150t-125.5 49q-94 0 -143 -49t-71 -150q-14 -68 -8.5 -112.5t38.5 -66
t99 -21.5z" />
    <glyph glyph-name="uni1ECF" unicode="&#x1ecf;" horiz-adv-x="563" 
d="M313 522l17 79q41 2 62 8.5t30.5 19t13.5 31.5q6 27 -10.5 40t-60.5 13q-16 0 -36 -3.5t-34 -8.5l8 38q15 5 38.5 8.5t41.5 3.5q57 0 81.5 -23t15.5 -65q-8 -40 -32 -62t-77 -27l-11 -52h-47zM221 -10q-120 0 -159 63t-14 184q26 120 90 183.5t188 63.5q119 0 160 -63.5
t15 -183.5q-25 -121 -89 -184t-191 -63zM231 37q95 0 144 49t71 151q22 101 -4.5 150t-125.5 49q-94 0 -143 -49t-71 -150q-14 -68 -8.5 -112.5t38.5 -66t99 -21.5z" />
    <glyph glyph-name="ohorn" unicode="&#x1a1;" horiz-adv-x="638" 
d="M221 -10q-120 0 -159 63t-14 184q26 120 90 183.5t188 63.5q125 0 165 -73q60 1 88 28t43 97h48q-19 -88 -59.5 -124.5t-104.5 -42.5q12 -53 -5 -132q-25 -121 -89 -184t-191 -63zM231 37q95 0 144 49t71 151q22 101 -4.5 150t-125.5 49q-94 0 -143 -49t-71 -150
q-14 -68 -8.5 -112.5t38.5 -66t99 -21.5z" />
    <glyph glyph-name="uni1EDB" unicode="&#x1edb;" horiz-adv-x="638" 
d="M323 522l101 158h52l-108 -158h-45zM221 -10q-120 0 -159 63t-14 184q26 120 90 183.5t188 63.5q125 0 165 -73q60 1 88 28t43 97h48q-19 -88 -59.5 -124.5t-104.5 -42.5q12 -53 -5 -132q-25 -121 -89 -184t-191 -63zM231 37q95 0 144 49t71 151q22 101 -4.5 150
t-125.5 49q-94 0 -143 -49t-71 -150q-14 -68 -8.5 -112.5t38.5 -66t99 -21.5z" />
    <glyph glyph-name="uni1EE3" unicode="&#x1ee3;" horiz-adv-x="638" 
d="M221 -10q-120 0 -159 63t-14 184q26 120 90 183.5t188 63.5q125 0 165 -73q60 1 88 28t43 97h48q-19 -88 -59.5 -124.5t-104.5 -42.5q12 -53 -5 -132q-25 -121 -89 -184t-191 -63zM231 37q95 0 144 49t71 151q22 101 -4.5 150t-125.5 49q-94 0 -143 -49t-71 -150
q-14 -68 -8.5 -112.5t38.5 -66t99 -21.5zM172 -152l12 57h59l-12 -57h-59z" />
    <glyph glyph-name="uni1EDD" unicode="&#x1edd;" horiz-adv-x="638" 
d="M332 522l-40 158h52l33 -158h-45zM221 -10q-120 0 -159 63t-14 184q26 120 90 183.5t188 63.5q125 0 165 -73q60 1 88 28t43 97h48q-19 -88 -59.5 -124.5t-104.5 -42.5q12 -53 -5 -132q-25 -121 -89 -184t-191 -63zM231 37q95 0 144 49t71 151q22 101 -4.5 150t-125.5 49
q-94 0 -143 -49t-71 -150q-14 -68 -8.5 -112.5t38.5 -66t99 -21.5z" />
    <glyph glyph-name="uni1EDF" unicode="&#x1edf;" horiz-adv-x="638" 
d="M310 522l17 79q41 2 62 8.5t30.5 19t13.5 31.5q6 27 -10.5 40t-60.5 13q-16 0 -36 -3.5t-34 -8.5l8 38q15 5 38.5 8.5t41.5 3.5q57 0 81.5 -23t15.5 -65q-8 -40 -32 -62t-77 -27l-11 -52h-47zM221 -10q-120 0 -159 63t-14 184q26 120 90 183.5t188 63.5q125 0 165 -73
q60 1 88 28t43 97h48q-19 -88 -59.5 -124.5t-104.5 -42.5q12 -53 -5 -132q-25 -121 -89 -184t-191 -63zM231 37q95 0 144 49t71 151q22 101 -4.5 150t-125.5 49q-94 0 -143 -49t-71 -150q-14 -68 -8.5 -112.5t38.5 -66t99 -21.5z" />
    <glyph glyph-name="uni1EE1" unicode="&#x1ee1;" horiz-adv-x="638" 
d="M417 546q-24 0 -45 9.5t-40.5 18.5t-39.5 9q-22 0 -44 -7.5t-42 -27.5l10 47q14 14 38 21.5t46 7.5q26 0 45 -9t37.5 -18.5t41.5 -9.5q48 0 80 35l-10 -47q-26 -29 -77 -29zM221 -10q-120 0 -159 63t-14 184q26 120 90 183.5t188 63.5q125 0 165 -73q60 1 88 28t43 97h48
q-19 -88 -59.5 -124.5t-104.5 -42.5q12 -53 -5 -132q-25 -121 -89 -184t-191 -63zM231 37q95 0 144 49t71 151q22 101 -4.5 150t-125.5 49q-94 0 -143 -49t-71 -150q-14 -68 -8.5 -112.5t38.5 -66t99 -21.5z" />
    <glyph glyph-name="ohungarumlaut" unicode="&#x151;" horiz-adv-x="563" 
d="M220 521l96 141h54l-105 -141h-45zM418 521l97 141h54l-106 -141h-45zM221 -10q-120 0 -159 63t-14 184q26 120 90 183.5t188 63.5q119 0 160 -63.5t15 -183.5q-25 -121 -89 -184t-191 -63zM231 37q95 0 144 49t71 151q22 101 -4.5 150t-125.5 49q-94 0 -143 -49
t-71 -150q-14 -68 -8.5 -112.5t38.5 -66t99 -21.5z" />
    <glyph glyph-name="omacron" unicode="&#x14d;" horiz-adv-x="563" 
d="M204 553l9 42h276l-9 -42h-276zM221 -10q-120 0 -159 63t-14 184q26 120 90 183.5t188 63.5q119 0 160 -63.5t15 -183.5q-25 -121 -89 -184t-191 -63zM231 37q95 0 144 49t71 151q22 101 -4.5 150t-125.5 49q-94 0 -143 -49t-71 -150q-14 -68 -8.5 -112.5t38.5 -66
t99 -21.5z" />
    <glyph glyph-name="oslash" unicode="&#xf8;" horiz-adv-x="563" 
d="M89 -54l34 59q-61 24 -77.5 82.5t2.5 149.5q26 120 90 183.5t188 63.5q39 0 67 -7l29 51h49l-37 -65q54 -25 69.5 -82.5t-2.5 -143.5q-25 -121 -89 -184t-191 -63q-15 0 -29 1.5t-27 2.5l-27 -48h-49zM148 50l219 382q-11 2 -24 3t-27 1q-94 0 -143 -49t-71 -150
q-16 -76 -7.5 -122t53.5 -65zM231 37q95 0 144 49t71 151q15 71 7.5 116t-45.5 65l-217 -379q9 -1 19 -1.5t21 -0.5z" />
    <glyph glyph-name="oslashacute" unicode="&#x1ff;" horiz-adv-x="563" 
d="M304 522l101 158h52l-108 -158h-45zM89 -54l34 59q-61 24 -77.5 82.5t2.5 149.5q26 120 90 183.5t188 63.5q39 0 67 -7l29 51h49l-37 -65q54 -25 69.5 -82.5t-2.5 -143.5q-25 -121 -89 -184t-191 -63q-15 0 -29 1.5t-27 2.5l-27 -48h-49zM148 50l219 382q-11 2 -24 3
t-27 1q-94 0 -143 -49t-71 -150q-16 -76 -7.5 -122t53.5 -65zM231 37q95 0 144 49t71 151q15 71 7.5 116t-45.5 65l-217 -379q9 -1 19 -1.5t21 -0.5z" />
    <glyph glyph-name="otilde" unicode="&#xf5;" horiz-adv-x="563" 
d="M411 549q-24 0 -45 9.5t-40.5 18.5t-39.5 9q-22 0 -44 -7.5t-42 -27.5l10 47q14 14 38 21.5t46 7.5q26 0 45 -9t37.5 -18.5t41.5 -9.5q48 0 80 35l-10 -47q-26 -29 -77 -29zM221 -10q-120 0 -159 63t-14 184q26 120 90 183.5t188 63.5q119 0 160 -63.5t15 -183.5
q-25 -121 -89 -184t-191 -63zM231 37q95 0 144 49t71 151q22 101 -4.5 150t-125.5 49q-94 0 -143 -49t-71 -150q-14 -68 -8.5 -112.5t38.5 -66t99 -21.5z" />
    <glyph glyph-name="oe" unicode="&#x153;" horiz-adv-x="924" 
d="M221 -10q-113 0 -155.5 63t-17.5 184q26 120 90.5 183.5t187.5 63.5q77 0 118.5 -28t54.5 -82q34 53 88.5 81.5t130.5 28.5q68 0 106 -25.5t50 -68.5t0 -96l-18 -86h-361q-15 -92 20.5 -132.5t143.5 -40.5q65 0 134 25l-9 -45q-69 -25 -145 -25q-166 0 -192 110
q-34 -53 -90.5 -81.5t-135.5 -28.5zM504 251h310l9 45q14 66 -8.5 104t-104.5 38q-94 0 -140.5 -48.5t-65.5 -138.5zM231 37q95 0 144 49.5t71 152.5q22 101 -5.5 149t-124.5 48q-94 0 -143 -49t-71 -150q-14 -68 -9 -112.5t37.5 -66t100.5 -21.5z" />
    <glyph glyph-name="p" unicode="p" horiz-adv-x="564" 
d="M-27 -216l146 690h46l-6 -54q41 33 85 48.5t99 15.5q98 0 143 -58.5t17 -187.5q-27 -129 -96 -188.5t-173 -59.5q-50 0 -86 12t-66 37l-54 -255h-55zM230 35q89 0 143 48.5t76 154.5q22 101 -5 150.5t-123 49.5q-46 0 -88 -15.5t-80 -48.5l-61 -286q23 -24 56 -38.5
t82 -14.5z" />
    <glyph glyph-name="thorn" unicode="&#xfe;" horiz-adv-x="564" 
d="M-27 -216l194 916h55l-58 -272q41 29 84.5 42.5t94.5 13.5q64 0 106 -25.5t57.5 -80t-3.5 -140.5q-27 -129 -98 -188.5t-171 -59.5q-50 0 -86 12t-66 37l-54 -255h-55zM230 35q89 0 143 48.5t76 154.5q22 101 -5.5 150.5t-122.5 49.5q-46 0 -88 -15.5t-80 -48.5l-61 -286
q23 -24 56 -38.5t82 -14.5z" />
    <glyph glyph-name="q" unicode="q" horiz-adv-x="546" 
d="M428 -242q-49 0 -70 28.5t-8 87.5l35 165q-78 -49 -174 -49q-100 0 -145 59.5t-18 188.5q28 129 96 187.5t168 58.5q55 0 92.5 -15.5t65.5 -48.5l16 54h46l-127 -598q-8 -38 -1 -54.5t48 -16.5q8 0 19 2t19 4l-9 -46q-25 -7 -53 -7zM235 35q50 0 88.5 14.5t71.5 38.5
l61 286q-47 64 -140 64q-92 0 -142 -49.5t-72 -150.5q-22 -106 7 -154.5t126 -48.5z" />
    <glyph glyph-name="r" unicode="r" horiz-adv-x="336" 
d="M19 0l100 474h48l-8 -66q42 26 93.5 46t100.5 30l-9 -45q-30 -7 -66.5 -19t-70 -26.5t-56.5 -29.5l-77 -364h-55z" />
    <glyph glyph-name="racute" unicode="&#x155;" horiz-adv-x="343" 
d="M174 522l101 158h52l-108 -158h-45zM19 0l100 474h48l-8 -66q42 26 93.5 46t100.5 30l-9 -45q-30 -7 -66.5 -19t-70 -26.5t-56.5 -29.5l-77 -364h-55z" />
    <glyph glyph-name="rcaron" unicode="&#x159;" horiz-adv-x="341" 
d="M157 521l-75 135h47l57 -103l101 103h52l-134 -135h-48zM17 0l100 474h48l-8 -66q42 26 93.5 46t100.5 30l-9 -45q-30 -7 -66.5 -19t-70 -26.5t-56.5 -29.5l-77 -364h-55z" />
    <glyph glyph-name="uni0157" unicode="&#x157;" horiz-adv-x="342" 
d="M18 0l100 474h48l-8 -66q42 26 93.5 46t100.5 30l-9 -45q-30 -7 -66.5 -19t-70 -26.5t-56.5 -29.5l-77 -364h-55zM-52 -202l61 165h53l-73 -165h-41z" />
    <glyph glyph-name="uni1E5B" unicode="&#x1e5b;" horiz-adv-x="342" 
d="M18 0l100 474h48l-8 -66q42 26 93.5 46t100.5 30l-9 -45q-30 -7 -66.5 -19t-70 -26.5t-56.5 -29.5l-77 -364h-55zM-17 -152l12 57h59l-12 -57h-59z" />
    <glyph glyph-name="uni1E5D" unicode="&#x1e5d;" horiz-adv-x="361" 
d="M83 551l9 42h276l-9 -42h-276zM37 0l100 474h48l-8 -66q42 26 93.5 46t100.5 30l-9 -45q-30 -7 -66.5 -19t-70 -26.5t-56.5 -29.5l-77 -364h-55zM2 -152l12 57h59l-12 -57h-59z" />
    <glyph glyph-name="uni1E5F" unicode="&#x1e5f;" horiz-adv-x="341" 
d="M17 0l100 474h48l-8 -66q42 26 93.5 46t100.5 30l-9 -45q-30 -7 -66.5 -19t-70 -26.5t-56.5 -29.5l-77 -364h-55zM-107 -116l9 42h276l-9 -42h-276z" />
    <glyph glyph-name="s" unicode="s" horiz-adv-x="446" 
d="M154 -10q-42 0 -79 5.5t-62 14.5l10 49q60 -22 134 -22q70 0 104 18.5t44 64.5q7 32 -4.5 48.5t-39.5 28.5t-73 28q-37 14 -66.5 27.5t-43 38t-4.5 68.5q13 62 60.5 93.5t139.5 31.5q36 0 67.5 -4.5t55.5 -12.5l-11 -49q-54 18 -114 18q-71 0 -103.5 -17.5t-40.5 -58.5
q-6 -28 3 -43.5t34.5 -26.5t66.5 -25q50 -17 81.5 -34t43.5 -42.5t3 -68.5q-15 -70 -69 -100t-137 -30z" />
    <glyph glyph-name="sacute" unicode="&#x15b;" horiz-adv-x="446" 
d="M251 522l101 158h52l-108 -158h-45zM154 -10q-42 0 -79 5.5t-62 14.5l10 49q60 -22 134 -22q70 0 104 18.5t44 64.5q7 32 -4.5 48.5t-39.5 28.5t-73 28q-37 14 -66.5 27.5t-43 38t-4.5 68.5q13 62 60.5 93.5t139.5 31.5q36 0 67.5 -4.5t55.5 -12.5l-11 -49
q-54 18 -114 18q-71 0 -103.5 -17.5t-40.5 -58.5q-6 -28 3 -43.5t34.5 -26.5t66.5 -25q50 -17 81.5 -34t43.5 -42.5t3 -68.5q-15 -70 -69 -100t-137 -30z" />
    <glyph glyph-name="scaron" unicode="&#x161;" horiz-adv-x="446" 
d="M258 521l-75 135h47l57 -103l101 103h52l-134 -135h-48zM154 -10q-42 0 -79 5.5t-62 14.5l10 49q60 -22 134 -22q70 0 104 18.5t44 64.5q7 32 -4.5 48.5t-39.5 28.5t-73 28q-37 14 -66.5 27.5t-43 38t-4.5 68.5q13 62 60.5 93.5t139.5 31.5q36 0 67.5 -4.5t55.5 -12.5
l-11 -49q-54 18 -114 18q-71 0 -103.5 -17.5t-40.5 -58.5q-6 -28 3 -43.5t34.5 -26.5t66.5 -25q50 -17 81.5 -34t43.5 -42.5t3 -68.5q-15 -70 -69 -100t-137 -30z" />
    <glyph glyph-name="scedilla" unicode="&#x15f;" horiz-adv-x="446" 
d="M100 -240q-16 0 -34.5 2.5t-29.5 5.5l8 37q27 -8 61 -8q50 0 77.5 14t34.5 50q7 32 -13 43.5t-66 11.5h-33l40 74q-40 1 -74.5 6.5t-57.5 13.5l10 49q60 -22 134 -22q70 0 104 18.5t44 64.5q7 32 -4.5 48.5t-39.5 28.5t-73 28q-37 14 -66.5 27.5t-43 38t-4.5 68.5
q13 62 60.5 93.5t139.5 31.5q36 0 67.5 -4.5t55.5 -12.5l-11 -49q-54 18 -114 18q-71 0 -103.5 -17.5t-40.5 -58.5q-6 -28 3 -43.5t34.5 -26.5t66.5 -25q50 -17 81.5 -34t43.5 -42.5t3 -68.5q-13 -62 -58 -92.5t-114 -36.5l-22 -42q112 0 94 -88q-10 -49 -48.5 -75
t-111.5 -26z" />
    <glyph glyph-name="scircumflex" unicode="&#x15d;" horiz-adv-x="446" 
d="M159 531l133 135h48l76 -135h-48l-57 103l-101 -103h-51zM154 -10q-42 0 -79 5.5t-62 14.5l10 49q60 -22 134 -22q70 0 104 18.5t44 64.5q7 32 -4.5 48.5t-39.5 28.5t-73 28q-37 14 -66.5 27.5t-43 38t-4.5 68.5q13 62 60.5 93.5t139.5 31.5q36 0 67.5 -4.5t55.5 -12.5
l-11 -49q-54 18 -114 18q-71 0 -103.5 -17.5t-40.5 -58.5q-6 -28 3 -43.5t34.5 -26.5t66.5 -25q50 -17 81.5 -34t43.5 -42.5t3 -68.5q-15 -70 -69 -100t-137 -30z" />
    <glyph glyph-name="uni0219" unicode="&#x219;" horiz-adv-x="446" 
d="M154 -10q-42 0 -79 5.5t-62 14.5l10 49q60 -22 134 -22q70 0 104 18.5t44 64.5q7 32 -4.5 48.5t-39.5 28.5t-73 28q-37 14 -66.5 27.5t-43 38t-4.5 68.5q13 62 60.5 93.5t139.5 31.5q36 0 67.5 -4.5t55.5 -12.5l-11 -49q-54 18 -114 18q-71 0 -103.5 -17.5t-40.5 -58.5
q-6 -28 3 -43.5t34.5 -26.5t66.5 -25q50 -17 81.5 -34t43.5 -42.5t3 -68.5q-15 -70 -69 -100t-137 -30zM72 -215l60 160h53l-70 -160h-43z" />
    <glyph glyph-name="uni1E61" unicode="&#x1e61;" horiz-adv-x="446" 
d="M264 548l12 56h57l-12 -56h-57zM154 -10q-42 0 -79 5.5t-62 14.5l10 49q60 -22 134 -22q70 0 104 18.5t44 64.5q7 32 -4.5 48.5t-39.5 28.5t-73 28q-37 14 -66.5 27.5t-43 38t-4.5 68.5q13 62 60.5 93.5t139.5 31.5q36 0 67.5 -4.5t55.5 -12.5l-11 -49q-54 18 -114 18
q-71 0 -103.5 -17.5t-40.5 -58.5q-6 -28 3 -43.5t34.5 -26.5t66.5 -25q50 -17 81.5 -34t43.5 -42.5t3 -68.5q-15 -70 -69 -100t-137 -30z" />
    <glyph glyph-name="uni1E63" unicode="&#x1e63;" horiz-adv-x="446" 
d="M154 -10q-42 0 -79 5.5t-62 14.5l10 49q60 -22 134 -22q70 0 104 18.5t44 64.5q7 32 -4.5 48.5t-39.5 28.5t-73 28q-37 14 -66.5 27.5t-43 38t-4.5 68.5q13 62 60.5 93.5t139.5 31.5q36 0 67.5 -4.5t55.5 -12.5l-11 -49q-54 18 -114 18q-71 0 -103.5 -17.5t-40.5 -58.5
q-6 -28 3 -43.5t34.5 -26.5t66.5 -25q50 -17 81.5 -34t43.5 -42.5t3 -68.5q-15 -70 -69 -100t-137 -30zM117 -152l12 57h59l-12 -57h-59z" />
    <glyph glyph-name="germandbls" unicode="&#xdf;" horiz-adv-x="621" 
d="M309 -10q-40 0 -75.5 5t-63.5 17l10 48q28 -13 61.5 -18t71.5 -5q71 0 118 40t63 114q14 65 -11 104.5t-111 39.5h-87l9 44h91q68 0 105 39.5t48 93.5q9 41 0.5 72.5t-43.5 49.5t-108 18q-180 0 -218 -178l-100 -474h-55l101 478q22 103 94.5 162.5t187.5 59.5
q80 0 126.5 -25t62.5 -67.5t4 -95.5q-12 -56 -44.5 -98t-75.5 -59q50 -14 71.5 -57.5t7.5 -108.5q-21 -94 -82.5 -146.5t-157.5 -52.5z" />
    <glyph glyph-name="t" unicode="t" horiz-adv-x="346" 
d="M181 -10q-63 0 -89 35t-13 98l64 305h-74l10 46h74l27 124l58 18l-30 -142h137l-13 -46h-134l-64 -303q-11 -53 6 -71.5t67 -18.5q13 0 28 2.5t33 8.5l-9 -44q-36 -12 -78 -12z" />
    <glyph glyph-name="tbar" unicode="&#x167;" horiz-adv-x="351" 
d="M181 -10q-63 0 -89 35t-13 98l23 109h-69l9 42h69l32 154h-74l10 46h74l27 124l58 18l-30 -142h137l-13 -46h-134l-33 -154h143l-9 -42h-143l-22 -107q-10 -46 7.5 -68t67.5 -22q13 0 27 2.5t32 8.5l-9 -44q-36 -12 -78 -12z" />
    <glyph glyph-name="tcaron" unicode="&#x165;" horiz-adv-x="366" 
d="M354 560l61 165h53l-73 -165h-41zM181 -10q-63 0 -89 35t-13 98l64 305h-74l10 46h74l27 124l58 18l-30 -142h137l-13 -46h-134l-64 -303q-11 -53 6 -71.5t67 -18.5q13 0 28 2.5t33 8.5l-9 -44q-36 -12 -78 -12z" />
    <glyph glyph-name="uni0163" unicode="&#x163;" horiz-adv-x="351" 
d="M96 -240q-16 0 -34.5 2.5t-29.5 5.5l8 37q27 -8 61 -8q50 0 77.5 14t34.5 50q7 32 -13 43.5t-66 11.5h-33l42 78q-40 11 -57.5 44t-6.5 85l64 305h-74l10 46h74l27 124l58 18l-30 -142h137l-13 -46h-134l-64 -303q-11 -53 6 -71.5t67 -18.5q13 0 28 2.5t33 8.5l-9 -44
q-36 -12 -76 -12l-21 -41q112 0 94 -88q-10 -49 -48.5 -75t-111.5 -26z" />
    <glyph glyph-name="uni021B" unicode="&#x21b;" horiz-adv-x="351" 
d="M181 -10q-63 0 -89 35t-13 98l64 305h-74l10 46h74l27 124l58 18l-30 -142h137l-13 -46h-134l-64 -303q-11 -53 6 -71.5t67 -18.5q13 0 28 2.5t33 8.5l-9 -44q-36 -12 -78 -12zM83 -205l61 165h53l-73 -165h-41z" />
    <glyph glyph-name="uni1E97" unicode="&#x1e97;" horiz-adv-x="351" 
d="M112 646l11 55h57l-12 -55h-56zM278 646l12 55h56l-12 -55h-56zM181 -10q-63 0 -89 35t-13 98l64 305h-74l10 46h74l27 124l58 18l-30 -142h137l-13 -46h-134l-64 -303q-11 -53 6 -71.5t67 -18.5q13 0 28 2.5t33 8.5l-9 -44q-36 -12 -78 -12z" />
    <glyph glyph-name="uni1E6D" unicode="&#x1e6d;" horiz-adv-x="351" 
d="M181 -10q-63 0 -89 35t-13 98l64 305h-74l10 46h74l27 124l58 18l-30 -142h137l-13 -46h-134l-64 -303q-11 -53 6 -71.5t67 -18.5q13 0 28 2.5t33 8.5l-9 -44q-36 -12 -78 -12zM112 -150l12 57h59l-12 -57h-59z" />
    <glyph glyph-name="uni1E6F" unicode="&#x1e6f;" horiz-adv-x="350" 
d="M181 -10q-63 0 -89 35t-13 98l64 305h-74l10 46h74l27 124l58 18l-30 -142h137l-13 -46h-134l-64 -303q-11 -53 6 -71.5t67 -18.5q13 0 28 2.5t33 8.5l-9 -44q-36 -12 -78 -12zM-15 -114l9 42h276l-9 -42h-276z" />
    <glyph glyph-name="u" unicode="u" horiz-adv-x="560" 
d="M184 -10q-82 0 -117.5 48t-16.5 136l64 300h55l-64 -302q-16 -73 10 -105t102 -32q50 0 95.5 19.5t82.5 49.5l78 370h55l-100 -474h-49l7 58q-42 -31 -91 -49.5t-111 -18.5z" />
    <glyph glyph-name="uacute" unicode="&#xfa;" horiz-adv-x="560" 
d="M297 522l101 158h52l-108 -158h-45zM184 -10q-82 0 -117.5 48t-16.5 136l64 300h55l-64 -302q-16 -73 10 -105t102 -32q50 0 95.5 19.5t82.5 49.5l78 370h55l-100 -474h-49l7 58q-42 -31 -91 -49.5t-111 -18.5z" />
    <glyph glyph-name="ubreve" unicode="&#x16d;" horiz-adv-x="560" 
d="M334 521q-51 0 -74 31.5t-13 79.5h40q-7 -34 5 -53t48 -19q32 0 55.5 19t30.5 53h44q-10 -48 -45.5 -79.5t-90.5 -31.5zM184 -10q-82 0 -117.5 48t-16.5 136l64 300h55l-64 -302q-16 -73 10 -105t102 -32q50 0 95.5 19.5t82.5 49.5l78 370h55l-100 -474h-49l7 58
q-42 -31 -91 -49.5t-111 -18.5z" />
    <glyph glyph-name="uni01D4" unicode="&#x1d4;" horiz-adv-x="560" 
d="M308 521l-75 135h47l57 -103l101 103h52l-134 -135h-48zM184 -10q-82 0 -117.5 48t-16.5 136l64 300h55l-64 -302q-16 -73 10 -105t102 -32q50 0 95.5 19.5t82.5 49.5l78 370h55l-100 -474h-49l7 58q-42 -31 -91 -49.5t-111 -18.5z" />
    <glyph glyph-name="ucircumflex" unicode="&#xfb;" horiz-adv-x="560" 
d="M202 521l133 135h48l76 -135h-48l-57 103l-101 -103h-51zM184 -10q-82 0 -117.5 48t-16.5 136l64 300h55l-64 -302q-16 -73 10 -105t102 -32q50 0 95.5 19.5t82.5 49.5l78 370h55l-100 -474h-49l7 58q-42 -31 -91 -49.5t-111 -18.5z" />
    <glyph glyph-name="udieresis" unicode="&#xfc;" horiz-adv-x="560" 
d="M222 546l11 55h57l-12 -55h-56zM388 546l12 55h56l-12 -55h-56zM184 -10q-82 0 -117.5 48t-16.5 136l64 300h55l-64 -302q-16 -73 10 -105t102 -32q50 0 95.5 19.5t82.5 49.5l78 370h55l-100 -474h-49l7 58q-42 -31 -91 -49.5t-111 -18.5z" />
    <glyph glyph-name="uni01D8" unicode="&#x1d8;" horiz-adv-x="560" 
d="M323 598l85 117h50l-90 -117h-45zM214 521l12 55h57l-12 -55h-57zM391 521l12 55h55l-12 -55h-55zM184 -10q-82 0 -117.5 48t-16.5 136l64 300h55l-64 -302q-16 -73 10 -105t102 -32q50 0 95.5 19.5t82.5 49.5l78 370h55l-100 -474h-49l7 58q-42 -31 -91 -49.5
t-111 -18.5z" />
    <glyph glyph-name="uni01DA" unicode="&#x1da;" horiz-adv-x="560" 
d="M324 598l-79 110h49l60 -85l95 85h49l-126 -110h-48zM213 521l12 55h57l-12 -55h-57zM390 521l12 55h55l-12 -55h-55zM184 -10q-82 0 -117.5 48t-16.5 136l64 300h55l-64 -302q-16 -73 10 -105t102 -32q50 0 95.5 19.5t82.5 49.5l78 370h55l-100 -474h-49l7 58
q-42 -31 -91 -49.5t-111 -18.5z" />
    <glyph glyph-name="uni01DC" unicode="&#x1dc;" horiz-adv-x="560" 
d="M328 598l-41 117h51l35 -117h-45zM217 521l12 55h56l-12 -55h-56zM393 521l12 55h56l-12 -55h-56zM184 -10q-82 0 -117.5 48t-16.5 136l64 300h55l-64 -302q-16 -73 10 -105t102 -32q50 0 95.5 19.5t82.5 49.5l78 370h55l-100 -474h-49l7 58q-42 -31 -91 -49.5
t-111 -18.5z" />
    <glyph glyph-name="uni01D6" unicode="&#x1d6;" horiz-adv-x="560" 
d="M236 666l9 42h276l-9 -42h-276zM230 545l11 55h57l-12 -55h-56zM396 545l12 55h56l-12 -55h-56zM184 -10q-82 0 -117.5 48t-16.5 136l64 300h55l-64 -302q-16 -73 10 -105t102 -32q50 0 95.5 19.5t82.5 49.5l78 370h55l-100 -474h-49l7 58q-42 -31 -91 -49.5t-111 -18.5z
" />
    <glyph glyph-name="uni1EE5" unicode="&#x1ee5;" horiz-adv-x="560" 
d="M184 -10q-82 0 -117.5 48t-16.5 136l64 300h55l-64 -302q-16 -73 10 -105t102 -32q50 0 95.5 19.5t82.5 49.5l78 370h55l-100 -474h-49l7 58q-42 -31 -91 -49.5t-111 -18.5zM152 -152l12 57h59l-12 -57h-59z" />
    <glyph glyph-name="ugrave" unicode="&#xf9;" horiz-adv-x="560" 
d="M316 522l-40 158h52l33 -158h-45zM184 -10q-82 0 -117.5 48t-16.5 136l64 300h55l-64 -302q-16 -73 10 -105t102 -32q50 0 95.5 19.5t82.5 49.5l78 370h55l-100 -474h-49l7 58q-42 -31 -91 -49.5t-111 -18.5z" />
    <glyph glyph-name="uni1EE7" unicode="&#x1ee7;" horiz-adv-x="560" 
d="M305 522l17 79q41 2 62 8.5t30.5 19t13.5 31.5q6 27 -10.5 40t-60.5 13q-16 0 -36 -3.5t-34 -8.5l8 38q15 5 38.5 8.5t41.5 3.5q57 0 81.5 -23t15.5 -65q-8 -40 -32 -62t-77 -27l-11 -52h-47zM184 -10q-82 0 -117.5 48t-16.5 136l64 300h55l-64 -302q-16 -73 10 -105
t102 -32q50 0 95.5 19.5t82.5 49.5l78 370h55l-100 -474h-49l7 58q-42 -31 -91 -49.5t-111 -18.5z" />
    <glyph glyph-name="uhorn" unicode="&#x1b0;" horiz-adv-x="659" 
d="M184 -10q-82 0 -117.5 48t-16.5 136l64 300h55l-64 -302q-16 -73 10 -105t102 -32q50 0 95.5 19.5t82.5 49.5l78 370h55l-14 -63q53 3 79 31t40 94h48q-19 -88 -63.5 -126.5t-112.5 -41.5l-77 -368h-49l7 58q-42 -31 -91 -49.5t-111 -18.5z" />
    <glyph glyph-name="uni1EE9" unicode="&#x1ee9;" horiz-adv-x="659" 
d="M318 522l101 158h52l-108 -158h-45zM184 -10q-82 0 -117.5 48t-16.5 136l64 300h55l-64 -302q-16 -73 10 -105t102 -32q50 0 95.5 19.5t82.5 49.5l78 370h55l-14 -63q53 3 79 31t40 94h48q-19 -88 -63.5 -126.5t-112.5 -41.5l-77 -368h-49l7 58q-42 -31 -91 -49.5
t-111 -18.5z" />
    <glyph glyph-name="uni1EF1" unicode="&#x1ef1;" horiz-adv-x="659" 
d="M184 -10q-82 0 -117.5 48t-16.5 136l64 300h55l-64 -302q-16 -73 10 -105t102 -32q50 0 95.5 19.5t82.5 49.5l78 370h55l-14 -63q53 3 79 31t40 94h48q-19 -88 -63.5 -126.5t-112.5 -41.5l-77 -368h-49l7 58q-42 -31 -91 -49.5t-111 -18.5zM158 -152l12 57h59l-12 -57
h-59z" />
    <glyph glyph-name="uni1EEB" unicode="&#x1eeb;" horiz-adv-x="659" 
d="M325 522l-40 158h52l33 -158h-45zM184 -10q-82 0 -117.5 48t-16.5 136l64 300h55l-64 -302q-16 -73 10 -105t102 -32q50 0 95.5 19.5t82.5 49.5l78 370h55l-14 -63q53 3 79 31t40 94h48q-19 -88 -63.5 -126.5t-112.5 -41.5l-77 -368h-49l7 58q-42 -31 -91 -49.5
t-111 -18.5z" />
    <glyph glyph-name="uni1EED" unicode="&#x1eed;" horiz-adv-x="659" 
d="M314 522l17 79q41 2 62 8.5t30.5 19t13.5 31.5q6 27 -10.5 40t-60.5 13q-16 0 -36 -3.5t-34 -8.5l8 38q15 5 38.5 8.5t41.5 3.5q57 0 81.5 -23t15.5 -65q-8 -40 -32 -62t-77 -27l-11 -52h-47zM184 -10q-82 0 -117.5 48t-16.5 136l64 300h55l-64 -302q-16 -73 10 -105
t102 -32q50 0 95.5 19.5t82.5 49.5l78 370h55l-14 -63q53 3 79 31t40 94h48q-19 -88 -63.5 -126.5t-112.5 -41.5l-77 -368h-49l7 58q-42 -31 -91 -49.5t-111 -18.5z" />
    <glyph glyph-name="uni1EEF" unicode="&#x1eef;" horiz-adv-x="659" 
d="M419 546q-24 0 -45 9.5t-40.5 18.5t-39.5 9q-22 0 -44 -7.5t-42 -27.5l10 47q14 14 38 21.5t46 7.5q26 0 45 -9t37.5 -18.5t41.5 -9.5q48 0 80 35l-10 -47q-26 -29 -77 -29zM184 -10q-82 0 -117.5 48t-16.5 136l64 300h55l-64 -302q-16 -73 10 -105t102 -32
q50 0 95.5 19.5t82.5 49.5l78 370h55l-14 -63q53 3 79 31t40 94h48q-19 -88 -63.5 -126.5t-112.5 -41.5l-77 -368h-49l7 58q-42 -31 -91 -49.5t-111 -18.5z" />
    <glyph glyph-name="uhungarumlaut" unicode="&#x171;" horiz-adv-x="560" 
d="M185 521l96 141h54l-105 -141h-45zM383 521l97 141h54l-106 -141h-45zM184 -10q-82 0 -117.5 48t-16.5 136l64 300h55l-64 -302q-16 -73 10 -105t102 -32q50 0 95.5 19.5t82.5 49.5l78 370h55l-100 -474h-49l7 58q-42 -31 -91 -49.5t-111 -18.5z" />
    <glyph glyph-name="umacron" unicode="&#x16b;" horiz-adv-x="560" 
d="M201 553l9 42h276l-9 -42h-276zM184 -10q-82 0 -117.5 48t-16.5 136l64 300h55l-64 -302q-16 -73 10 -105t102 -32q50 0 95.5 19.5t82.5 49.5l78 370h55l-100 -474h-49l7 58q-42 -31 -91 -49.5t-111 -18.5z" />
    <glyph glyph-name="uogonek" unicode="&#x173;" horiz-adv-x="560" 
d="M352 -220q-38 0 -60.5 19.5t-12.5 66.5q8 41 37 76.5t63 57.5l7 58q-42 -31 -91 -49.5t-111 -18.5q-82 0 -117.5 48t-16.5 136l64 300h55l-64 -302q-16 -73 10 -105t102 -32q50 0 95.5 19.5t82.5 49.5l78 370h55l-100 -474q-43 -28 -68 -61t-33 -67q-6 -28 4 -39.5
t38 -11.5q13 0 27.5 3t24.5 8l-9 -41q-13 -6 -29.5 -8.5t-30.5 -2.5z" />
    <glyph glyph-name="uring" unicode="&#x16f;" horiz-adv-x="560" 
d="M336 521q-44 0 -67 29.5t-14 71.5q9 43 42 72.5t82 29.5q45 0 67.5 -29.5t13.5 -72.5q-9 -42 -42 -71.5t-82 -29.5zM343 557q29 0 51.5 18.5t28.5 46.5q6 29 -6 47.5t-46 18.5q-28 0 -51 -18.5t-29 -47.5q-6 -28 6.5 -46.5t45.5 -18.5zM184 -10q-82 0 -117.5 48
t-16.5 136l64 300h55l-64 -302q-16 -73 10 -105t102 -32q50 0 95.5 19.5t82.5 49.5l78 370h55l-100 -474h-49l7 58q-42 -31 -91 -49.5t-111 -18.5z" />
    <glyph glyph-name="utilde" unicode="&#x169;" horiz-adv-x="560" 
d="M411 547q-24 0 -45 9.5t-40.5 18.5t-39.5 9q-22 0 -44 -7.5t-42 -27.5l10 47q14 14 38 21.5t46 7.5q26 0 45 -9t37.5 -18.5t41.5 -9.5q48 0 80 35l-10 -47q-26 -29 -77 -29zM184 -10q-82 0 -117.5 48t-16.5 136l64 300h55l-64 -302q-16 -73 10 -105t102 -32
q50 0 95.5 19.5t82.5 49.5l78 370h55l-100 -474h-49l7 58q-42 -31 -91 -49.5t-111 -18.5z" />
    <glyph glyph-name="v" unicode="v" horiz-adv-x="546" 
d="M184 0l-85 474h54l70 -428l253 428h59l-285 -474h-66z" />
    <glyph glyph-name="w" unicode="w" horiz-adv-x="719" 
d="M122 0l-23 474h55l15 -418l197 366l11 52h43l41 -418l192 418h55l-223 -474h-56l-41 377l-203 -377h-63z" />
    <glyph glyph-name="wacute" unicode="&#x1e83;" horiz-adv-x="719" 
d="M388 522l101 158h52l-108 -158h-45zM122 0l-23 474h55l15 -418l197 366l11 52h43l41 -418l192 418h55l-223 -474h-56l-41 377l-203 -377h-63z" />
    <glyph glyph-name="wcircumflex" unicode="&#x175;" horiz-adv-x="719" 
d="M287 521l133 135h48l76 -135h-48l-57 103l-101 -103h-51zM122 0l-23 474h55l15 -418l197 366l11 52h43l41 -418l192 418h55l-223 -474h-56l-41 377l-203 -377h-63z" />
    <glyph glyph-name="wdieresis" unicode="&#x1e85;" horiz-adv-x="719" 
d="M309 546l11 55h57l-12 -55h-56zM475 546l12 55h56l-12 -55h-56zM122 0l-23 474h55l15 -418l197 366l11 52h43l41 -418l192 418h55l-223 -474h-56l-41 377l-203 -377h-63z" />
    <glyph glyph-name="wgrave" unicode="&#x1e81;" horiz-adv-x="719" 
d="M385 522l-40 158h52l33 -158h-45zM122 0l-23 474h55l15 -418l197 366l11 52h43l41 -418l192 418h55l-223 -474h-56l-41 377l-203 -377h-63z" />
    <glyph glyph-name="x" unicode="x" horiz-adv-x="508" 
d="M-12 0l230 241l-125 233h60l102 -195l185 195h59l-220 -233l127 -241h-60l-107 204l-192 -204h-59z" />
    <glyph glyph-name="y" unicode="y" horiz-adv-x="560" 
d="M161 -176q-25 0 -59.5 3t-52.5 7l10 48q21 -7 52 -9.5t50 -2.5q78 0 137.5 30.5t73.5 91.5l14 66q-42 -31 -91 -49.5t-111 -18.5q-82 0 -117.5 48t-16.5 136l64 300h55l-64 -302q-16 -73 9.5 -105t102.5 -32q50 0 95.5 19.5t82.5 49.5l78 370h55l-101 -477
q-11 -53 -50.5 -92t-96 -60t-119.5 -21z" />
    <glyph glyph-name="yacute" unicode="&#xfd;" horiz-adv-x="566" 
d="M329 522l101 158h52l-108 -158h-45zM177 -176q-25 0 -59.5 3t-52.5 7l10 48q21 -7 52 -9.5t50 -2.5q78 0 137.5 30.5t73.5 91.5l14 66q-42 -31 -91 -49.5t-111 -18.5q-82 0 -117.5 48t-16.5 136l64 300h55l-64 -302q-16 -73 9.5 -105t102.5 -32q50 0 95.5 19.5t82.5 49.5
l78 370h55l-101 -477q-11 -53 -50.5 -92t-96 -60t-119.5 -21z" />
    <glyph glyph-name="ycircumflex" unicode="&#x177;" horiz-adv-x="566" 
d="M235 521l133 135h48l76 -135h-48l-57 103l-101 -103h-51zM177 -176q-25 0 -59.5 3t-52.5 7l10 48q21 -7 52 -9.5t50 -2.5q78 0 137.5 30.5t73.5 91.5l14 66q-42 -31 -91 -49.5t-111 -18.5q-82 0 -117.5 48t-16.5 136l64 300h55l-64 -302q-16 -73 9.5 -105t102.5 -32
q50 0 95.5 19.5t82.5 49.5l78 370h55l-101 -477q-11 -53 -50.5 -92t-96 -60t-119.5 -21z" />
    <glyph glyph-name="ydieresis" unicode="&#xff;" horiz-adv-x="566" 
d="M261 551l11 55h57l-12 -55h-56zM427 551l12 55h56l-12 -55h-56zM177 -176q-25 0 -59.5 3t-52.5 7l10 48q21 -7 52 -9.5t50 -2.5q78 0 137.5 30.5t73.5 91.5l14 66q-42 -31 -91 -49.5t-111 -18.5q-82 0 -117.5 48t-16.5 136l64 300h55l-64 -302q-16 -73 9.5 -105
t102.5 -32q50 0 95.5 19.5t82.5 49.5l78 370h55l-101 -477q-11 -53 -50.5 -92t-96 -60t-119.5 -21z" />
    <glyph glyph-name="uni1E8F" unicode="&#x1e8f;" horiz-adv-x="566" 
d="M338 548l12 56h57l-12 -56h-57zM177 -176q-25 0 -59.5 3t-52.5 7l10 48q21 -7 52 -9.5t50 -2.5q78 0 137.5 30.5t73.5 91.5l14 66q-42 -31 -91 -49.5t-111 -18.5q-82 0 -117.5 48t-16.5 136l64 300h55l-64 -302q-16 -73 9.5 -105t102.5 -32q50 0 95.5 19.5t82.5 49.5
l78 370h55l-101 -477q-11 -53 -50.5 -92t-96 -60t-119.5 -21z" />
    <glyph glyph-name="uni1EF5" unicode="&#x1ef5;" horiz-adv-x="566" 
d="M177 -176q-25 0 -59.5 3t-52.5 7l10 48q21 -7 52 -9.5t50 -2.5q78 0 137.5 30.5t73.5 91.5l14 66q-42 -31 -91 -49.5t-111 -18.5q-82 0 -117.5 48t-16.5 136l64 300h55l-64 -302q-16 -73 9.5 -105t102.5 -32q50 0 95.5 19.5t82.5 49.5l78 370h55l-101 -477
q-11 -53 -50.5 -92t-96 -60t-119.5 -21zM438 -135l12 57h59l-12 -57h-59z" />
    <glyph glyph-name="ygrave" unicode="&#x1ef3;" horiz-adv-x="566" 
d="M347 522l-40 158h52l33 -158h-45zM177 -176q-25 0 -59.5 3t-52.5 7l10 48q21 -7 52 -9.5t50 -2.5q78 0 137.5 30.5t73.5 91.5l14 66q-42 -31 -91 -49.5t-111 -18.5q-82 0 -117.5 48t-16.5 136l64 300h55l-64 -302q-16 -73 9.5 -105t102.5 -32q50 0 95.5 19.5t82.5 49.5
l78 370h55l-101 -477q-11 -53 -50.5 -92t-96 -60t-119.5 -21z" />
    <glyph glyph-name="uni1EF7" unicode="&#x1ef7;" horiz-adv-x="566" 
d="M339 522l17 79q41 2 62 8.5t30.5 19t13.5 31.5q6 27 -10.5 40t-60.5 13q-16 0 -36 -3.5t-34 -8.5l8 38q15 5 38.5 8.5t41.5 3.5q57 0 81.5 -23t15.5 -65q-8 -40 -32 -62t-77 -27l-11 -52h-47zM177 -176q-25 0 -59.5 3t-52.5 7l10 48q21 -7 52 -9.5t50 -2.5
q78 0 137.5 30.5t73.5 91.5l14 66q-42 -31 -91 -49.5t-111 -18.5q-82 0 -117.5 48t-16.5 136l64 300h55l-64 -302q-16 -73 9.5 -105t102.5 -32q50 0 95.5 19.5t82.5 49.5l78 370h55l-101 -477q-11 -53 -50.5 -92t-96 -60t-119.5 -21z" />
    <glyph glyph-name="uni1EF9" unicode="&#x1ef9;" horiz-adv-x="566" 
d="M437 547q-24 0 -45 9.5t-40.5 18.5t-39.5 9q-22 0 -44 -7.5t-42 -27.5l10 47q14 14 38 21.5t46 7.5q26 0 45 -9t37.5 -18.5t41.5 -9.5q48 0 80 35l-10 -47q-26 -29 -77 -29zM177 -176q-25 0 -59.5 3t-52.5 7l10 48q21 -7 52 -9.5t50 -2.5q78 0 137.5 30.5t73.5 91.5
l14 66q-42 -31 -91 -49.5t-111 -18.5q-82 0 -117.5 48t-16.5 136l64 300h55l-64 -302q-16 -73 9.5 -105t102.5 -32q50 0 95.5 19.5t82.5 49.5l78 370h55l-101 -477q-11 -53 -50.5 -92t-96 -60t-119.5 -21z" />
    <glyph glyph-name="z" unicode="z" horiz-adv-x="479" 
d="M-2 0l7 34l381 394h-284l10 46h349l-8 -38l-379 -391h302l-9 -45h-369z" />
    <glyph glyph-name="zacute" unicode="&#x17a;" horiz-adv-x="479" 
d="M277 522l101 158h52l-108 -158h-45zM-2 0l7 34l381 394h-284l10 46h349l-8 -38l-379 -391h302l-9 -45h-369z" />
    <glyph glyph-name="zcaron" unicode="&#x17e;" horiz-adv-x="479" 
d="M264 521l-75 135h47l57 -103l101 103h52l-134 -135h-48zM-2 0l7 34l381 394h-284l10 46h349l-8 -38l-379 -391h302l-9 -45h-369z" />
    <glyph glyph-name="zdotaccent" unicode="&#x17c;" horiz-adv-x="479" 
d="M277 548l12 56h57l-12 -56h-57zM-2 0l7 34l381 394h-284l10 46h349l-8 -38l-379 -391h302l-9 -45h-369z" />
    <glyph glyph-name="uni1E93" unicode="&#x1e93;" horiz-adv-x="479" 
d="M-2 0l7 34l381 394h-284l10 46h349l-8 -38l-379 -391h302l-9 -45h-369zM128 -152l12 57h59l-12 -57h-59z" />
    <glyph glyph-name="ordfeminine" unicode="&#xaa;" horiz-adv-x="349" 
d="M174 380q-39 0 -63 18t-16 58q18 84 121 84h94l4 17q7 33 -4.5 47.5t-64.5 14.5q-42 0 -84 -14l8 35q18 6 43 10t50 4q50 0 77 -22.5t16 -72.5l-36 -173h-37l3 32q-45 -38 -111 -38zM191 412q31 0 55 10t46 32l11 54h-91q-37 0 -54 -11.5t-23 -39.5q-5 -25 8 -35t48 -10z
" />
    <glyph glyph-name="ordmasculine" unicode="&#xba;" horiz-adv-x="363" 
d="M205 380q-126 0 -97 137q14 67 51.5 102t104.5 35q64 0 87.5 -35t9.5 -102t-51 -102t-105 -35zM212 414q48 0 73 26.5t35 76.5q11 50 -1 76t-63 26q-47 0 -72 -26t-36 -76q-10 -50 1 -76.5t63 -26.5z" />
    <glyph glyph-name="uni207F" unicode="&#x207f;" horiz-adv-x="364" 
d="M86 386l55 262h38l-5 -32q25 17 52.5 27t63.5 10q47 0 69 -22.5t12 -70.5l-37 -174h-41l34 163q8 39 -3.5 54.5t-54.5 15.5q-28 0 -54 -11t-47 -28l-41 -194h-41z" />
    <glyph glyph-name="uni0394" unicode="&#x394;" horiz-adv-x="655" 
d="M-2 0l7 34l369 610h64l112 -611l-7 -33h-545zM65 44h432l-99 550z" />
    <glyph glyph-name="uni03A9" unicode="&#x3a9;" horiz-adv-x="771" 
d="M6 0l9 44h176q-69 47 -104 126.5t-12 191.5q20 94 73 169t136 119.5t193 44.5q103 0 167.5 -44.5t88 -119.5t3.5 -169q-23 -112 -91.5 -191.5t-157.5 -126.5h175l-9 -44h-252l9 44q114 55 182.5 135.5t89.5 182.5q18 83 0.5 147.5t-71.5 101t-144 36.5q-82 0 -152 -36.5
t-119 -101t-67 -147.5q-21 -102 13 -182.5t125 -135.5l-9 -44h-252z" />
    <glyph glyph-name="uni03BC" unicode="&#x3bc;" horiz-adv-x="565" 
d="M-12 -143l131 617h55l-64 -302q-14 -68 10 -102.5t102 -34.5q50 0 95.5 19.5t82.5 49.5l78 370h55l-100 -474h-49l7 58q-42 -31 -91 -49.5t-111 -18.5q-38 0 -65.5 13t-41.5 35l-39 -181h-55z" />
    <glyph glyph-name="pi" unicode="&#x3c0;" horiz-adv-x="659" 
d="M478 -10q-61 0 -84 36.5t-10 98.5l65 304h-245l-91 -429h-55l91 429h-69l9 45h494l-9 -45h-70l-65 -304q-10 -49 1.5 -68.5t56.5 -19.5q35 0 69 10l-9 -45q-36 -12 -79 -12z" />
    <glyph glyph-name="uni0E01" unicode="&#xe01;" horiz-adv-x="600" 
d="M50 0l51 243q8 39 35 68t71 41l-112 26l17 80q43 35 110.5 63.5t152.5 28.5q114 0 159.5 -50t25.5 -147l-75 -353h-55l75 356q17 81 -13 113.5t-127 32.5q-62 0 -118 -19t-90 -48l-6 -28l114 -26l-10 -48q-40 -9 -65.5 -30.5t-33.5 -62.5l-51 -240h-55z" />
    <glyph glyph-name="uni0E02" unicode="&#xe02;" horiz-adv-x="556" 
d="M229 -10q-99 0 -142.5 49.5t-24.5 138.5l20 92q6 28 26.5 55t45 52.5t44 47.5t23.5 40t-1 24t-25 6h-75l14 45h96q32 0 43.5 -17t5.5 -46q-6 -28 -26.5 -54.5t-45 -51.5t-45 -51t-26.5 -55l-21 -96q-16 -74 16 -103t108 -29q71 0 119 31t64 102l78 370h55l-77 -362
q-39 -188 -249 -188z" />
    <glyph glyph-name="uni0E03" unicode="&#xe03;" horiz-adv-x="543" 
d="M224 -10q-200 0 -160 186l17 80q6 28 29.5 56.5t51.5 56t51 52.5t27 46q6 29 -22 29q-14 0 -29 -6.5t-29 -17.5l-8 -38h-45l22 106h45l-6 -28q14 11 33 19.5t43 8.5q29 0 43 -17t7 -48q-6 -30 -29 -58.5t-51 -56t-50.5 -54.5t-28.5 -54l-18 -83q-16 -77 13 -104.5
t104 -27.5q68 0 113.5 31t61.5 102l78 370h55l-77 -362q-19 -93 -78.5 -140.5t-162.5 -47.5z" />
    <glyph glyph-name="uni0E04" unicode="&#xe04;" horiz-adv-x="594" 
d="M35 0l76 358q21 99 84.5 145.5t178.5 46.5q114 0 157.5 -48.5t23.5 -143.5l-76 -358h-55l77 366q16 75 -17 105.5t-120 30.5q-79 0 -130 -32t-67 -104l-29 -139q65 45 136 45h67l-6 -46h-71q-37 0 -70 -11t-66 -34l-38 -181h-55z" />
    <glyph glyph-name="uni0E05" unicode="&#xe05;" horiz-adv-x="594" 
d="M35 0l88 416q14 68 56 101t92 33q31 0 53 -11.5t36 -40.5q23 29 58 40.5t66 11.5q59 0 78 -33t5 -102l-88 -415h-55l89 421q8 39 -1 60t-47 21q-54 0 -96 -50h-33q-17 50 -62 50q-44 0 -65.5 -21t-29.5 -61l-41 -193q65 45 136 45h67l-6 -46h-71q-37 0 -70 -11t-66 -34
l-38 -181h-55z" />
    <glyph glyph-name="uni0E06" unicode="&#xe06;" horiz-adv-x="577" 
d="M280 -10q-70 0 -112.5 22.5t-72.5 58.5l-20 -71h-48l51 244q6 29 30 59t53 60t52 56.5t27 47.5q6 29 -22 29q-14 0 -29 -6.5t-29 -17.5l-8 -38h-45l22 106h45l-6 -28q14 11 33 19.5t43 8.5q29 0 42.5 -17t7.5 -48t-29 -61t-51.5 -59t-51.5 -57.5t-29 -57.5l-26 -119
q28 -37 67.5 -60.5t97.5 -23.5q78 0 117.5 34.5t55.5 107.5l76 361h55l-76 -358q-41 -192 -220 -192z" />
    <glyph glyph-name="uni0E07" unicode="&#xe07;" horiz-adv-x="559" 
d="M240 -10q-16 0 -38 1.5t-36 7.5l-73 370h54l66 -332q201 -18 258 252q16 75 12.5 120t-32.5 64.5t-90 19.5h-32l10 47h36q108 0 142.5 -61t7.5 -189q-22 -107 -64 -173t-98 -96.5t-123 -30.5z" />
    <glyph glyph-name="uni0E08" unicode="&#xe08;" horiz-adv-x="555" 
d="M224 -10q-15 0 -32 2.5t-28 6.5l-39 240h-60l13 47h93l40 -249q49 -6 100 15.5t92.5 76.5t60.5 148q17 80 9 129.5t-48 72.5t-120 23q-41 0 -89.5 -5.5t-91.5 -19.5l10 47q39 12 88 19t101 7q134 0 179 -71t16 -202q-30 -142 -109.5 -214.5t-184.5 -72.5z" />
    <glyph glyph-name="uni0E09" unicode="&#xe09;" horiz-adv-x="564" 
d="M189 -10q-80 0 -114.5 47.5t-14.5 141.5l25 121h55l-26 -124q-16 -79 6 -109t98 -30q57 0 107.5 23.5t93.5 60.5l50 232q13 57 2.5 89.5t-49 46t-111.5 13.5q-42 0 -97 -7.5t-99 -21.5l10 47q41 13 98.5 21.5t112.5 8.5q116 0 162.5 -48t25.5 -149l-75 -353h-48l10 71
q-46 -36 -98.5 -58.5t-123.5 -22.5z" />
    <glyph glyph-name="uni0E0A" unicode="&#xe0a;" horiz-adv-x="561" 
d="M232 -10q-100 0 -144.5 47.5t-25.5 140.5l20 92q6 29 27 56t45.5 52t43.5 47t23 40t-1 24t-25 6h-75l14 45h96q32 0 43.5 -17t5.5 -46q-6 -28 -26.5 -54.5t-45 -51.5t-45 -51t-26.5 -55l-21 -96q-16 -73 16 -102.5t111 -29.5q71 0 120 31t65 102l15 71q14 65 -2 89.5
t-72 24.5h-28l14 45h24q60 0 85 28.5t36 83.5l8 38h55l-8 -40q-11 -50 -32 -85.5t-74 -49.5q45 -17 52 -52t-4 -85l-13 -60q-19 -93 -83 -140.5t-168 -47.5z" />
    <glyph glyph-name="uni0E0B" unicode="&#xe0b;" horiz-adv-x="561" 
d="M232 -10q-100 0 -144.5 47.5t-25.5 140.5l17 78q6 28 29.5 56.5t52.5 56t52 52.5t27 46q6 29 -22 29q-14 0 -29 -6.5t-29 -17.5l-8 -38h-45l22 106h45l-6 -28q14 11 33 19.5t43 8.5q29 0 43 -17t7 -48q-6 -30 -29 -57.5t-51 -54.5t-51.5 -54.5t-29.5 -56.5l-18 -83
q-16 -73 16 -102.5t111 -29.5q71 0 120 31t65 102l15 71q14 65 -2 89.5t-72 24.5h-28l14 45h24q60 0 85 28.5t36 83.5l8 38h55l-8 -40q-11 -50 -32 -85.5t-74 -49.5q45 -17 52 -52t-4 -85l-13 -60q-19 -93 -83 -140.5t-168 -47.5z" />
    <glyph glyph-name="uni0E0C" unicode="&#xe0c;" horiz-adv-x="951" 
d="M661 -10q-67 0 -106.5 22.5t-69.5 58.5l-20 -71h-48l75 356q17 83 -13.5 114.5t-119.5 31.5q-61 0 -114.5 -19t-87.5 -48l-6 -28l114 -26l-10 -48q-40 -9 -65.5 -31t-33.5 -62l-30 -139q-7 -32 1.5 -43.5t35.5 -11.5h62l-9 -46h-80q-41 0 -58 25.5t-9 65.5l32 152
q8 39 35 68t71 41l-112 26l17 80q43 35 108.5 63.5t149.5 28.5q111 0 153.5 -50t22.5 -147l-50 -232q28 -37 65 -60.5t92 -23.5q71 0 110.5 34.5t55.5 107.5l76 361h55l-76 -358q-21 -97 -75.5 -144.5t-137.5 -47.5z" />
    <glyph glyph-name="uni0E0D" unicode="&#xe0d;" horiz-adv-x="962" 
d="M620 -50q-55 0 -101.5 11.5t-79.5 29.5l10 49q34 -22 84.5 -32.5t96.5 -10.5q87 0 130 20.5t50 56.5q8 34 -11 50q-29 -19 -65.5 -29t-84.5 -10q-106 0 -150.5 52t-22.5 155l13 64q17 81 -10.5 113.5t-119.5 32.5q-61 0 -114.5 -19t-87.5 -48l-6 -28l114 -26l-10 -48
q-40 -9 -65.5 -31t-33.5 -62l-30 -139q-7 -31 1.5 -43t36.5 -12h61l-9 -46h-80q-40 0 -58 25t-9 66l32 152q8 39 35 68t71 41l-112 26l17 80q43 35 108.5 63.5t149.5 28.5q113 0 153.5 -50t20.5 -147l-15 -68q-18 -82 13 -117.5t117 -35.5q79 0 128 38.5t65 114.5l54 255h55
l-52 -248q-10 -46 -26.5 -77.5t-40.5 -56.5q32 -28 20 -84q-12 -58 -69 -91t-173 -33z" />
    <glyph glyph-name="uni0E0D.less" horiz-adv-x="962" 
d="M628 -10q-111 0 -153 52t-20 155l34 159q12 54 4.5 86t-39.5 46t-95 14q-61 0 -114.5 -19t-87.5 -48l-6 -28l114 -26l-10 -48q-40 -9 -65.5 -31t-33.5 -62l-30 -139q-6 -28 1 -41.5t39 -13.5h59l-9 -46h-80q-41 0 -58.5 25t-8.5 66l32 152q8 39 35 68t71 41l-112 26
l17 80q43 35 108.5 63.5t149.5 28.5q115 0 154.5 -50t19.5 -147l-35 -163q-18 -85 11.5 -119t117.5 -34q82 0 129.5 37t64.5 116l74 350h55l-73 -343q-22 -103 -83.5 -155t-176.5 -52z" />
    <glyph glyph-name="uni0E0E" unicode="&#xe0e;" horiz-adv-x="641" 
d="M101 -195l10 48q90 39 181 39q50 0 86.5 -10t61.5 -27l106 501q17 81 -15.5 113.5t-124.5 32.5q-62 0 -119 -19t-92 -48l-6 -28l117 -26l-10 -48q-40 -10 -58 -30.5t-27 -62.5l-31 -142q-10 -47 -37.5 -72.5t-71.5 -25.5h-56l9 46h43q47 0 59 54l30 143q8 39 29 67.5
t63 41.5l-115 26l17 80q43 35 112 63.5t154 28.5q114 0 159.5 -50t25.5 -147l-117 -547h-53q-32 20 -67 29.5t-85 9.5q-46 0 -88 -9.5t-90 -30.5z" />
    <glyph glyph-name="uni0E0E.short" horiz-adv-x="641" 
d="M116 -125l10 48q90 39 180 39q47 0 84 -10t65 -27l91 431q17 81 -14 113.5t-126 32.5q-62 0 -119 -19t-92 -48l-6 -28l117 -26l-10 -48q-40 -10 -58 -30.5t-27 -62.5l-31 -142q-10 -47 -37.5 -72.5t-71.5 -25.5h-56l9 46h43q47 0 59 54l30 143q8 39 29 67.5t63 41.5
l-115 26l17 80q43 35 112 63.5t154 28.5q116 0 160.5 -50t24.5 -147l-102 -477h-53q-32 20 -64.5 29.5t-88.5 9.5q-46 0 -87.5 -9.5t-89.5 -30.5z" />
    <glyph glyph-name="uni0E0F" unicode="&#xe0f;" horiz-adv-x="641" 
d="M362 -195q-34 0 -57 12.5t-32 31.5q-14 -19 -40.5 -31t-61.5 -12h-83l15 49h71q29 0 49.5 9t40.5 34h33q8 -22 25 -33.5t45 -11.5q40 0 60 18.5t29 61.5l90 423q17 81 -15.5 113.5t-124.5 32.5q-62 0 -119 -19t-92 -48l-6 -28l117 -26l-10 -48q-40 -10 -58.5 -30.5
t-26.5 -62.5l-31 -142q-10 -47 -37.5 -72.5t-71.5 -25.5h-56l9 46h43q47 0 59 54l30 143q8 39 29 67.5t63 41.5l-115 26l17 80q43 35 112 63.5t154 28.5q116 0 160.5 -50t24.5 -147l-91 -425q-13 -61 -52 -92t-96 -31z" />
    <glyph glyph-name="uni0E0F.short" horiz-adv-x="641" 
d="M377 -124q-32 0 -55 12t-34 31q-14 -19 -40.5 -30.5t-61.5 -11.5h-83l15 49h71q29 0 49.5 9t40.5 33h33q8 -21 25 -33t45 -12q40 0 60 19t29 62l75 352q17 81 -14.5 113.5t-125.5 32.5q-62 0 -119 -19t-92 -48l-6 -28l117 -26l-10 -48q-40 -10 -58.5 -30.5t-26.5 -62.5
l-31 -142q-10 -47 -37.5 -72.5t-71.5 -25.5h-56l9 46h43q47 0 59 54l30 143q8 39 29 67.5t63 41.5l-115 26l17 80q43 35 112 63.5t154 28.5q114 0 159.5 -50t25.5 -147l-76 -355q-13 -61 -52 -91.5t-96 -30.5z" />
    <glyph glyph-name="uni0E10" unicode="&#xe10;" horiz-adv-x="592" 
d="M224 -10q-15 0 -32 2.5t-28 6.5l-39 240h-60l13 47h93l40 -249q49 -6 100 15.5t92.5 76.5t60.5 148q17 80 9 129.5t-48 72.5t-120 23q-41 0 -89.5 -5.5t-91.5 -19.5l10 47q39 12 88 19t101 7q25 0 46 -2.5t40 -7.5h202l-13 -47h-113q34 -33 41.5 -88.5t-8.5 -127.5
q-30 -142 -109.5 -214.5t-184.5 -72.5zM282 -195q-32 0 -55 12.5t-34 31.5q-14 -19 -40.5 -31t-61.5 -12h-83l15 49h71q29 0 49.5 9t40.5 34h33q8 -22 25 -33.5t45 -11.5q40 0 60 18.5t29 61.5l6 27h55l-7 -32q-13 -61 -52 -92t-96 -31z" />
    <glyph glyph-name="uni0E10.less" horiz-adv-x="592" 
d="M224 -10q-15 0 -32 2.5t-28 6.5l-39 240h-60l13 47h93l40 -249q49 -6 100 15.5t92.5 76.5t60.5 148q17 80 9 129.5t-48 72.5t-120 23q-41 0 -89.5 -5.5t-91.5 -19.5l10 47q39 12 88 19t101 7q25 0 46 -2.5t40 -7.5h202l-13 -47h-113q34 -33 41.5 -88.5t-8.5 -127.5
q-30 -142 -109.5 -214.5t-184.5 -72.5z" />
    <glyph glyph-name="uni0E11" unicode="&#xe11;" horiz-adv-x="580" 
d="M50 0l52 246q6 31 26.5 61t44.5 58t43.5 53.5t24.5 47.5q6 30 -22 30q-15 0 -30 -6.5t-29 -17.5l-8 -38h-45l22 106h45l-6 -28q14 11 33 19.5t43 8.5q40 0 48 -31q29 18 63.5 29.5t70.5 11.5q83 0 109.5 -45.5t6.5 -140.5l-77 -364h-55l78 367q11 51 8.5 80.5t-24 42
t-68.5 12.5q-27 0 -59 -10.5t-55 -28.5q-6 -27 -24.5 -54t-41.5 -54.5t-42.5 -55.5t-25.5 -58l-51 -241h-55z" />
    <glyph glyph-name="uni0E12" unicode="&#xe12;" horiz-adv-x="977" 
d="M221 -10q-94 0 -137.5 66.5t-12.5 211.5q29 135 80.5 208.5t133.5 73.5q35 0 56 -13t37 -39q30 26 63 39t65 13q51 0 72.5 -31.5t8.5 -91.5l-65 -306q28 -37 65 -60.5t92 -23.5q74 0 112 34.5t54 107.5l76 361h55l-76 -358q-20 -95 -72.5 -143.5t-140.5 -48.5
q-67 0 -106.5 22.5t-69.5 58.5l-20 -71h-48l89 421q10 46 0 63.5t-51 17.5q-25 0 -49 -12t-44 -38h-35q-13 26 -27.5 38t-44.5 12q-58 0 -95.5 -65t-60.5 -169q-27 -127 3 -179t114 -52q18 0 37 2t33 6l-10 -47q-17 -4 -36.5 -6t-44.5 -2z" />
    <glyph glyph-name="uni0E13" unicode="&#xe13;" horiz-adv-x="951" 
d="M582 -10q-79 0 -112.5 49.5t-14.5 142.5l37 174q17 81 -12 113.5t-121 32.5q-61 0 -114.5 -19t-87.5 -48l-6 -28l114 -26l-10 -48q-40 -9 -65.5 -31t-33.5 -62l-30 -139q-7 -34 1.5 -44.5t36.5 -10.5h61l-9 -46h-80q-41 0 -58.5 25t-8.5 66l32 152q8 39 35 68t71 41
l-112 26l17 80q43 35 108.5 63.5t149.5 28.5q112 0 154 -50t22 -147l-37 -174q-16 -73 4.5 -107.5t96.5 -34.5q56 0 104.5 23.5t91.5 60.5l89 419h55l-114 -540h-49l10 71q-46 -36 -97 -58.5t-118 -22.5z" />
    <glyph glyph-name="uni0E14" unicode="&#xe14;" horiz-adv-x="628" 
d="M221 -10q-94 0 -137.5 66.5t-12.5 211.5q19 86 58.5 149.5t104.5 98t160 34.5q84 0 129.5 -29.5t59.5 -77t2 -103.5l-72 -340h-55l72 343q10 45 1.5 81t-43 57t-105.5 21q-112 0 -173.5 -63.5t-84.5 -170.5q-26 -126 3 -178.5t114 -52.5q18 0 37 2t33 6l-10 -47
q-17 -4 -36.5 -6t-44.5 -2z" />
    <glyph glyph-name="uni0E15" unicode="&#xe15;" horiz-adv-x="628" 
d="M221 -10q-94 0 -137.5 66.5t-12.5 211.5q29 135 81.5 208.5t136.5 73.5q38 0 59.5 -13t37.5 -39q29 27 64.5 39.5t66.5 12.5q50 0 74.5 -30.5t11.5 -92.5l-90 -427h-55l89 421q10 46 -1 63.5t-49 17.5q-25 0 -53 -12t-48 -38h-35q-13 26 -29 38t-46 12q-62 0 -100 -65
t-61 -169q-27 -127 2 -179t115 -52q18 0 37 2t33 6l-10 -47q-17 -4 -36.5 -6t-44.5 -2z" />
    <glyph glyph-name="uni0E16" unicode="&#xe16;" horiz-adv-x="600" 
d="M136 0q-41 0 -58.5 25t-8.5 66l32 152q8 39 35 68t71 41l-112 26l17 80q43 35 112 63.5t154 28.5q113 0 157.5 -50t24.5 -147l-75 -353h-55l75 356q17 84 -14.5 115t-123.5 31q-61 0 -118.5 -19t-91.5 -48l-6 -28l114 -26l-10 -48q-40 -9 -65.5 -31t-33.5 -62l-30 -139
q-7 -31 1.5 -43t36.5 -12h61l-9 -46h-80z" />
    <glyph glyph-name="uni0E17" unicode="&#xe17;" horiz-adv-x="585" 
d="M35 0l114 540h48l-10 -71q46 36 98.5 58.5t122.5 22.5q80 0 119 -48.5t19 -143.5l-76 -358h-55l76 361q16 73 -9 107t-103 34q-58 0 -107.5 -23.5t-93.5 -60.5l-88 -418h-55z" />
    <glyph glyph-name="uni0E18" unicode="&#xe18;" horiz-adv-x="520" 
d="M221 -10q-60 0 -109.5 11.5t-81.5 24.5l44 207h52l-37 -172q28 -10 64 -17t74 -7q73 0 117.5 25t57.5 87q11 52 -3 77t-49 37.5t-86 24.5q-32 8 -63.5 16.5t-55.5 23t-35.5 37.5t-4.5 59q14 70 77.5 98t161.5 28q46 0 94 -7.5t75 -18.5l-11 -49q-30 12 -74.5 19.5
t-85.5 7.5q-48 0 -87.5 -5.5t-65 -22t-32.5 -49.5q-7 -34 10 -50.5t55 -26t93 -23.5q46 -11 82.5 -29t53.5 -52t5 -95q-16 -84 -76.5 -121.5t-158.5 -37.5z" />
    <glyph glyph-name="uni0E19" unicode="&#xe19;" horiz-adv-x="585" 
d="M208 -10q-176 0 -135 192l76 358h55l-76 -361q-16 -79 8 -110.5t100 -31.5q58 0 109.5 23.5t94.5 60.5l89 419h55l-114 -540h-48l10 71q-46 -36 -100.5 -58.5t-123.5 -22.5z" />
    <glyph glyph-name="uni0E1A" unicode="&#xe1a;" horiz-adv-x="603" 
d="M259 -10q-112 0 -158.5 52t-24.5 155l73 343h55l-74 -350q-17 -82 14.5 -117.5t124.5 -35.5q77 0 132 35.5t72 117.5l74 350h55l-73 -343q-22 -103 -85 -155t-185 -52z" />
    <glyph glyph-name="uni0E1B" unicode="&#xe1b;" horiz-adv-x="603" 
d="M259 -10q-112 0 -158.5 52t-24.5 155l73 343h55l-74 -350q-17 -82 14.5 -117.5t124.5 -35.5q77 0 132 35.5t72 117.5l108 510h55l-107 -503q-22 -103 -85 -155t-185 -52z" />
    <glyph glyph-name="uni0E1C" unicode="&#xe1c;" horiz-adv-x="637" 
d="M35 0l95 447q8 41 36.5 67t69.5 26h76l-8 -47h-57q-53 0 -66 -57l-77 -363l237 302h33l109 -302l99 467h54l-114 -540h-58l-115 319l-250 -319h-64z" />
    <glyph glyph-name="uni0E1D" unicode="&#xe1d;" horiz-adv-x="637" 
d="M35 0l95 447q8 41 36.5 67t69.5 26h76l-8 -47h-57q-53 0 -66 -57l-77 -363l237 302h33l109 -302l133 627h54l-148 -700h-58l-115 319l-250 -319h-64z" />
    <glyph glyph-name="uni0E1E" unicode="&#xe1e;" horiz-adv-x="707" 
d="M127 0l-8 540h56l2 -469l216 410l12 59h41l36 -469l199 469h55l-235 -540h-57l-33 420l-221 -420h-63z" />
    <glyph glyph-name="uni0E1F" unicode="&#xe1f;" horiz-adv-x="707" 
d="M127 0l-8 540h56l2 -469l216 410l12 59h41l36 -469l267 629h55l-303 -700h-57l-33 420l-221 -420h-63z" />
    <glyph glyph-name="uni0E20" unicode="&#xe20;" horiz-adv-x="639" 
d="M15 0l9 46h43q47 0 59 54l30 143q8 39 29 67.5t63 41.5l-115 26l17 80q43 35 112 63.5t154 28.5q111 0 157 -50t26 -147l-75 -353h-55l75 356q17 83 -14.5 114.5t-123.5 31.5q-62 0 -119 -19t-92 -48l-6 -28l117 -26l-10 -48q-40 -10 -58.5 -30.5t-26.5 -62.5l-31 -142
q-10 -47 -37.5 -72.5t-71.5 -25.5h-56z" />
    <glyph glyph-name="uni0E21" unicode="&#xe21;" horiz-adv-x="585" 
d="M288 -10q-70 0 -112.5 22.5t-72.5 58.5l-20 -71h-48l114 540h55l-89 -419q28 -37 67.5 -60.5t97.5 -23.5q76 0 116.5 34.5t56.5 107.5l76 361h55l-76 -358q-41 -192 -220 -192z" />
    <glyph glyph-name="uni0E22" unicode="&#xe22;" horiz-adv-x="578" 
d="M239 -10q-106 0 -157.5 40.5t-35.5 118.5q11 53 42 86t75 47q-30 10 -50.5 40t-9.5 82q16 74 66.5 110t114.5 36q26 0 44 -2.5t33 -7.5l-10 -47q-25 9 -66 9q-49 0 -82.5 -22.5t-44.5 -75.5q-10 -49 10.5 -74t87.5 -25h58l-4 -44h-66q-58 0 -95.5 -29t-48.5 -83
q-12 -55 21.5 -83.5t126.5 -28.5q87 0 134.5 33.5t62.5 105.5l77 364h55l-70 -332q-15 -70 -44.5 -118.5t-83 -74t-140.5 -25.5z" />
    <glyph glyph-name="uni0E23" unicode="&#xe23;" horiz-adv-x="502" 
d="M197 -10q-47 0 -91 6t-73 19l10 49q36 -14 76 -20.5t80 -6.5q76 0 122.5 19t59.5 78q9 40 -8 60.5t-50.5 33.5t-77.5 28q-39 14 -75.5 32t-57 47.5t-10.5 76.5q29 138 230 138q43 0 82 -7t66 -17l-10 -49q-31 13 -66.5 19t-73.5 6q-79 0 -121 -18.5t-53 -70.5
q-7 -34 7.5 -54.5t48.5 -34.5t83 -31q43 -14 79 -32t54 -47.5t7 -78.5q-17 -82 -78 -113.5t-160 -31.5z" />
    <glyph glyph-name="uni0E24" unicode="&#xe24;" horiz-adv-x="603" 
d="M398 -160l110 516q18 84 -16 115t-125 31q-61 0 -118.5 -19t-91.5 -48l-6 -28l114 -26l-10 -48q-40 -9 -65.5 -31t-33.5 -62l-30 -139q-7 -31 1 -43t37 -12h61l-9 -46h-80q-41 0 -58.5 25t-8.5 66l32 152q8 39 35 68t71 41l-112 26l17 80q43 35 112 63.5t154 28.5
q116 0 160.5 -50t24.5 -147l-110 -513h-55z" />
    <glyph glyph-name="uni0E24.short" horiz-adv-x="603" 
d="M409 -110l99 466q17 81 -14.5 113.5t-126.5 32.5q-61 0 -118.5 -19t-91.5 -48l-6 -28l114 -26l-10 -48q-40 -9 -65.5 -31t-33.5 -62l-30 -139q-7 -33 2 -44t38 -11h59l-9 -46h-80q-41 0 -58.5 25t-8.5 66l32 152q8 39 35 68t71 41l-112 26l17 80q43 35 112 63.5t154 28.5
q116 0 160.5 -50t24.5 -147l-99 -463h-55z" />
    <glyph glyph-name="uni0E25" unicode="&#xe25;" horiz-adv-x="578" 
d="M187 -10q-50 0 -86.5 16t-51.5 50.5t-3 89.5q15 74 73 117.5t164 43.5h190l11 53q12 55 5 86t-40 43.5t-100 12.5q-43 0 -87 -5.5t-88 -19.5l10 47q38 12 87 19t100 7q110 0 149.5 -46t18.5 -146l-76 -358h-55l55 260h-186q-155 0 -178 -114q-13 -58 10.5 -83.5
t102.5 -25.5q40 0 70 8l-10 -47q-17 -4 -38 -6t-47 -2z" />
    <glyph glyph-name="uni0E26" unicode="&#xe26;" horiz-adv-x="641" 
d="M436 -160l110 516q17 81 -13 113.5t-127 32.5q-62 0 -119 -19t-92 -48l-6 -28l117 -26l-10 -48q-40 -10 -58 -30.5t-27 -62.5l-31 -142q-10 -47 -37.5 -72.5t-71.5 -25.5h-56l9 46h43q26 0 39.5 12t19.5 42l30 143q8 39 29 67.5t63 41.5l-115 26l17 80q43 35 112 63.5
t154 28.5q114 0 159.5 -50t25.5 -147l-110 -513h-55z" />
    <glyph glyph-name="uni0E26.short" horiz-adv-x="641" 
d="M447 -110l99 466q17 81 -14.5 113.5t-125.5 32.5q-62 0 -119 -19t-92 -48l-6 -28l117 -26l-10 -48q-40 -10 -58 -30.5t-27 -62.5l-31 -142q-10 -47 -37.5 -72.5t-71.5 -25.5h-56l9 46h43q47 0 59 54l30 143q8 39 29 67.5t63 41.5l-115 26l17 80q43 35 112 63.5t154 28.5
q115 0 160 -50t25 -147l-99 -463h-55z" />
    <glyph glyph-name="uni0E27" unicode="&#xe27;" horiz-adv-x="490" 
d="M152 -10q-82 0 -134 26l10 47q26 -11 57 -18.5t64 -7.5q75 0 123.5 25t78 76.5t46.5 131.5t10 131t-45.5 76t-117.5 25q-34 0 -65 -6.5t-63 -19.5l10 48q30 13 61.5 19.5t76.5 6.5q128 0 172.5 -70.5t15.5 -209.5q-19 -88 -54.5 -151t-95 -96t-150.5 -33z" />
    <glyph glyph-name="uni0E28" unicode="&#xe28;" horiz-adv-x="614" 
d="M35 0l76 358q21 99 84.5 145.5t178.5 46.5q26 0 47.5 -2.5t40.5 -7.5h181l-13 -47h-96q20 -22 25 -56.5t-4 -78.5l-76 -358h-55l77 366q16 75 -14.5 105.5t-122.5 30.5q-79 0 -130 -32t-67 -104l-29 -139q65 45 136 45h67l-6 -46h-71q-37 0 -70 -11t-66 -34l-38 -181h-55
z" />
    <glyph glyph-name="uni0E29" unicode="&#xe29;" horiz-adv-x="623" 
d="M259 -10q-112 0 -158.5 52t-24.5 155l73 343h55l-74 -350q-17 -82 14.5 -117.5t124.5 -35.5q77 0 132 35.5t72 117.5l20 94h-157l10 46h156l45 210h55l-45 -210h66l-15 -46h-61l-18 -87q-22 -103 -85 -155t-185 -52z" />
    <glyph glyph-name="uni0E2A" unicode="&#xe2a;" horiz-adv-x="603" 
d="M187 -10q-50 0 -86.5 16t-51.5 50.5t-3 89.5q15 74 73 117.5t164 43.5h190l11 53q12 56 5 87t-40 43t-100 12q-43 0 -87 -5.5t-88 -19.5l10 47q38 12 87 19t100 7q54 0 88 -10h163l-13 -47h-84q17 -22 20 -56.5t-6 -78.5l-76 -358h-55l55 260h-186q-155 0 -178 -114
q-13 -58 10.5 -83.5t102.5 -25.5q40 0 70 8l-10 -47q-17 -4 -38 -6t-47 -2z" />
    <glyph glyph-name="uni0E2B" unicode="&#xe2b;" horiz-adv-x="582" 
d="M35 0l114 540h55l-38 -182h201q74 0 108 30.5t46 87.5l13 64h55l-13 -64q-11 -51 -38 -90.5t-83 -53.5q46 -17 55 -53.5t-2 -86.5l-40 -192h-55l40 191q15 70 -6.5 95t-94.5 25h-196l-66 -311h-55z" />
    <glyph glyph-name="uni0E2C" unicode="&#xe2c;" horiz-adv-x="707" 
d="M127 0l-8 540h56l3 -469l206 370l13 59h41l42 -429l164 381q22 51 14.5 70.5t-47.5 19.5h-40l16 45h39q44 0 67 15.5t39 53.5l18 44h54l-21 -49q-19 -43 -42 -63.5t-52 -25.5q46 -22 9 -107l-197 -455h-57l-41 383l-214 -383h-62z" />
    <glyph glyph-name="uni0E2C.short" horiz-adv-x="707" 
d="M127 0l-8 540h56l2 -474l181 272l13 59h41l67 -331l113 267q22 51 14.5 70.5t-47.5 19.5h-40l17 45h39q44 0 66.5 13t35.5 44l20 50h54l-25 -60q-18 -44 -39.5 -58t-51.5 -19q47 -22 10 -107l-144 -331h-58l-61 288l-194 -288h-61z" />
    <glyph glyph-name="uni0E2D" unicode="&#xe2d;" horiz-adv-x="551" 
d="M210 -10q-60 0 -109 11.5t-81 24.5l57 266h182l-7 -47h-130l-40 -184q26 -11 62 -17.5t73 -6.5q70 0 117 23t77 74t48 135q18 86 12 137t-46 73.5t-125 22.5q-42 0 -87 -5.5t-89 -19.5l10 47q40 13 89.5 19.5t101.5 6.5q130 0 174 -69.5t14 -211.5q-20 -92 -56.5 -154.5
t-96 -93.5t-150.5 -31z" />
    <glyph glyph-name="uni0E2E" unicode="&#xe2e;" horiz-adv-x="583" 
d="M210 -10q-60 0 -109 11.5t-81 24.5l57 266h182l-7 -47h-130l-40 -184q26 -11 62 -17.5t73 -6.5q70 0 117 23t77 74t48 135q18 86 12 137t-46 73.5t-125 22.5q-42 0 -87 -5.5t-89 -19.5l10 47q40 13 89.5 19.5t101.5 6.5q25 0 46 -2.5t40 -7.5h191l-13 -47h-104
q61 -69 28 -224q-20 -92 -56.5 -154.5t-96 -93.5t-150.5 -31z" />
    <glyph glyph-name="uni0E30" unicode="&#xe30;" horiz-adv-x="322" 
d="M89 349l20 94h49l-11 -49h163l-11 -45h-210zM29 69l20 94h49l-10 -50h163l-12 -44h-210z" />
    <glyph glyph-name="uni0E32" unicode="&#xe32;" horiz-adv-x="435" 
d="M265 0l75 357q11 52 8 83.5t-30 46.5t-89 15q-31 0 -70.5 -6.5t-72.5 -18.5l10 47q32 11 72.5 18.5t80.5 7.5q98 0 133.5 -43.5t13.5 -144.5l-76 -362h-55z" />
    <glyph glyph-name="uni0E33" unicode="&#xe33;" horiz-adv-x="435" 
d="M-22 581q-40 0 -62 27.5t-14 67.5t40.5 67.5t75.5 27.5q40 0 62 -27.5t14 -67.5t-40.5 -67.5t-75.5 -27.5zM-14 620q23 0 43.5 17t24.5 39q5 23 -5 39.5t-39 16.5q-24 0 -43.5 -16.5t-24.5 -39.5q-4 -22 5 -39t39 -17zM265 0l75 357q11 52 8 83.5t-30 46.5t-89 15
q-31 0 -70.5 -6.5t-72.5 -18.5l10 47q32 11 72.5 18.5t80.5 7.5q98 0 133 -43.5t14 -144.5l-76 -362h-55z" />
    <glyph glyph-name="uni0E40" unicode="&#xe40;" horiz-adv-x="286" 
d="M121 0q-42 0 -59 25t-8 66l95 449h55l-93 -439q-7 -34 1.5 -44.5t38.5 -10.5h49l-9 -46h-70z" />
    <glyph glyph-name="uni0E41" unicode="&#xe41;" horiz-adv-x="496" 
d="M336 0q-40 0 -58 25t-9 66l95 449h55l-93 -439q-7 -34 1 -44.5t39 -10.5h44l-9 -46h-65zM121 0q-40 0 -58 25t-9 66l95 449h55l-93 -439q-7 -34 1 -44.5t39 -10.5h44l-9 -46h-65z" />
    <glyph glyph-name="uni0E42" unicode="&#xe42;" horiz-adv-x="300" 
d="M165 0q-42 0 -59 25t-8 66l101 472q12 57 9 90t-22.5 53t-56.5 39l10 49h266l-10 -46h-195q32 -19 47.5 -42t16 -59.5t-12.5 -97.5l-96 -448q-7 -34 1.5 -44.5t38.5 -10.5h49l-9 -46h-70z" />
    <glyph glyph-name="uni0E43" unicode="&#xe43;" horiz-adv-x="278" 
d="M108 0q-42 0 -59 25t-8 66l76 360q9 43 29.5 73t45 51.5t48.5 38.5t41.5 34.5t22.5 40.5q8 36 -9 48.5t-58 12.5q-58 0 -120 -31l10 45q31 17 66.5 25t66.5 8q63 0 86.5 -27.5t12.5 -77.5q-6 -30 -24.5 -51t-42.5 -39t-48.5 -37.5t-44 -46t-27.5 -66.5l-74 -351
q-7 -34 1.5 -44.5t38.5 -10.5h49l-9 -46h-70z" />
    <glyph glyph-name="uni0E44" unicode="&#xe44;" horiz-adv-x="285" 
d="M139 0q-42 0 -59 25t-8 66l100 474q14 68 51.5 113t85.5 70h-191l10 46h260l-10 -48q-65 -27 -101.5 -73t-52.5 -122l-95 -450q-7 -34 1.5 -44.5t38.5 -10.5h49l-9 -46h-70z" />
    <glyph glyph-name="uni0E45" unicode="&#xe45;" horiz-adv-x="435" 
d="M230 -160l110 517q11 52 8 83.5t-30 46.5t-89 15q-31 0 -70.5 -6.5t-72.5 -18.5l10 47q32 11 72.5 18.5t80.5 7.5q98 0 133.5 -43.5t13.5 -144.5l-111 -522h-55z" />
    <glyph glyph-name="uni210A" unicode="&#x210a;" horiz-adv-x="564" 
d="M200 -176q-25 0 -59.5 3t-52.5 7l10 48q21 -7 52 -9.5t50 -2.5q79 0 129 29.5t63 92.5l12 57q-40 -25 -81 -37t-92 -12q-66 0 -110 23t-59 75t3 138q27 130 95.5 189t168.5 59q55 0 92.5 -15.5t65.5 -48.5l16 54h46l-101 -477q-18 -84 -82 -128.5t-166 -44.5zM254 45
q48 0 87.5 14t72.5 39l59 276q-47 64 -140 64q-172 0 -214 -202q-22 -106 9 -148.5t126 -42.5z" />
    <glyph glyph-name="zero" unicode="0" horiz-adv-x="639" 
d="M277 -10q-88 0 -138.5 39.5t-65 111.5t6.5 169q23 108 64.5 185t108.5 118t166 41q97 0 146 -41t58 -118t-14 -185q-20 -97 -63 -169t-109.5 -111.5t-159.5 -39.5zM287 37q76 0 129.5 35.5t88 97t50.5 140.5q21 95 17 161t-42 100.5t-122 34.5q-114 0 -178.5 -77
t-95.5 -219q-16 -79 -9.5 -140.5t45 -97t117.5 -35.5z" />
    <glyph glyph-name="one" unicode="1" horiz-adv-x="286" 
d="M116 0l127 600l-105 -17l10 46l162 25l-139 -654h-55z" />
    <glyph glyph-name="two" unicode="2" horiz-adv-x="499" 
d="M15 0l7 34q38 65 100.5 119t127.5 101t104 81t60 66.5t29 73.5q9 40 1.5 69.5t-37.5 45.5t-91 16q-35 0 -75 -6.5t-78 -20.5l10 50q32 11 76 18t82 7q96 0 140 -47.5t26 -131.5q-10 -50 -36.5 -88t-65.5 -72t-90 -72q-63 -47 -121 -92.5t-96 -106.5h325l-9 -44h-389z" />
    <glyph glyph-name="three" unicode="3" horiz-adv-x="506" 
d="M175 -10q-45 0 -88.5 7.5t-68.5 17.5l10 49q34 -13 71 -20t81 -7q93 0 145.5 32.5t67.5 104.5q15 68 -22 99.5t-114 31.5h-88l15 43h74q80 0 126.5 36t59.5 100q14 62 -16 92t-123 30q-40 0 -80 -7.5t-75 -19.5l10 49q28 11 73 18.5t88 7.5q109 0 151.5 -47.5
t25.5 -122.5q-7 -33 -26 -66t-49.5 -57.5t-73.5 -34.5q62 -16 86 -57t12 -95q-19 -92 -91 -138t-181 -46z" />
    <glyph glyph-name="four" unicode="4" horiz-adv-x="536" 
d="M336 0l32 155h-341l10 47l439 442h51l-94 -443h70l-10 -46h-70l-32 -155h-55zM90 200h293l80 376z" />
    <glyph glyph-name="five" unicode="5" horiz-adv-x="506" 
d="M178 -10q-45 0 -88.5 6.5t-68.5 18.5l10 50q32 -13 70 -20.5t83 -7.5q84 0 140.5 38t72.5 114q10 48 3.5 80t-38 48t-95.5 16h-182l10 47l73 264h331l-15 -45h-280l-61 -221h133q215 0 175 -189q-20 -94 -89 -146.5t-184 -52.5z" />
    <glyph glyph-name="six" unicode="6" horiz-adv-x="561" 
d="M238 -10q-106 0 -154 57t-20 184l33 159q26 128 105 196t199 68q45 0 79.5 -5.5t59.5 -14.5l-10 -48q-25 10 -59.5 15t-78.5 5q-100 0 -160 -58t-80 -149l-12 -58q50 32 103 46.5t93 14.5q108 0 150.5 -52.5t20.5 -152.5q-19 -94 -85.5 -150.5t-183.5 -56.5zM247 35
q88 0 140 44t68 117q11 50 4.5 86.5t-38.5 56t-99 19.5q-49 0 -99.5 -17.5t-91.5 -43.5l-19 -87q-19 -88 12.5 -131.5t122.5 -43.5z" />
    <glyph glyph-name="seven" unicode="7" horiz-adv-x="495" 
d="M102 0l380 599h-350l9 45h405l-9 -45l-380 -599h-55z" />
    <glyph glyph-name="eight" unicode="8" horiz-adv-x="575" 
d="M244 -10q-111 0 -162 44.5t-32 131.5q13 60 56 105.5t112 61.5q-57 16 -75.5 56.5t-8.5 88.5q17 80 78.5 128t173.5 48q107 0 150 -48t26 -128q-10 -51 -46.5 -92.5t-107.5 -63.5q70 -16 95 -55t12 -101q-38 -176 -271 -176zM348 340q73 17 112 47.5t52 90.5
q14 63 -17.5 97t-118.5 34q-79 0 -128 -33.5t-63 -97.5q-10 -48 11 -79.5t74 -42.5zM254 35q182 0 210 131q13 59 -11.5 85.5t-94.5 41.5l-87 19q-67 -13 -112 -46t-59 -99t21 -99t133 -33z" />
    <glyph glyph-name="nine" unicode="9" horiz-adv-x="561" 
d="M218 -10q-45 0 -80.5 5t-61.5 14l11 49q51 -21 139 -21q67 0 115.5 27t79.5 73.5t43 106.5l12 56q-49 -32 -100 -46.5t-95 -14.5q-103 0 -148 52.5t-24 152.5q20 94 87 152t185 58q109 0 154 -57t18 -185l-34 -158q-25 -120 -100.5 -192t-200.5 -72zM296 283
q52 0 100.5 17t89.5 44l19 90q18 87 -9.5 131t-123.5 44q-89 0 -143 -45t-70 -119q-10 -50 -3 -86.5t40.5 -56t99.5 -19.5z" />
    <glyph glyph-name="uni2080" unicode="&#x2080;" horiz-adv-x="352" 
d="M108 -128q-62 0 -83 38.5t-8 100.5q15 71 50.5 112t102.5 41q68 0 86 -41t3 -112q-13 -62 -50 -100.5t-101 -38.5zM116 -94q47 0 69.5 29.5t32.5 75.5q12 57 2.5 87.5t-57.5 30.5q-47 0 -70 -30.5t-35 -87.5q-10 -46 1 -75.5t57 -29.5z" />
    <glyph glyph-name="uni2081" unicode="&#x2081;" horiz-adv-x="206" 
d="M65 -120l52 244l-80 -17l7 34l121 23l-60 -284h-40z" />
    <glyph glyph-name="uni2082" unicode="&#x2082;" horiz-adv-x="296" 
d="M-11 -120l6 26q18 27 43.5 47.5t56.5 41.5q43 30 58.5 47t20.5 40t-6.5 35t-44.5 12q-17 0 -37 -3.5t-37 -8.5l8 34q14 5 36.5 9t44.5 4q46 0 65.5 -23.5t11.5 -58.5q-7 -31 -26.5 -51t-57.5 -48q-25 -19 -45.5 -33t-37.5 -36h134l-7 -34h-186z" />
    <glyph glyph-name="uni2083" unicode="&#x2083;" horiz-adv-x="298" 
d="M62 -128q-21 0 -41.5 3.5t-30.5 7.5l7 34q30 -12 66 -12q42 0 61.5 11.5t25.5 39.5q10 48 -61 48h-35l11 31h27q36 0 55 11.5t25 39.5q5 24 -8.5 34t-51.5 10q-34 0 -67 -11l7 34q12 4 33 7.5t41 3.5q59 0 78 -21t11 -55q-4 -22 -19.5 -41.5t-43.5 -27.5
q29 -6 37.5 -23.5t3.5 -40.5q-18 -83 -131 -83z" />
    <glyph glyph-name="uni2084" unicode="&#x2084;" horiz-adv-x="296" 
d="M124 -120l13 62h-155l7 34l186 188h49l-40 -189h31l-7 -33h-31l-13 -62h-40zM33 -25h113l31 146z" />
    <glyph glyph-name="uni2085" unicode="&#x2085;" horiz-adv-x="300" 
d="M60 -128q-19 0 -39.5 3t-31.5 7l8 36q14 -7 31.5 -9.5t35.5 -2.5q39 0 61 11.5t29 42.5q6 29 -5.5 40t-51.5 11h-80l7 33l30 110h162l-10 -35h-124l-20 -76h54q53 0 70.5 -21.5t9.5 -62.5q-9 -40 -43 -63.5t-93 -23.5z" />
    <glyph glyph-name="uni2086" unicode="&#x2086;" horiz-adv-x="321" 
d="M95 -128q-51 0 -74 25t-11 81l14 69q12 56 50 86.5t92 30.5q20 0 37 -2.5t28 -6.5l-7 -34q-24 8 -63 8q-42 0 -66 -20t-32 -56l-5 -24q22 15 42.5 21t39.5 6q54 0 71 -23.5t7 -67.5q-9 -42 -39 -67.5t-84 -25.5zM102 -95q36 0 53 14.5t24 45.5t-2 45t-49 14
q-19 0 -39.5 -8t-37.5 -19l-6 -28q-7 -34 6.5 -49t50.5 -15z" />
    <glyph glyph-name="uni2087" unicode="&#x2087;" horiz-adv-x="286" 
d="M31 -120l150 237h-152l8 37h196l-8 -38l-150 -236h-44z" />
    <glyph glyph-name="uni2088" unicode="&#x2088;" horiz-adv-x="327" 
d="M96 -128q-48 0 -74 20t-18 57q10 52 68 72q-24 11 -29.5 28t-1.5 39q8 33 39 54.5t78 21.5t69.5 -21.5t14.5 -54.5q-4 -22 -17 -39.5t-46 -31.5q31 -10 39 -27t3 -41q-8 -37 -42.5 -57t-82.5 -20zM142 32q32 10 44 20.5t17 35.5q5 23 -9.5 34t-41.5 11q-28 0 -47.5 -11
t-24.5 -34q-4 -19 1.5 -31.5t28.5 -17.5zM103 -98q32 0 53 12t26 36q5 20 -4.5 31t-37.5 18l-31 7q-27 -7 -43.5 -18.5t-21.5 -37.5q-5 -24 11 -36t48 -12z" />
    <glyph glyph-name="uni2089" unicode="&#x2089;" horiz-adv-x="321" 
d="M80 -128q-20 0 -36.5 2.5t-28.5 6.5l7 34q24 -9 65 -9q42 0 66 20.5t31 56.5l5 23q-22 -14 -43 -20.5t-40 -6.5q-53 0 -69.5 23.5t-6.5 68.5q8 42 38 67.5t84 25.5q52 0 75 -25.5t11 -81.5l-15 -69q-12 -55 -50.5 -85.5t-92.5 -30.5zM120 12q20 0 39 7.5t37 19.5l6 28
q7 33 -6 48.5t-50 15.5t-54 -15t-23 -45q-7 -31 2 -45t49 -14z" />
    <glyph glyph-name="uni2070" unicode="&#x2070;" horiz-adv-x="352" 
d="M212 362q-62 0 -83 38.5t-8 100.5q15 71 51 112t103 41q68 0 85.5 -41t2.5 -112q-13 -62 -50 -100.5t-101 -38.5zM220 396q47 0 69.5 29.5t32.5 75.5q12 57 2.5 87.5t-57.5 30.5q-47 0 -70 -30.5t-35 -87.5q-10 -46 1 -75.5t57 -29.5z" />
    <glyph glyph-name="uni00B9" unicode="&#xb9;" horiz-adv-x="206" 
d="M169 370l52 244l-80 -17l8 34l121 23l-61 -284h-40z" />
    <glyph glyph-name="uni00B2" unicode="&#xb2;" horiz-adv-x="296" 
d="M93 370l6 26q18 27 44 47.5t57 41.5q42 30 57.5 47t20.5 40t-6.5 35t-44.5 12q-17 0 -36.5 -3.5t-36.5 -8.5l7 34q14 5 37 9t45 4q46 0 65 -23.5t11 -58.5q-7 -31 -26.5 -51t-57.5 -48q-25 -19 -45 -33t-38 -36h134l-7 -34h-186z" />
    <glyph glyph-name="uni00B3" unicode="&#xb3;" horiz-adv-x="298" 
d="M166 362q-21 0 -41 3.5t-31 7.5l7 34q30 -12 66 -12q42 0 61.5 11.5t25.5 39.5q11 48 -60 48h-35l10 31h27q36 0 55 11.5t25 39.5q5 24 -8.5 34t-51.5 10q-34 0 -67 -11l7 34q12 4 33.5 7.5t41.5 3.5q56 0 76 -21t12 -55q-4 -22 -19.5 -41.5t-43.5 -27.5
q29 -6 37.5 -23.5t3.5 -40.5q-17 -83 -131 -83z" />
    <glyph glyph-name="uni2074" unicode="&#x2074;" horiz-adv-x="296" 
d="M228 370l13 62h-155l8 34l186 188h49l-41 -189h31l-7 -33h-31l-13 -62h-40zM132 465h122l34 158z" />
    <glyph glyph-name="uni2075" unicode="&#x2075;" horiz-adv-x="300" 
d="M164 362q-19 0 -39 3t-31 7l7 36q14 -7 31.5 -9.5t35.5 -2.5q39 0 61 11.5t29 42.5q6 29 -5.5 40t-51.5 11h-80l7 33l30 110h162l-10 -35h-124l-20 -76h54q53 0 71 -21.5t9 -62.5q-9 -40 -43 -63.5t-93 -23.5z" />
    <glyph glyph-name="uni2076" unicode="&#x2076;" horiz-adv-x="321" 
d="M199 362q-51 0 -74 25t-11 81l15 69q12 56 50 86.5t92 30.5q20 0 36.5 -2.5t28.5 -6.5l-8 -34q-24 8 -63 8q-42 0 -66 -20t-32 -56l-5 -24q22 15 43 21t40 6q54 0 70.5 -23.5t6.5 -67.5q-9 -42 -39 -67.5t-84 -25.5zM206 395q36 0 53 14.5t24 45.5t-2 45t-49 14
q-19 0 -39.5 -8t-37.5 -19l-6 -28q-7 -34 6.5 -49t50.5 -15z" />
    <glyph glyph-name="uni2077" unicode="&#x2077;" horiz-adv-x="286" 
d="M135 370l151 237h-152l7 37h196l-8 -38l-150 -236h-44z" />
    <glyph glyph-name="uni2078" unicode="&#x2078;" horiz-adv-x="327" 
d="M200 362q-48 0 -74 20t-18 57q10 52 68 72q-24 11 -29.5 28t-1.5 39q8 33 39.5 54.5t78.5 21.5t69 -21.5t14 -54.5q-4 -22 -17 -39.5t-46 -31.5q31 -10 39 -27t3 -41q-8 -37 -42.5 -57t-82.5 -20zM246 522q32 10 44 20.5t17 35.5q5 23 -9.5 34t-41.5 11q-28 0 -47.5 -11
t-24.5 -34q-4 -19 1.5 -31.5t28.5 -17.5zM207 392q32 0 53 12t26 36q5 20 -4 31t-38 18l-31 7q-27 -7 -43.5 -18.5t-21.5 -37.5q-5 -24 11 -36t48 -12z" />
    <glyph glyph-name="uni2079" unicode="&#x2079;" horiz-adv-x="321" 
d="M184 362q-20 0 -36.5 2.5t-28.5 6.5l8 34q23 -9 64 -9q42 0 66 20.5t31 56.5l5 23q-22 -14 -43 -20.5t-40 -6.5q-53 0 -69.5 23.5t-6.5 68.5q9 42 39 67.5t84 25.5q52 0 74.5 -25.5t10.5 -81.5l-15 -69q-12 -55 -50.5 -85.5t-92.5 -30.5zM224 502q20 0 39.5 7.5
t36.5 19.5l6 28q7 33 -6 48.5t-50 15.5t-54 -15t-23 -45q-7 -31 2 -45t49 -14z" />
    <glyph glyph-name="fraction" unicode="&#x2044;" horiz-adv-x="119" 
d="M-165 0l455 662h54l-454 -662h-55z" />
    <glyph glyph-name="onehalf" unicode="&#xbd;" horiz-adv-x="615" 
d="M169 370l52 244l-80 -17l8 34l121 23l-61 -284h-40zM63 0l480 644h52l-480 -644h-52zM334 0l5 26q20 27 45.5 47.5t55.5 41.5q43 30 58.5 47t19.5 40q5 23 -5.5 35t-45.5 12q-16 0 -36 -3.5t-37 -8.5l7 34q14 5 37 9t45 4q44 0 64.5 -23.5t12.5 -58.5q-6 -31 -26 -51
t-58 -48q-25 -19 -45 -33t-37 -36h133l-7 -34h-186z" />
    <glyph glyph-name="uni2153" unicode="&#x2153;" horiz-adv-x="627" 
d="M169 370l52 244l-80 -17l8 34l121 23l-61 -284h-40zM63 0l480 644h52l-480 -644h-52zM416 -10q-21 0 -41.5 3.5t-30.5 8.5l7 33q30 -12 66 -12q42 0 62 12t25 39q10 48 -61 48h-35l11 32h27q36 0 55 11.5t25 39.5q5 24 -8.5 34t-51.5 10q-16 0 -33.5 -3t-33.5 -8l7 33
q12 5 33 8t41 3q56 0 76.5 -20.5t12.5 -55.5q-4 -22 -19.5 -41t-43.5 -27q29 -6 37.5 -24t3.5 -41q-17 -83 -131 -83z" />
    <glyph glyph-name="uni2154" unicode="&#x2154;" horiz-adv-x="640" 
d="M93 370l6 26q18 27 44 47.5t57 41.5q42 30 57.5 47t20.5 40t-6.5 35t-44.5 12q-17 0 -36.5 -3.5t-36.5 -8.5l7 34q14 5 37 9t45 4q46 0 65 -23.5t11 -58.5q-7 -31 -26.5 -51t-57.5 -48q-25 -19 -45 -33t-38 -36h134l-7 -34h-186zM76 0l479 644h53l-480 -644h-52zM428 -10
q-20 0 -40.5 3.5t-31.5 8.5l7 33q30 -12 66 -12q42 0 62.5 12t25.5 39q10 48 -62 48h-34l11 32h27q35 0 54.5 11.5t25.5 39.5q5 24 -9 34t-51 10q-17 0 -34.5 -3t-33.5 -8l7 33q13 5 34 8t40 3q56 0 76.5 -20.5t12.5 -55.5q-4 -22 -19 -41t-43 -27q29 -6 37.5 -24t3.5 -41
q-17 -83 -132 -83z" />
    <glyph glyph-name="onequarter" unicode="&#xbc;" horiz-adv-x="616" 
d="M169 370l52 244l-80 -17l8 34l121 23l-61 -284h-40zM63 0l480 644h52l-480 -644h-52zM450 0l13 62h-155l7 34l187 188h48l-40 -189h31l-7 -33h-31l-13 -62h-40zM354 95h123l33 158z" />
    <glyph glyph-name="threequarters" unicode="&#xbe;" horiz-adv-x="630" 
d="M166 362q-21 0 -41 3.5t-31 7.5l7 33q30 -12 66 -12q42 0 61.5 12t25.5 40q11 48 -60 48h-35l10 31h27q36 0 55 11.5t25 39.5q5 24 -8.5 34.5t-51.5 10.5q-32 0 -67 -11l7 33q12 4 33.5 7.5t41.5 3.5q59 0 77.5 -21t10.5 -55q-4 -22 -19.5 -41.5t-43.5 -27.5
q29 -6 37.5 -23.5t3.5 -40.5q-17 -83 -131 -83zM77 0l479 644h52l-479 -644h-52zM464 0l13 62h-155l7 34l186 188h49l-40 -189h31l-7 -33h-31l-13 -62h-40zM368 95h122l33 158z" />
    <glyph glyph-name="oneeighth" unicode="&#x215b;" horiz-adv-x="633" 
d="M169 370l52 244l-80 -17l8 34l121 23l-61 -284h-40zM63 0l480 644h52l-480 -644h-52zM426 -10q-48 0 -74 20t-18 57q5 27 24.5 46t49.5 25q-26 8 -33.5 26.5t-3.5 40.5q8 35 38.5 56t78.5 21q49 0 71 -21t14 -56q-4 -22 -19.5 -40.5t-46.5 -27.5q29 -7 39.5 -25.5
t5.5 -44.5q-8 -37 -42.5 -57t-83.5 -20zM478 154q26 6 39 17.5t17 33.5q9 46 -52 46q-63 0 -72 -46q-9 -45 43 -49zM433 20q32 0 53 12t26 35q5 26 -9 37.5t-49 14.5q-9 1 -16.5 0.5t-15.5 -2.5q-19 -7 -30.5 -18t-16.5 -31q-5 -24 10.5 -36t47.5 -12z" />
    <glyph glyph-name="threeeighths" unicode="&#x215c;" horiz-adv-x="634" 
d="M166 362q-21 0 -41 3.5t-31 7.5l7 34q30 -12 66 -12q42 0 61.5 11.5t25.5 39.5q11 48 -60 48h-35l10 31h27q36 0 55 11.5t25 39.5q5 25 -8.5 34.5t-51.5 9.5q-34 0 -67 -11l7 34q12 4 33.5 7.5t41.5 3.5q59 0 77.5 -21t10.5 -55q-4 -22 -19.5 -41.5t-43.5 -27.5
q29 -6 37.5 -23.5t3.5 -40.5q-17 -83 -131 -83zM65 0l479 644h52l-479 -644h-52zM427 -10q-48 0 -74 20t-18 57q5 27 24.5 46t49.5 25q-26 8 -33.5 26.5t-3.5 40.5q8 35 38.5 56t78.5 21q49 0 71 -21t14 -56q-4 -22 -19.5 -40.5t-46.5 -27.5q29 -7 39.5 -25.5t5.5 -44.5
q-8 -37 -42.5 -57t-83.5 -20zM479 154q26 6 39 17.5t17 33.5q9 46 -52 46q-63 0 -72 -46q-9 -45 43 -49zM434 20q32 0 53 12t26 35q5 26 -9 37.5t-49 14.5q-9 1 -16.5 0.5t-15.5 -2.5q-19 -7 -30.5 -18t-16.5 -31q-5 -24 10.5 -36t47.5 -12z" />
    <glyph glyph-name="fiveeighths" unicode="&#x215d;" horiz-adv-x="618" 
d="M49 0l479 644h53l-480 -644h-52zM164 362q-19 0 -39 3t-31 7l7 36q14 -7 31.5 -9.5t35.5 -2.5q39 0 61 11.5t29 42.5q6 29 -5.5 40t-51.5 11h-80l7 33l30 110h162l-10 -35h-124l-20 -76h54q53 0 71 -21.5t9 -62.5q-9 -40 -43 -63.5t-93 -23.5zM412 -10q-49 0 -74.5 20
t-17.5 57q5 27 24 46t49 25q-26 8 -33 26.5t-3 40.5q8 35 38 56t79 21q48 0 70 -21t14 -56q-4 -22 -19 -40.5t-46 -27.5q29 -7 39 -25.5t5 -44.5q-8 -37 -42.5 -57t-82.5 -20zM464 154q25 6 38 17.5t17 33.5q9 46 -51 46q-63 0 -72 -46q-9 -45 42 -49zM419 20q32 0 52.5 12
t25.5 35q5 26 -9 37.5t-48 14.5q-9 1 -16.5 0.5t-15.5 -2.5q-19 -7 -31 -18t-17 -31q-5 -24 11 -36t48 -12z" />
    <glyph glyph-name="seveneighths" unicode="&#x215e;" horiz-adv-x="636" 
d="M67 0l479 644h53l-480 -644h-52zM145 370l151 237h-152l7 37h196l-8 -38l-150 -236h-44zM430 -10q-49 0 -74.5 20t-17.5 57q5 27 24 46t49 25q-26 8 -33 26.5t-3 40.5q8 35 38 56t79 21q48 0 70 -21t14 -56q-4 -22 -19 -40.5t-46 -27.5q29 -7 39 -25.5t5 -44.5
q-8 -37 -42.5 -57t-82.5 -20zM482 154q25 6 38 17.5t17 33.5q9 46 -51 46q-63 0 -72 -46q-9 -45 42 -49zM437 20q32 0 52.5 12t25.5 35q5 26 -9 37.5t-48 14.5q-9 1 -16.5 0.5t-15.5 -2.5q-19 -7 -31 -18t-17 -31q-5 -24 11 -36t48 -12z" />
    <glyph glyph-name="uni0E50" unicode="&#xe50;" horiz-adv-x="613" 
d="M263 -10q-116 0 -170 62.5t-28 184.5t104.5 184.5t198.5 62.5q115 0 170.5 -62.5t29.5 -184.5t-103.5 -184.5t-201.5 -62.5zM273 37q95 0 156.5 48.5t83.5 151.5q22 102 -13 150.5t-142 48.5q-94 0 -155 -48.5t-84 -150.5q-23 -106 14.5 -153t139.5 -47z" />
    <glyph glyph-name="uni0E51" unicode="&#xe51;" horiz-adv-x="641" 
d="M232 -103l10 50q119 26 195.5 91.5t100.5 179.5q15 69 5.5 117.5t-50 74.5t-120.5 26q-106 0 -169 -47.5t-82 -138.5q-17 -79 8.5 -116t106.5 -37q28 0 57 6.5t48 18.5l-9 -46q-23 -12 -51.5 -19t-62.5 -7q-88 0 -130 52t-21 148q23 110 101 172t214 62q135 0 185 -71
t24 -196q-25 -119 -115 -203.5t-245 -116.5z" />
    <glyph glyph-name="uni0E52" unicode="&#xe52;" horiz-adv-x="686" 
d="M303 -10q-78 0 -134 24.5t-80 76t-8 130.5l68 319h52l-69 -324q-19 -93 25 -136.5t156 -43.5q93 0 161 37.5t86 119.5l34 164q10 47 0 64.5t-46 17.5q-52 0 -85 -53h-35q-7 27 -19 40t-41 13q-37 0 -60.5 -29.5t-37.5 -92.5q-13 -58 5.5 -77.5t72.5 -19.5q18 0 36 2t32 6
l-9 -41q-33 -9 -79 -9q-59 0 -90 33t-15 106q19 88 58.5 127.5t90.5 39.5q35 0 51.5 -12t29.5 -38q28 28 57 39t59 11q50 0 71 -30.5t8 -89.5l-35 -162q-22 -106 -104 -159t-206 -53z" />
    <glyph glyph-name="uni0E53" unicode="&#xe53;" horiz-adv-x="629" 
d="M219 -10q-64 0 -106 21t-56 72t5 142q29 133 80.5 196t131.5 63q71 0 94 -54q26 29 60.5 41.5t65.5 12.5q51 0 80.5 -29t16.5 -89l-77 -366h-55l76 358q9 44 -4.5 61t-55.5 17q-26 0 -56 -16t-38 -49l-20 -95h-48l20 95q8 34 -13 49.5t-49 15.5q-61 0 -96.5 -53.5
t-58.5 -157.5q-16 -79 -7 -119.5t42.5 -54.5t89.5 -14q18 0 37 2t33 6l-10 -47q-16 -4 -36 -6t-46 -2z" />
    <glyph glyph-name="uni0E54" unicode="&#xe54;" horiz-adv-x="631" 
d="M239 -10q-103 0 -152 61t-25 174q26 123 118 191t251 68q54 0 91.5 3t67.5 12.5t60 26.5l-10 -49q-43 -25 -94 -33t-124 -8q-134 0 -208.5 -52t-97.5 -159q-21 -95 11.5 -141.5t125.5 -46.5q21 0 41.5 5t41.5 16q-23 35 -11 94q12 60 56.5 92.5t109.5 32.5q57 0 85 -17
l-10 -44q-10 8 -28 12.5t-38 4.5q-52 0 -83.5 -18.5t-40.5 -63.5q-13 -64 20.5 -83.5t105.5 -19.5h64l-10 -48h-55q-84 0 -131 27q-30 -19 -63 -28t-68 -9z" />
    <glyph glyph-name="uni0E55" unicode="&#xe55;" horiz-adv-x="631" 
d="M239 -10q-103 0 -152 61t-25 174q20 95 78.5 157.5t167.5 84.5q-22 5 -43 16t-31 21l10 49q21 -18 54 -34t71 -25.5t72 -9.5q50 0 86 3.5t65 12.5t58 26l-10 -49q-43 -25 -94 -33t-124 -8q-260 0 -306 -211q-21 -95 11.5 -141.5t125.5 -46.5q21 0 41.5 5t41.5 16
q-23 35 -11 94q12 60 56.5 92.5t109.5 32.5q57 0 85 -17l-10 -44q-10 8 -28 12.5t-38 4.5q-52 0 -83.5 -18.5t-40.5 -63.5q-13 -64 20.5 -83.5t105.5 -19.5h64l-10 -48h-55q-84 0 -131 27q-30 -19 -63 -28t-68 -9z" />
    <glyph glyph-name="uni0E56" unicode="&#xe56;" horiz-adv-x="648" 
d="M301 -10q-54 0 -102.5 14.5t-77.5 43.5l10 50q38 -34 82 -47.5t96 -13.5q95 0 157 50.5t82 147.5q14 63 9 108t-38 69t-104 24t-128 -34.5t-98 -116.5h-46l-34 255h51l25 -193q38 62 99 99.5t143 37.5q78 0 121.5 -32t56.5 -88t-3 -129q-23 -112 -99 -178.5t-202 -66.5z
" />
    <glyph glyph-name="uni0E57" unicode="&#xe57;" horiz-adv-x="852" 
d="M219 -10q-60 0 -102.5 21t-58 72.5t3.5 141.5q29 133 78.5 196t131.5 63q38 0 60 -14t34 -40q26 29 60.5 41.5t65.5 12.5q53 0 81.5 -28.5t14.5 -90.5l-68 -320h15q83 0 128 33t64 122l72 340h52l-70 -329q-16 -75 -47 -121.5t-83.5 -68t-134.5 -21.5h-57l76 358
q9 44 -6.5 61.5t-56.5 17.5q-17 0 -36.5 -7t-35 -21.5t-20.5 -36.5l-21 -96h-50l20 95q8 34 -12.5 50t-48.5 16q-64 0 -97.5 -55.5t-55.5 -156.5q-17 -80 -7.5 -121t43.5 -54.5t90 -13.5q18 0 37 2t34 6l-10 -46q-17 -4 -37.5 -6t-45.5 -2z" />
    <glyph glyph-name="uni0E58" unicode="&#xe58;" horiz-adv-x="623" 
d="M171 -10q-71 0 -103 56t-5 184q29 137 110.5 195.5t222.5 58.5q80 0 137.5 7.5t105.5 34.5l-10 -49q-44 -25 -104.5 -33t-137.5 -8q-73 0 -127.5 -18t-89.5 -62.5t-53 -125.5q-22 -105 -7.5 -149t78.5 -44q31 0 60.5 16t36.5 50l20 91h45l-20 -92q-4 -22 7 -36.5
t29.5 -21.5t35.5 -7q26 0 46 4.5t42 17.5l38 180h-82l13 41h128l-53 -251q-32 -19 -62 -29t-74 -10q-34 0 -59.5 13t-39.5 40q-22 -28 -56 -40.5t-72 -12.5z" />
    <glyph glyph-name="uni0E59" unicode="&#xe59;" horiz-adv-x="740" 
d="M196 -10q-50 0 -87 24.5t-50.5 77t4.5 134.5q28 132 80.5 195t134.5 63q44 0 65 -14t30 -40q23 28 54 41t68 13q29 0 52.5 -11.5t35.5 -35.5t4 -63l-4 -21h8q53 0 81 23t41 87l12 57h50l-10 -45q-12 -60 -34.5 -97t-61 -54t-100.5 -17h-40l10 48q10 45 0.5 63.5
t-53.5 18.5q-38 0 -67 -19.5t-26 -51.5l30 -366h-50l-31 373q-3 30 -17.5 47t-52.5 17q-61 0 -97.5 -54t-59.5 -158q-15 -72 -8 -113t35 -58.5t75 -17.5q17 0 34.5 2t31.5 6l-10 -47q-31 -7 -77 -7z" />
    <glyph glyph-name="period" unicode="." horiz-adv-x="163" 
d="M15 0l10 51h53l-10 -51h-53z" />
    <glyph glyph-name="comma" unicode="," horiz-adv-x="189" 
d="M-11 -120l61 165h53l-73 -165h-41z" />
    <glyph glyph-name="colon" unicode=":" horiz-adv-x="164" 
d="M85 332l11 52h54l-11 -52h-54zM21 30l11 52h54l-11 -52h-54z" />
    <glyph glyph-name="semicolon" unicode=";" horiz-adv-x="190" 
d="M112 332l11 52h53l-11 -52h-53zM-5 -94l61 165h53l-73 -165h-41z" />
    <glyph glyph-name="ellipsis" unicode="&#x2026;" horiz-adv-x="539" 
d="M392 0l10 50h52l-10 -50h-52zM15 0l10 50h52l-10 -50h-52zM203 0l10 50h52l-10 -50h-52z" />
    <glyph glyph-name="exclam" unicode="!" horiz-adv-x="171" 
d="M55 146l67 345l32 153h55l-32 -153l-78 -345h-44zM15 0l10 48h61l-10 -48h-61z" />
    <glyph glyph-name="exclamdown" unicode="&#xa1;" horiz-adv-x="171" 
d="M89 426l10 48h61l-10 -48h-61zM-34 -170l32 153l78 345h44l-67 -345l-32 -153h-55z" />
    <glyph glyph-name="question" unicode="?" horiz-adv-x="488" 
d="M167 148l5 24q10 44 33.5 73.5t54.5 52.5t61 44q42 29 75.5 59t43.5 77q14 63 -13.5 95.5t-121.5 32.5q-47 0 -90 -9.5t-79 -25.5l10 48q33 16 80 25.5t100 9.5q101 0 143.5 -46t24.5 -129q-12 -58 -49.5 -93t-87.5 -70q-36 -25 -62.5 -44.5t-43.5 -42.5t-25 -60l-4 -21
h-55zM133 0l10 48h61l-10 -48h-61z" />
    <glyph glyph-name="questiondown" unicode="&#xbf;" horiz-adv-x="488" 
d="M287 426l10 48h61l-10 -48h-61zM165 -180q-100 0 -142.5 46.5t-25.5 128.5q12 58 49.5 93t87.5 70q37 26 63.5 45t43.5 42t24 60l4 21h55l-5 -24q-9 -43 -33 -73t-54.5 -52.5t-61.5 -44.5q-42 -29 -75.5 -59t-43.5 -77q-8 -42 0 -70.5t40.5 -43t94.5 -14.5q47 0 90 9.5
t79 25.5l-10 -48q-33 -16 -80 -25.5t-100 -9.5z" />
    <glyph glyph-name="periodcentered" unicode="&#xb7;" horiz-adv-x="163" 
d="M69 258l11 51h53l-11 -51h-53z" />
    <glyph glyph-name="bullet" unicode="&#x2022;" horiz-adv-x="341" 
d="M166 172q-48 0 -74 33t-16 82q7 32 27.5 58.5t50 42t61.5 15.5q48 0 75 -34t17 -82q-7 -33 -28.5 -59t-51 -41t-61.5 -15z" />
    <glyph glyph-name="asterisk" unicode="*" horiz-adv-x="421" 
d="M155 346l-32 29l118 110l-113 50l26 37l106 -55l23 127h47l-31 -127l129 55l11 -39l-137 -51l74 -109l-39 -27l-66 117z" />
    <glyph glyph-name="numbersign" unicode="#" horiz-adv-x="694" 
d="M53 0l98 187h-97l9 41h109l98 186h-120l9 42h133l99 188h50l-99 -188h207l99 188h51l-99 -188h95l-9 -42h-108l-98 -186h119l-9 -41h-132l-98 -187h-50l98 187h-208l-98 -187h-49zM222 228h207l98 186h-207z" />
    <glyph glyph-name="slash" unicode="/" horiz-adv-x="399" 
d="M15 0l374 662h55l-374 -662h-55z" />
    <glyph glyph-name="backslash" unicode="\" horiz-adv-x="418" 
d="M256 -54l-101 716h55l101 -716h-55z" />
    <glyph glyph-name="uni208D" unicode="&#x208d;" horiz-adv-x="213" 
d="M39 -146q-22 29 -26 75.5t5 86.5q8 40 32 86.5t58 75.5h47q-40 -33 -63.5 -76t-32.5 -86t-3.5 -86.5t30.5 -75.5h-47z" />
    <glyph glyph-name="uni208E" unicode="&#x208e;" horiz-adv-x="213" 
d="M-17 -146q41 32 64.5 75.5t32.5 86.5t3.5 86t-31.5 76h46q23 -29 27 -75.5t-4 -86.5q-9 -40 -33 -86.5t-59 -75.5h-46z" />
    <glyph glyph-name="parenleft" unicode="(" horiz-adv-x="292" 
d="M138 -72q-44 44 -60.5 107t-14 133.5t15.5 134.5q14 64 41 134t71 133.5t107 107.5h63q-94 -66 -148.5 -161.5t-79.5 -213.5t-11 -213.5t79 -161.5h-63z" />
    <glyph glyph-name="parenright" unicode=")" horiz-adv-x="292" 
d="M-21 -72q93 66 147.5 161.5t79.5 213.5t11.5 213.5t-78.5 161.5h63q44 -44 60.5 -107.5t14.5 -133.5t-16 -134q-13 -64 -40.5 -134.5t-71.5 -133.5t-107 -107h-63z" />
    <glyph glyph-name="braceleft" unicode="{" horiz-adv-x="285" 
d="M145 -104q-54 0 -74 21.5t-9 76.5l40 185q9 45 1.5 69.5t-49.5 29.5l8 40q45 5 62.5 29.5t27.5 69.5l39 185q12 55 41.5 76.5t83.5 21.5h32l-9 -45h-24q-33 0 -47.5 -12.5t-22.5 -47.5l-45 -209q-5 -26 -24 -54t-56 -38q32 -10 39.5 -38t1.5 -54l-42 -201q-7 -35 2 -47.5
t42 -12.5h24l-10 -45h-32z" />
    <glyph glyph-name="braceright" unicode="}" horiz-adv-x="285" 
d="M-18 -104l10 45h24q33 0 48 12.5t22 47.5l43 205q6 26 25 54t56 38q-32 10 -39.5 38t-2.5 54l44 205q8 35 -1.5 47.5t-42.5 12.5h-24l9 45h32q54 0 74.5 -21.5t8.5 -76.5l-39 -185q-10 -45 -2 -69.5t50 -29.5l-8 -40q-45 -5 -63 -29.5t-27 -69.5l-40 -185
q-11 -55 -41 -76.5t-84 -21.5h-32z" />
    <glyph glyph-name="bracketleft" unicode="[" horiz-adv-x="333" 
d="M-7 -99l172 805h231l-8 -45h-178l-152 -716h178l-12 -44h-231z" />
    <glyph glyph-name="bracketright" unicode="]" horiz-adv-x="333" 
d="M-15 -99l8 44h178l152 716h-178l12 45h231l-172 -805h-231z" />
    <glyph glyph-name="uni207D" unicode="&#x207d;" horiz-adv-x="213" 
d="M145 352q-22 29 -26 75.5t5 86.5q8 40 32 86.5t58 75.5h47q-40 -33 -63.5 -76t-32.5 -86q-10 -43 -4.5 -86.5t31.5 -75.5h-47z" />
    <glyph glyph-name="uni207E" unicode="&#x207e;" horiz-adv-x="213" 
d="M89 352q40 32 63.5 75.5t33.5 86.5q9 43 3.5 86t-31.5 76h47q23 -29 26.5 -75.5t-4.5 -86.5q-9 -40 -32.5 -86.5t-58.5 -75.5h-47z" />
    <glyph glyph-name="hyphen" unicode="-" horiz-adv-x="482" 
d="M64 235l10 45h372l-10 -45h-372z" />
    <glyph glyph-name="uni00AD" unicode="&#xad;" horiz-adv-x="482" 
d="M64 235l10 45h372l-10 -45h-372z" />
    <glyph glyph-name="endash" unicode="&#x2013;" horiz-adv-x="591" 
d="M64 235l10 45h481l-10 -45h-481z" />
    <glyph glyph-name="emdash" unicode="&#x2014;" horiz-adv-x="893" 
d="M64 235l10 45h783l-10 -45h-783z" />
    <glyph glyph-name="figuredash" unicode="&#x2012;" horiz-adv-x="620" 
d="M64 235l10 45h510l-10 -45h-510z" />
    <glyph glyph-name="uni2015" unicode="&#x2015;" horiz-adv-x="941" 
d="M64 235l10 45h831l-10 -45h-831z" />
    <glyph glyph-name="uni2010" unicode="&#x2010;" horiz-adv-x="513" 
d="M64 235l10 45h403l-10 -45h-403z" />
    <glyph glyph-name="underscore" unicode="_" horiz-adv-x="554" 
d="M5 -45l10 45h444l-10 -45h-444z" />
    <glyph glyph-name="quotesinglbase" unicode="&#x201a;" horiz-adv-x="210" 
d="M-15 -138l83 171h54l-95 -171h-42z" />
    <glyph glyph-name="quotedblbase" unicode="&#x201e;" horiz-adv-x="333" 
d="M114 -123l83 171h51l-95 -171h-39zM-12 -123l83 171h51l-95 -171h-39z" />
    <glyph glyph-name="quotedblleft" unicode="&#x201c;" horiz-adv-x="333" 
d="M243 483l95 171h39l-83 -171h-51zM117 483l95 171h39l-83 -171h-51z" />
    <glyph glyph-name="quotedblright" unicode="&#x201d;" horiz-adv-x="333" 
d="M243 483l83 171h51l-95 -171h-39zM117 483l83 171h51l-95 -171h-39z" />
    <glyph glyph-name="quoteleft" unicode="&#x2018;" horiz-adv-x="210" 
d="M117 483l95 171h42l-83 -171h-54z" />
    <glyph glyph-name="quoteright" unicode="&#x2019;" horiz-adv-x="210" 
d="M117 483l83 171h54l-95 -171h-42z" />
    <glyph glyph-name="guillemotleft" unicode="&#xab;" horiz-adv-x="581" 
d="M480 87l-211 184l7 32l289 184l17 -37l-258 -166l187 -166zM283 87l-211 184l7 32l289 184l16 -37l-257 -166l186 -166z" />
    <glyph glyph-name="guillemotright" unicode="&#xbb;" horiz-adv-x="581" 
d="M254 87l-17 37l259 166l-188 166l31 31l211 -184l-7 -32zM56 87l-16 37l258 166l-187 166l30 31l211 -184l-7 -32z" />
    <glyph glyph-name="guilsinglleft" unicode="&#x2039;" horiz-adv-x="383" 
d="M283 87l-211 184l7 32l289 184l16 -37l-257 -166l186 -166z" />
    <glyph glyph-name="guilsinglright" unicode="&#x203a;" horiz-adv-x="383" 
d="M56 87l-16 37l258 166l-187 166l30 31l211 -184l-7 -32z" />
    <glyph glyph-name="quotedbl" unicode="&#x22;" horiz-adv-x="297" 
d="M250 479l35 165h53l-47 -165h-41zM116 479l35 165h53l-47 -165h-41z" />
    <glyph glyph-name="quotesingle" unicode="'" horiz-adv-x="163" 
d="M116 479l35 165h53l-47 -165h-41z" />
    <glyph glyph-name="uni0E5A" unicode="&#xe5a;" horiz-adv-x="761" 
d="M325 0l72 342q-31 -19 -69 -30.5t-83 -11.5q-75 0 -112 40.5t-24 101.5q14 58 38 98h55q-27 -39 -39 -95q-9 -44 11.5 -70.5t84.5 -26.5q87 0 148 42l32 150h55l-37 -177q11 -8 28.5 -11.5t40.5 -3.5q86 0 147 42l32 150h55l-114 -540h-55l72 342q-31 -19 -68.5 -30.5
t-82.5 -11.5q-43 0 -66 13l-66 -313h-55z" />
    <glyph glyph-name="uni0E4F" unicode="&#xe4f;" horiz-adv-x="611" 
d="M263 -10q-69 0 -119 33.5t-71.5 90.5t-6.5 126q11 52 40 97.5t71 80t91.5 54t101.5 19.5q69 0 118.5 -34t71.5 -91t7 -126q-11 -52 -40.5 -97.5t-71 -79.5t-91 -53.5t-101.5 -19.5zM273 37q56 0 108 27.5t89.5 73.5t49.5 102t-3 102t-54 73.5t-103 27.5q-56 0 -108 -27.5
t-89 -73.5t-49 -102t1.5 -102t53 -73.5t104.5 -27.5zM289 110q-36 0 -62 17.5t-37 47t-3 65.5t31 65.5t56.5 46.5t69.5 17t61.5 -17t37 -46.5t3.5 -65.5t-32 -65.5t-56.5 -47t-68.5 -17.5zM298 155q35 0 66 25t38 60q8 35 -8.5 60.5t-58.5 25.5q-36 0 -66 -25.5t-38 -60.5
q-7 -35 8.5 -60t58.5 -25z" />
    <glyph glyph-name="uni0E5B" unicode="&#xe5b;" horiz-adv-x="1165" 
d="M282 22q-127 0 -179.5 72.5t-25.5 197.5q16 74 52 132.5t92.5 92t130.5 33.5q98 0 135.5 -50.5t19.5 -133.5q-13 -63 -53.5 -109.5t-113.5 -73.5l11 49q50 24 72.5 57.5t31.5 76.5q10 44 5.5 75t-31.5 47.5t-85 16.5q-87 0 -141.5 -58t-74.5 -153q-24 -113 13.5 -170
t150.5 -57q82 0 141.5 34t98 93.5t54.5 137.5q9 41 12 71t4 65h65q17 -46 27 -107t8 -114h2q15 27 31 64t29 74t16 62h52q6 -18 11.5 -50t10 -68.5t5.5 -69.5h2q11 20 24.5 51t26 65t19.5 60h46q6 -19 11.5 -49t9 -61t3.5 -52h2q17 26 30 60.5t20 77.5h37q-4 -17 -7.5 -34.5
t-8.5 -30.5h69l-11 -38h-73q-10 -24 -22 -43.5t-29 -43.5h-42q1 17 -1 46.5t-6 60t-10 48.5h-2q-4 -13 -13 -36.5t-20 -50t-22.5 -50.5t-19.5 -39h-52q3 44 -2 96.5t-16 89.5h-2q-6 -22 -21.5 -60.5t-34 -78.5t-34.5 -68h-51q6 33 4.5 73.5t-7 80t-12.5 67.5h-2
q-10 -111 -55 -196.5t-122 -133.5t-183 -48z" />
    <glyph glyph-name="uni0E46" unicode="&#xe46;" horiz-adv-x="554" 
d="M384 0l89 423q7 33 4 51.5t-26 23.5q-18 4 -43 -2q-38 -8 -66 -45h-34q-7 26 -18 38.5t-39 12.5q-31 0 -58.5 -27t-41.5 -90q-13 -60 7.5 -83.5t74.5 -23.5q19 0 37 2t33 6l-10 -47q-34 -9 -81 -9q-64 0 -97.5 38t-17.5 117q18 83 60 124t97 41q34 0 51 -11.5t28 -38.5
q26 27 56 38.5t61 11.5q60 0 74.5 -37.5t-2.5 -117.5l-83 -395h-55z" />
    <glyph glyph-name="uni0E2F" unicode="&#xe2f;" horiz-adv-x="495" 
d="M325 0l72 342q-31 -19 -69 -30.5t-83 -11.5q-75 0 -112 40.5t-24 101.5q14 58 38 98h55q-27 -39 -39 -95q-10 -48 10 -72.5t86 -24.5q87 0 148 42l32 150h55l-114 -540h-55z" />
    <glyph glyph-name="uni2007" unicode="&#x2007;" horiz-adv-x="639" 
 />
    <glyph glyph-name="space" unicode=" " horiz-adv-x="235" 
 />
    <glyph glyph-name="uni00A0" unicode="&#xa0;" horiz-adv-x="235" 
 />
    <glyph glyph-name="CR" unicode="&#xd;" horiz-adv-x="235" 
 />
    <glyph glyph-name="uni0E3F" unicode="&#xe3f;" horiz-adv-x="619" 
d="M209 -86l18 86h-192l136 644h193l19 86h45l-19 -86h45q90 0 126 -44t19 -124q-12 -54 -42 -91t-73 -54q48 -11 70 -47t8 -102q-20 -94 -76 -138t-149 -44h-65l-18 -86h-45zM165 354h137l53 246h-138zM348 354h50q68 0 102.5 33.5t45.5 85.5q9 41 4.5 69.5t-31.5 43
t-86 14.5h-33zM99 43h137l57 268h-137zM281 43h60q71 0 111.5 32.5t56.5 108.5q13 62 -12.5 94.5t-113.5 32.5h-44z" />
    <glyph glyph-name="uni20B5" unicode="&#x20b5;" horiz-adv-x="589" 
d="M257 -120l23 111q-91 6 -141.5 46.5t-64.5 109t5 157.5q22 100 63.5 176.5t109.5 121.5t169 51l18 82h46l-18 -81q48 -1 87.5 -9t71.5 -20l-10 -49q-33 13 -73.5 21t-85.5 9l-121 -569q42 1 87 7.5t84 19.5l-10 -49q-73 -22 -171 -25l-23 -110h-46zM290 38l121 566
q-82 -6 -137.5 -45t-89 -104t-51.5 -151q-17 -78 -8.5 -135.5t48.5 -91t117 -39.5z" />
    <glyph glyph-name="cent" unicode="&#xa2;" horiz-adv-x="483" 
d="M207 -86l16 77q-105 7 -143.5 71t-14.5 175q24 116 93.5 176.5t169.5 68.5l17 78h44l-16 -76q39 -1 63.5 -8t47.5 -18l-10 -45q-47 24 -111 25l-86 -403q31 1 63 8t60 18l-9 -46q-56 -21 -124 -24l-16 -77h-44zM233 36l85 399q-76 -9 -127.5 -57.5t-71.5 -140.5
q-20 -94 4 -143.5t110 -57.5z" />
    <glyph glyph-name="colonmonetary" unicode="&#x20a1;" horiz-adv-x="574" 
d="M72 -31l52 112q-78 69 -45 223q29 134 97.5 213t194.5 93l28 61h48l-27 -57h8q17 0 33.5 -1t31.5 -3l28 61h48l-31 -67q17 -4 33.5 -9t31.5 -10l-11 -49q-17 7 -36 12.5t-40 9.5l-224 -481h29q44 0 91.5 7t88.5 20l-11 -49q-40 -12 -85.5 -18.5t-100.5 -6.5h-17t-16 1
l-29 -62h-48l31 67q-18 4 -34.5 9.5t-30.5 12.5l-41 -89h-47zM246 82l225 482q-12 1 -24 1.5t-24 0.5h-13.5t-12.5 -1l-216 -463q14 -7 30 -12t35 -8zM147 131l200 428q-93 -17 -142 -81t-72 -174q-13 -60 -10.5 -102.5t24.5 -70.5z" />
    <glyph glyph-name="currency" unicode="&#xa4;" horiz-adv-x="571" 
d="M55 66l-19 34l97 63q-27 45 -13 106q12 59 58 105l-70 64l33 33l70 -67q29 22 62 34t67 12q69 0 109 -46l101 67l19 -33l-98 -64q12 -22 16 -49t-2 -56q-7 -30 -22.5 -57t-36.5 -50l71 -63l-33 -33l-72 66q-28 -21 -60.5 -33t-67.5 -12q-34 0 -62 12t-48 33zM272 129
q39 0 74 19t60.5 51t33.5 70q12 58 -17 98.5t-92 40.5q-38 0 -73 -18.5t-60 -50t-33 -70.5q-13 -58 15 -99t92 -41z" />
    <glyph glyph-name="dollar" unicode="$" horiz-adv-x="553" 
d="M194 -86l16 76q-113 1 -176 28l11 49q74 -30 175 -30l58 270q-1 0 -1.5 0.5l-0.5 0.5q-95 24 -134.5 64.5t-24.5 108.5q15 72 71.5 118.5t162.5 53.5l17 77h46l-16 -76q50 -1 91.5 -8.5t62.5 -15.5l-10 -49q-67 25 -155 25l-55 -260q104 -27 139 -71.5t21 -110.5
q-16 -79 -73 -122.5t-163 -49.5l-16 -78h-46zM288 357l53 247q-72 -7 -115.5 -36t-54.5 -87q-7 -33 0.5 -55t35.5 -38t81 -31zM266 38q74 6 116.5 36t55.5 90q11 54 -16.5 82t-100.5 49z" />
    <glyph glyph-name="dong" unicode="&#x20ab;" horiz-adv-x="589" 
d="M224 -10q-61 0 -104 25t-58.5 78.5t2.5 139.5q28 129 99 190t171 61q49 0 85 -11.5t67 -38.5l26 122h-170l9 45h170l16 73h55l-16 -73h65l-9 -45h-65l-118 -556h-46l6 53q-41 -32 -85.5 -47.5t-99.5 -15.5zM247 35q47 0 88.5 15.5t79.5 48.5l61 287q-23 24 -55 38t-81 14
q-84 0 -141.5 -49t-80.5 -156q-22 -101 7 -149.5t122 -48.5zM44 -107l9 45h403l-9 -45h-403z" />
    <glyph glyph-name="Euro" unicode="&#x20ac;" horiz-adv-x="586" 
d="M327 -10q-112 0 -162 55t-50 149h-69l8 41h63q2 16 4.5 33t6.5 35q4 17 8 34.5t8 33.5h-61l9 41h66q26 74 66 128t100 84t145 30q54 0 91.5 -7.5t72.5 -21.5l-10 -49q-36 15 -73 22.5t-88 7.5q-100 0 -158.5 -52t-90.5 -142h260l-9 -41h-264q-5 -16 -9 -33t-8 -35
q-7 -35 -12 -68h264l-8 -41h-259q-2 -76 36.5 -116.5t139.5 -40.5q46 0 87.5 6.5t82.5 19.5l-10 -48q-41 -12 -81.5 -18.5t-95.5 -6.5z" />
    <glyph glyph-name="florin" unicode="&#x192;" horiz-adv-x="518" 
d="M-73 -123q-23 0 -39.5 3.5t-30.5 8.5l15 44q14 -6 29 -8.5t32 -2.5q54 0 83.5 21t51.5 70l176 415h-73l19 46h73l35 80q30 69 75 102.5t121 33.5q23 0 41 -3.5t31 -9.5l-15 -43q-27 11 -61 11q-56 0 -87 -24t-51 -68l-34 -79h133l-23 -46h-129l-176 -415
q-28 -65 -71.5 -100.5t-124.5 -35.5z" />
    <glyph glyph-name="uni20B2" unicode="&#x20b2;" horiz-adv-x="633" 
d="M257 -120l23 111q-88 6 -139 46.5t-66 109t4 157.5q22 100 64.5 176.5t111 121.5t166.5 51l18 82h46l-18 -81q48 -1 87.5 -8.5t72.5 -18.5l-11 -49q-69 25 -159 28l-56 -266h209l-64 -301q-29 -17 -83 -32t-137 -17l-23 -110h-46zM290 38l121 566q-81 -6 -136 -45
t-89.5 -104t-52.5 -151q-17 -79 -9.5 -136.5t47 -90.5t119.5 -39zM336 37q44 1 88 9t78 21l48 229h-159z" />
    <glyph glyph-name="lira" unicode="&#x20a4;" horiz-adv-x="505" 
d="M15 0l9 45h27q33 0 52.5 21t27.5 57l18 85h-73l9 45h73l21 97h-73l10 46h73l23 108q15 74 67.5 112t128.5 38q67 0 101 -18l-10 -44q-13 8 -37.5 12t-48.5 4q-61 0 -98 -25t-49 -80l-22 -107h213l-13 -46h-210l-21 -97h213l-12 -45h-210l-18 -82q-5 -27 -15.5 -47.5
t-30.5 -33.5h279l-9 -45h-395z" />
    <glyph glyph-name="uni20BA" unicode="&#x20ba;" horiz-adv-x="574" 
d="M113 0l67 317l-105 -32l9 43l105 32l19 87l-105 -32l9 43l105 32l32 154h55l-29 -136l224 69l-9 -42l-223 -69l-19 -88l224 69l-10 -43l-223 -68l-62 -292q131 1 207 62.5t101 182.5l8 37h55l-8 -37q-31 -143 -123 -216t-248 -73h-56z" />
    <glyph glyph-name="uni20A6" unicode="&#x20a6;" horiz-adv-x="639" 
d="M73 0l44 211h-58l10 45h58l23 109h-58l10 45h57l50 234h53l80 -234h176l50 234h54l-50 -234h59l-10 -45h-58l-23 -109h58l-10 -45h-58l-44 -211h-53l-72 211h-190l-44 -211h-54zM213 410h79l-48 142zM181 256h164l-37 109h-104zM394 256h92l23 109h-152zM451 91l25 120
h-66z" />
    <glyph glyph-name="peseta" unicode="&#x20a7;" horiz-adv-x="1117" 
d="M35 0l136 644h159q102 0 141.5 -55.5t20.5 -145.5q-19 -91 -82 -144t-168 -53h-100l-52 -246h-55zM151 291h95q92 0 135 41t58 111q16 75 -8 115t-114 40h-100zM842 -10q-42 0 -79 5.5t-63 14.5l10 47q63 -21 135 -21q69 0 103.5 19t44.5 65q7 32 -4.5 48.5t-40 28.5
t-72.5 28q-37 14 -66.5 28t-43 38.5t-5.5 67.5q12 62 60 93.5t140 31.5q36 0 68 -4.5t56 -12.5l-10 -47q-55 18 -114 18q-72 0 -104.5 -18.5t-40.5 -59.5q-6 -28 3 -43.5t34 -26.5t66 -25q50 -17 81.5 -35t43.5 -43.5t3 -66.5q-14 -70 -68 -100t-137 -30zM590 -10
q-63 0 -88.5 35t-12.5 98l35 164h-72l9 45h72l27 127l57 15l-30 -142h138l-12 -45h-135l-35 -163q-11 -52 1.5 -72t67.5 -20q12 0 29.5 2.5t35.5 8.5l-9 -41q-36 -12 -78 -12z" />
    <glyph glyph-name="uni20B1" unicode="&#x20b1;" horiz-adv-x="602" 
d="M32 0l76 361h-37l10 44h36l17 80h-36l9 44h37l24 115h249q74 0 115 -31t50 -84h57l-9 -44h-45q-1 -21 -6 -42q-2 -10 -5 -19.5t-6 -18.5h45l-10 -44h-54q-31 -55 -86 -84.5t-134 -29.5h-190l-52 -247h-55zM199 529h330q-7 34 -37 52t-89 18h-189zM172 405h342q3 9 6 18.5
t5 19.5q5 23 6 42h-342zM148 291h184q56 0 95 18.5t63 51.5h-327z" />
    <glyph glyph-name="uni20BD" unicode="&#x20bd;" horiz-adv-x="632" 
d="M78 0l26 123h-63l9 45h63l18 86h-63l10 44h63l73 346h254q103 0 143 -53.5t21 -143.5q-20 -92 -84 -142.5t-168 -50.5h-194l-18 -86h145l-9 -45h-145l-26 -123h-55zM196 298h190q79 0 127.5 39t62.5 109q16 74 -8.5 113.5t-112.5 39.5h-195z" />
    <glyph glyph-name="uni20B9" unicode="&#x20b9;" horiz-adv-x="443" 
d="M219 0l-41 199q-5 25 -15 42t-30.5 25.5t-59.5 8.5l9 41h45q49 0 90 10.5t69.5 37.5t38.5 78h-217l9 41h215q5 62 -19.5 90.5t-97.5 28.5h-73l9 42h333l-9 -42h-130q26 -18 35 -48.5t6 -70.5h64l-9 -41h-62q-14 -67 -64 -109t-130 -50q22 -14 30.5 -27t15.5 -43l44 -213
h-56z" />
    <glyph glyph-name="sterling" unicode="&#xa3;" horiz-adv-x="505" 
d="M15 0l9 45h27q33 0 52.5 21t27.5 57l41 196h-73l10 45h73l30 140q15 74 67 112t129 38q67 0 101 -18l-10 -44q-13 8 -37.5 12t-48.5 4q-65 0 -100 -25t-47 -80l-29 -139h213l-11 -45h-212l-41 -193q-5 -27 -15.5 -47.5t-30.5 -33.5h279l-9 -45h-395z" />
    <glyph glyph-name="yen" unicode="&#xa5;" horiz-adv-x="615" 
d="M239 0l23 110h-163l9 41h163l14 68h-163l9 41h152l-132 384h53l121 -355l271 355h60l-296 -384h153l-9 -41h-163l-14 -68h163l-9 -41h-163l-23 -110h-56z" />
    <glyph glyph-name="uni2219" unicode="&#x2219;" horiz-adv-x="165" 
d="M76 291l12 53h55l-12 -53h-55z" />
    <glyph glyph-name="uni2215" unicode="&#x2215;" horiz-adv-x="479" 
d="M15 0l455 662h54l-454 -662h-55z" />
    <glyph glyph-name="plus" unicode="+" horiz-adv-x="482" 
d="M193 79l33 156h-162l10 45h162l34 162h47l-34 -162h163l-10 -45h-163l-33 -156h-47z" />
    <glyph glyph-name="minus" unicode="&#x2212;" horiz-adv-x="482" 
d="M64 235l10 45h372l-10 -45h-372z" />
    <glyph glyph-name="multiply" unicode="&#xd7;" horiz-adv-x="403" 
d="M301 106l-91 116l-136 -111l-24 31l134 112l-91 115l37 31l90 -117l141 116l25 -31l-141 -117l91 -116z" />
    <glyph glyph-name="divide" unicode="&#xf7;" horiz-adv-x="481" 
d="M255 388l11 54h54l-11 -54h-54zM64 235l10 45h371l-10 -45h-371zM189 79l12 54h54l-12 -54h-54z" />
    <glyph glyph-name="equal" unicode="=" horiz-adv-x="488" 
d="M80 306l8 42h378l-8 -42h-378zM50 167l9 42h378l-9 -42h-378z" />
    <glyph glyph-name="notequal" unicode="&#x2260;" horiz-adv-x="488" 
d="M115 52l65 115h-130l9 42h145l55 97h-179l8 42h195l65 115h52l-65 -115h131l-8 -42h-147l-55 -97h181l-9 -42h-196l-65 -115h-52z" />
    <glyph glyph-name="greater" unicode="&#x3e;" horiz-adv-x="546" 
d="M28 65l12 55l417 174l-344 173l12 51l392 -204l-9 -45z" />
    <glyph glyph-name="less" unicode="&#x3c;" horiz-adv-x="546" 
d="M464 65l-392 204l9 45l480 204l-12 -55l-415 -173l342 -174z" />
    <glyph glyph-name="greaterequal" unicode="&#x2265;" horiz-adv-x="546" 
d="M33 86l10 53l416 172l-342 172l10 47l393 -201l-8 -41zM15 0l9 45h436l-9 -45h-436z" />
    <glyph glyph-name="lessequal" unicode="&#x2264;" horiz-adv-x="546" 
d="M469 86l-393 202l8 41l479 201l-10 -53l-416 -172l342 -172zM15 0l9 45h436l-9 -45h-436z" />
    <glyph glyph-name="plusminus" unicode="&#xb1;" horiz-adv-x="482" 
d="M195 89l34 156h-162l9 45h162l35 162h47l-35 -162h163l-9 -45h-163l-34 -156h-47zM15 0l9 45h372l-9 -45h-372z" />
    <glyph glyph-name="approxequal" unicode="&#x2248;" horiz-adv-x="488" 
d="M355 279q-28 0 -48.5 8t-38 18.5t-37.5 18.5t-49 8q-31 0 -53.5 -8t-52.5 -36l10 50q22 21 48.5 29t56.5 8t51 -8t39.5 -18.5t38 -18.5t46.5 -8q30 0 52 8.5t53 36.5l-11 -51q-22 -22 -48.5 -29.5t-56.5 -7.5zM326 143q-28 0 -48.5 8t-38 18.5t-37.5 18.5t-49 8
q-31 0 -53.5 -8t-52.5 -37l10 50q22 21 48.5 29t56.5 8t51 -8t39.5 -18.5t38 -18.5t46.5 -8q30 0 52 8.5t52 36.5l-10 -51q-22 -22 -48.5 -29t-56.5 -7z" />
    <glyph glyph-name="asciitilde" unicode="~" horiz-adv-x="579" 
d="M420 241q-31 0 -58.5 11t-53 25t-52.5 25t-58 11q-38 0 -68.5 -15t-61.5 -46l12 58q23 23 57.5 38t71.5 15q35 0 62.5 -11t52 -25t50 -25t56.5 -11q38 0 67.5 14.5t60.5 45.5l-12 -58q-22 -24 -55 -38t-71 -14z" />
    <glyph glyph-name="logicalnot" unicode="&#xac;" horiz-adv-x="535" 
d="M425 152l35 167h-378l10 45h425l-45 -212h-47z" />
    <glyph glyph-name="asciicircum" unicode="^" horiz-adv-x="439" 
d="M99 397l189 227h46l94 -227h-50l-72 186l-151 -186h-56z" />
    <glyph glyph-name="infinity" unicode="&#x221e;" horiz-adv-x="720" 
d="M196 143q-66 0 -101 35t-20 105q14 70 62 105t118 35q52 0 86 -27.5t47 -72.5q33 45 78 72.5t97 27.5q65 0 100.5 -35t21.5 -105q-15 -70 -62.5 -105t-118.5 -35q-52 0 -85.5 27.5t-47.5 72.5q-33 -45 -78 -72.5t-97 -27.5zM207 184q47 0 84 26.5t66 73.5q-13 48 -37 73
t-71 25q-54 0 -86.5 -26t-42.5 -73q-10 -46 8 -72.5t79 -26.5zM511 184q54 0 86.5 26.5t42.5 72.5q10 47 -9 73t-78 26q-47 0 -83 -25t-68 -75q13 -47 37.5 -72.5t71.5 -25.5z" />
    <glyph glyph-name="integral" unicode="&#x222b;" horiz-adv-x="433" 
d="M45 -123q-23 0 -41.5 3.5t-32.5 8.5l9 44q14 -5 29 -8t32 -3q53 0 76.5 21.5t33.5 68.5l116 547q15 71 54.5 103.5t105.5 32.5q23 0 41.5 -3.5t33.5 -9.5l-9 -44q-28 11 -61 11q-54 0 -76.5 -21t-32.5 -68l-117 -548q-28 -135 -161 -135z" />
    </font>
</defs>
</svg>
